<?xml version="1.0" encoding="utf-8"?>
<!-- Generator: Adobe Illustrator 25.4.1, SVG Export Plug-In . SVG Version: 6.00 Build 0)  -->
<svg version="1.1" xmlns="http://www.w3.org/2000/svg" xmlns:xlink="http://www.w3.org/1999/xlink" x="0px" y="0px"
	 viewBox="0 0 841.89 595.28" style="enable-background:new 0 0 841.89 595.28;" xml:space="preserve">
<style type="text/css">
	.st0{fill:#023535;stroke:#023535;stroke-width:26;stroke-miterlimit:10;}
	.st1{fill:#015958;stroke:#015958;stroke-width:26;stroke-miterlimit:10;}
	.st2{display:none;}
	.st3{display:inline;fill:none;stroke:#023535;stroke-width:19;stroke-miterlimit:10;}
</style>
<g id="Capa_1">
	<path class="st0" d="M255.29,99.15h251.01c66.97,0,106.49,80.82,68.6,140.25L449.4,436.21c-33.05,51.83-104.14,51.83-137.19,0
		L186.7,239.4C148.8,179.97,188.33,99.15,255.29,99.15z"/>
</g>
<g id="Capa_2">
	<path class="st1" d="M348.15,138.94h251.01c66.97,0,106.49,80.82,68.6,140.25L527.45,499.22c-25.08,39.33-82.5,39.33-107.58,0
		L279.56,279.19C241.66,219.76,281.19,138.94,348.15,138.94z"/>
</g>
<g id="Capa_3">
</g>
<g id="Capa_4" class="st2">
	<path class="st3" d="M111.83,504.2L38.54,368.89c-4.05-7.47,1.36-16.56,9.86-16.56h146.59c8.5,0,13.91,9.08,9.86,16.56
		L131.56,504.2C127.31,512.03,116.07,512.03,111.83,504.2z"/>
	<path class="st3" d="M167.14,476.74L93.84,341.43c-4.05-7.47,1.36-16.56,9.86-16.56h146.59c8.5,0,13.91,9.08,9.86,16.56
		l-73.29,135.31C182.62,484.58,171.38,484.58,167.14,476.74z"/>
</g>
</svg>
