<?xml version="1.0" encoding="utf-8"?>
<!-- Generator: Adobe Illustrator 25.4.1, SVG Export Plug-In . SVG Version: 6.00 Build 0)  -->
<svg version="1.1" xmlns="http://www.w3.org/2000/svg" xmlns:xlink="http://www.w3.org/1999/xlink" x="0px" y="0px"
	 viewBox="0 0 841.89 595.28" style="enable-background:new 0 0 841.89 595.28;" xml:space="preserve">
<style type="text/css">
	.st0{display:none;}
	.st1{display:inline;fill:none;stroke:#023535;stroke-width:26;stroke-miterlimit:10;}
	.st2{display:inline;fill:none;stroke:#015958;stroke-width:26;stroke-miterlimit:10;}
	.st3{fill:none;stroke:#023535;stroke-width:19;stroke-miterlimit:10;}
</style>
<g id="Capa_1" class="st0">
	<path class="st1" d="M255.29,99.15h251.01c66.97,0,106.49,80.82,68.6,140.25L449.4,436.21c-33.05,51.83-104.14,51.83-137.19,0
		L186.7,239.4C148.8,179.97,188.33,99.15,255.29,99.15z"/>
</g>
<g id="Capa_2" class="st0">
	<path class="st2" d="M348.15,138.94h251.01c66.97,0,106.49,80.82,68.6,140.25L527.45,499.22c-25.08,39.33-82.5,39.33-107.58,0
		L279.56,279.19C241.66,219.76,281.19,138.94,348.15,138.94z"/>
</g>
<g id="Capa_3" class="st0">
</g>
<g id="Capa_4">
	<path class="st3" d="M323.02,503.6L165.46,212.72c-8.7-16.07,2.93-35.6,21.2-35.6h315.13c18.27,0,29.9,19.53,21.2,35.6
		L365.43,503.6C356.31,520.44,332.14,520.44,323.02,503.6z"/>
	<path class="st3" d="M435.97,440.62L278.41,149.74c-8.7-16.07,2.93-35.6,21.2-35.6h315.13c18.27,0,29.9,19.53,21.2,35.6
		L478.37,440.62C469.25,457.46,445.09,457.46,435.97,440.62z"/>
</g>
</svg>
