<?xml version="1.0" encoding="utf-8"?>
<!-- Generator: Adobe Illustrator 25.4.1, SVG Export Plug-In . SVG Version: 6.00 Build 0)  -->
<svg version="1.1" xmlns="http://www.w3.org/2000/svg" xmlns:xlink="http://www.w3.org/1999/xlink" x="0px" y="0px"
	 viewBox="0 0 841.89 595.28" style="enable-background:new 0 0 841.89 595.28;" xml:space="preserve">
<style type="text/css">
	.st0{fill:#FFFFFF;stroke:#023535;stroke-width:26;stroke-miterlimit:10;}
	.st1{fill:#FFFFFF;stroke:#015958;stroke-width:26;stroke-miterlimit:10;}
	.st2{display:none;}
	.st3{display:inline;fill:none;stroke:#023535;stroke-width:19;stroke-miterlimit:10;}
	.st4{display:inline;fill:#FA7F08;stroke:#023535;stroke-width:19;stroke-miterlimit:10;}
	.st5{display:inline;opacity:0.46;fill:#FFB95F;}
	.st6{display:inline;fill:#023535;}
</style>
<g id="Capa_1">
	<path class="st0" d="M334.93,127.3h251.01c66.97,0,106.49,80.82,68.6,140.25L529.03,464.36c-33.05,51.83-104.14,51.83-137.19,0
		L266.33,267.55C228.43,208.12,267.96,127.3,334.93,127.3z"/>
</g>
<g id="Capa_2">
	<path class="st1" d="M583.59,447.43H258.3c-14.2,0-25.71-11.51-25.71-25.71v0c0-14.2,11.51-25.71,25.71-25.71h325.29
		c14.2,0,25.71,11.51,25.71,25.71v0C609.3,435.92,597.79,447.43,583.59,447.43z"/>
	<path class="st1" d="M295.44,120.38h251.01c66.97,0,106.49,80.82,68.6,140.25L474.74,480.66c-25.08,39.33-82.5,39.33-107.58,0
		L226.84,260.63C188.94,201.2,228.47,120.38,295.44,120.38z"/>
</g>
<g id="Capa_3">
</g>
<g id="Capa_4" class="st2">
	<path class="st3" d="M355.02,446.84c-3.21-3.19-5.18-7.35-7.28-11.41c-3-5.79-6.24-11.48-9.34-17.22
		c-10.71-19.77-21.41-39.54-32.12-59.3c-13.13-24.25-26.27-48.49-39.4-72.74c-12.47-23.02-24.93-46.03-37.4-69.05
		c-8.71-16.08-17.42-32.15-26.12-48.23c-2.21-4.07-4.41-8.14-6.62-12.22c-2.14-3.95-5.09-15.79,1.46-25.33
		c6.37-9.27,51.71-23.82,53.5-23.92c105.04,0,176.32,13.66,281.36,13.66c18.27,0,29.9,19.53,21.2,35.6
		c-3.81,8.88-7.63,17.77-11.44,26.65c-9.2,21.43-18.4,42.85-27.59,64.28c-11.23,26.16-22.46,52.33-33.69,78.49
		c-9.91,23.09-19.83,46.19-29.74,69.28c-3.25,7.57-6.5,15.15-9.75,22.72c-4.35,10.13-9.93,22.05-22.32,23.37
		c1.12-0.16,2.34-0.31,3.33,0.25c5.01,2.82-8.51,7.19-10.08,7.53c-4.9,1.07-9.93,1.26-14.86,2.13c-8.92,1.57-18.02,2.38-27.06,1.6
		c-4.6-0.4-9.3-1.26-13.16-3.79C356.83,448.48,355.88,447.69,355.02,446.84z"/>
	<path class="st4" d="M393.06,433.39L235.5,142.5c-8.7-16.07,2.93-35.6,21.2-35.6h315.13c18.27,0,29.9,19.53,21.2,35.6
		L435.46,433.39C426.34,450.22,402.18,450.22,393.06,433.39z"/>
	<polygon class="st5" points="458.89,370.12 369.38,370.12 355.07,342.96 472.71,344.57 	"/>
	<polygon class="st6" points="337.07,343.96 309.11,348.46 322.45,375.95 349.23,370.89 	"/>
</g>
</svg>
