<?xml version="1.0" encoding="utf-8"?>
<!-- Generator: Adobe Illustrator 25.4.1, SVG Export Plug-In . SVG Version: 6.00 Build 0)  -->
<svg version="1.1" id="Capa_1" xmlns="http://www.w3.org/2000/svg" xmlns:xlink="http://www.w3.org/1999/xlink" x="0px" y="0px"
	 viewBox="0 0 150 150" style="enable-background:new 0 0 150 150;" xml:space="preserve">
<style type="text/css">
	.st0{fill:#FFFFFF;}
</style>
<path class="st0" d="M64.36,4.89L42.5,9.07l-3.54-2.09l-8.36,7.23l-9.64,8.04l-8.04,12.54L11,46.04l7.39,14.14l7.71,6.11l23.46-3.86
	l4.18,3.86c0,0,5.14-1.29,5.14,0s0.96,7.39,0.96,7.39l-2.89,3.54l11.57,19.93l-4.82,8.68l4.82,13.5l8.68,16.71v3.86l19.29-1.61
	l6.43-10.93l5.46-7.71v-6.11l11.89-7.71l-2.89-19.93c0,0,4.5-11.18,5.46-10.89c0.96,0.29,13.82-13.86,13.82-13.86l1.93-9.96
	c0,0-8.68,1.61-10.29,1.29c-1.61-0.32-10.93-10.29-10.93-10.29l-4.82-6.43l-3.21-8.36l-9.32-12.54c0,0-5.79-0.96-7.07-0.96
	s-13.5,0-14.46,0s-9-4.82-9-4.82L64.36,4.89z"/>
<path class="st0" d="M133.79,98.11l-9,9l-3.21,15.75c0,0,7.39,0.96,8.04,0c0.64-0.96,7.39-14.14,7.39-14.14L133.79,98.11z"/>
</svg>
