<?xml version="1.0" encoding="utf-8"?>
<!-- Generator: Adobe Illustrator 25.4.1, SVG Export Plug-In . SVG Version: 6.00 Build 0)  -->
<svg version="1.1" id="Capa_1" xmlns="http://www.w3.org/2000/svg" xmlns:xlink="http://www.w3.org/1999/xlink" x="0px" y="0px"
	 viewBox="0 0 150 150" style="enable-background:new 0 0 150 150;" xml:space="preserve">
<style type="text/css">
	.st0{fill:#FFFFFF;}
</style>
<path class="st0" d="M4.27,66.24l2.75-4.87c0.08-0.15,0.2-0.28,0.34-0.38l5.71-4.05c0.42-0.3,0.6-0.85,0.43-1.34l-2.3-6.55
	c-0.12-0.35-0.07-0.73,0.13-1.03l0.85-1.27c0.31-0.47,0.92-0.65,1.44-0.42l7.27,3.21c0.58,0.26,0.85,0.93,0.61,1.52l-0.32,0.76
	c-0.19,0.45-0.64,0.74-1.14,0.72l-1.77-0.09c-0.82-0.04-1.42,0.75-1.17,1.53l0.29,0.88c0.24,0.74,1.12,1.04,1.76,0.61l6.13-4.11
	c0.06-0.04,0.12-0.07,0.19-0.1l7.68-3.32c0.1-0.04,0.21-0.07,0.32-0.09l4.76-0.6c0.14-0.02,0.29-0.01,0.43,0.03l5.05,1.26
	c0.77,0.19,1.51-0.42,1.45-1.22c-0.14-1.84-0.29-4.6,0.14-4.6c0.48,0,4.91-1.56,7.12-2.34c0.65-0.23,1.35,0.14,1.52,0.81
	c0.25,0.96,0.63,2.09,1,1.97c0.57-0.19,7.52-5.25,9.11-6.41c0.21-0.15,0.46-0.23,0.72-0.22c1.26,0.04,5.06,0.16,5.6-0.01
	c0.64-0.21,3.93-2.41,4.64-2.41c0.5,0,3.55,0.96,5.37,1.54c0.7,0.23,1.02,1.03,0.66,1.68l-0.67,1.21c-0.39,0.7,0.02,1.57,0.8,1.71
	l6.9,1.31c0.32,0.06,0.65-0.01,0.91-0.21c0.66-0.49,1.98-1.41,2.6-1.41c0.6,0,3.62,0.84,5.38,1.35c0.68,0.19,1.02,0.94,0.74,1.58
	l-0.1,0.23c-0.32,0.75,0.21,1.59,1.02,1.63l3.19,0.14c0.03,0,0.07,0,0.1,0.01l25.11,3.31c0.88,0.12,1.57-0.76,1.24-1.59
	c-0.36-0.88-0.31-1.73,1.24-1.73c2.6,0,11.79,4.49,15.21,6.2c0.67,0.33,0.85,1.2,0.38,1.78l-1.63,2c-0.16,0.2-0.38,0.34-0.62,0.4
	l-7.3,1.82c-0.03,0.01-0.05,0.01-0.08,0.02l-8.18,2.66c-0.23,0.07-0.43,0.22-0.57,0.41l-4.88,6.51c-0.03,0.04-0.06,0.07-0.09,0.1
	l-2.61,2.76c-0.58,0.61-1.59,0.43-1.92-0.34c-0.65-1.52-1.48-3.65-1.21-4.19c0.17-0.34,1.23-1.5,2.44-2.77
	c0.87-0.91-0.13-2.37-1.3-1.88l-2.23,0.93c-0.13,0.05-0.27,0.08-0.41,0.09l-5.88,0.2c-0.22,0.01-0.43,0.07-0.61,0.2l-5.64,3.76
	c-0.77,0.51-0.66,1.68,0.19,2.04l1.59,0.68c0.53,0.23,0.82,0.81,0.67,1.37l-1.82,6.9c-0.05,0.18-0.13,0.34-0.26,0.48L100.08,80
	c-0.1,0.11-0.21,0.2-0.34,0.27l-4.21,2.14c-0.44,0.23-0.69,0.71-0.63,1.2l0.41,2.98c0.07,0.54-0.23,1.05-0.73,1.25l-2.03,0.79
	c-0.55,0.21-1.18-0.02-1.46-0.54l-1.3-2.46c-0.56-1.06-2.16-0.69-2.2,0.51L87.5,88.9c0,0.06,0,0.13,0.01,0.19l0.75,5.47
	c0.06,0.4-0.1,0.81-0.42,1.07l-6.15,5c-0.13,0.11-0.28,0.18-0.44,0.22l-3.4,0.89c-0.68,0.18-1.05,0.91-0.79,1.56l1.42,3.55
	c0.15,0.36,0.1,0.77-0.12,1.1l-1.47,2.13c-0.31,0.46-0.9,0.63-1.41,0.42l-2.95-1.23c-0.68-0.28-1.45,0.13-1.59,0.85l-0.06,0.31
	c-0.06,0.28-0.01,0.57,0.13,0.81l0.49,0.84c0.69,1.2-0.98,2.45-1.87,1.38c-0.08-0.1-0.13-0.18-0.13-0.25c0-0.57-1.99-5.94-2.47-7.22
	c-0.07-0.18-0.18-0.34-0.33-0.47l-5.6-4.88c-0.46-0.4-1.16-0.38-1.59,0.05l-5.42,5.42c-0.15,0.15-0.26,0.34-0.31,0.55l-0.52,2.15
	c-0.25,1.03-1.63,1.23-2.15,0.3l-3.18-5.64c-0.05-0.09-0.09-0.18-0.11-0.28l-1.43-5.55c-0.14-0.55-0.65-0.92-1.21-0.87
	c-2.57,0.19-9.36,0.66-9.53,0.14c-0.16-0.49-4.01-2.94-5.87-4.1c-0.55-0.34-1.26-0.17-1.61,0.37l-0.08,0.12
	c-0.23,0.37-0.24,0.84-0.01,1.22l1.73,2.88c0.28,0.46,0.84,0.67,1.35,0.51l1.9-0.59c0.4-0.13,0.84-0.02,1.15,0.26l2.03,1.91
	c0.56,0.53,0.47,1.45-0.19,1.85l-6.41,3.92l-3.73,2.2c-0.55,0.32-1.25,0.15-1.59-0.39l-3.23-5.21c-0.02-0.02-0.03-0.05-0.05-0.07
	l-5.49-7.52c-0.18-0.24-0.25-0.54-0.22-0.83l0.58-4.63c0-0.04,0.01-0.08,0.02-0.11l0.34-1.51c0.24-1.07-0.98-1.85-1.85-1.19
	l-0.4,0.31c-0.4,0.31-0.96,0.32-1.38,0.03l-2.94-2.06c-0.39-0.27-0.58-0.76-0.47-1.22l0.47-2.01c0.12-0.53,0.59-0.9,1.14-0.9h0.52
	c0.78,0,1.34-0.75,1.12-1.49l-0.81-2.78c-0.15-0.52-0.65-0.87-1.19-0.84l-2.49,0.15c-0.51,0.03-0.99-0.28-1.17-0.76l-2.66-7.22
	C4.07,66.9,4.1,66.54,4.27,66.24z"/>
<path class="st0" d="M66.66,114.61c0.38,1.02,2.2,7.82,2.41,8.2s5.59,2.46,5.93,2.36c0.34-0.11,0.82-3.8,0.82-3.8L66.66,114.61z"/>
</svg>
