<?xml version="1.0" encoding="utf-8"?>
<!-- Generator: Adobe Illustrator 25.4.1, SVG Export Plug-In . SVG Version: 6.00 Build 0)  -->
<svg version="1.1" id="Capa_1" xmlns="http://www.w3.org/2000/svg" xmlns:xlink="http://www.w3.org/1999/xlink" x="0px" y="0px"
	 viewBox="0 0 150 150" style="enable-background:new 0 0 150 150;" xml:space="preserve">
<style type="text/css">
	.st0{fill:url(#SVGID_1_);}
	.st1{fill:#FFFFFF;}
	.st2{fill:none;stroke:#FFFFFF;stroke-width:4;stroke-miterlimit:10;}
</style>
<g id="Capa_1_00000011029677966714716690000010778441438919925159_">
	
		<linearGradient id="SVGID_1_" gradientUnits="userSpaceOnUse" x1="9.1158" y1="119.7424" x2="146.1218" y2="27.3423" gradientTransform="matrix(1 0 0 -1 0 150)">
		<stop  offset="3.560000e-02" style="stop-color:#00A99D"/>
		<stop  offset="0.2161" style="stop-color:#009F9D"/>
		<stop  offset="0.512" style="stop-color:#00969C"/>
		<stop  offset="0.9332" style="stop-color:#00939C"/>
	</linearGradient>
	<path class="st0" d="M132.3,124H17.7c-7.1,0-12.8-5.8-12.8-12.8V38.8c0-7.1,5.7-12.8,16-12.8h114.6c4,0,9.7,5.8,9.7,12.8v72.3
		C145.1,118.2,139.4,124,132.3,124z"/>
	<path class="st1" d="M79.4,107h-8.9c-0.4,0-0.7-0.3-0.7-0.7v-8.9c0-0.4,0.3-0.7,0.7-0.7h8.9c0.4,0,0.7,0.3,0.7,0.7v8.9
		C80.2,106.6,79.8,107,79.4,107z"/>
	<path class="st1" d="M102.3,107h-8.9c-0.4,0-0.7-0.3-0.7-0.7v-8.9c0-0.4,0.3-0.7,0.7-0.7h8.9c0.4,0,0.7,0.3,0.7,0.7v8.9
		C103,106.6,102.7,107,102.3,107z"/>
	<path class="st1" d="M55.3,107h-8.9c-0.4,0-0.7-0.3-0.7-0.7v-8.9c0-0.4,0.3-0.7,0.7-0.7h8.9c0.4,0,0.7,0.3,0.7,0.7v8.9
		C56,106.6,55.7,107,55.3,107z"/>
</g>
<path class="st2" d="M26.4,95.7l15.4-33.1c0,0,12.5,16.1,12.5,16.6s4.2-8.5,4.2-8.5l2.6,2.2l2.2-7.4l3.5,4.2L73.3,52l10.3,31.8
	l2.2-11.6l4.5,7.8l3.9-19l6.1,12.9l5.5-21.9l6.4,3.5l2.6-12.5"/>
</svg>
