<?xml version="1.0" encoding="utf-8"?>
<!-- Generator: Adobe Illustrator 25.4.1, SVG Export Plug-In . SVG Version: 6.00 Build 0)  -->
<svg version="1.1" id="Capa_1" xmlns="http://www.w3.org/2000/svg" xmlns:xlink="http://www.w3.org/1999/xlink" x="0px" y="0px"
	 viewBox="0 0 150 150" style="enable-background:new 0 0 150 150;" xml:space="preserve">
<style type="text/css">
	.st0{fill:url(#SVGID_1_);stroke:#023535;stroke-width:3;stroke-miterlimit:10;}
	.st1{fill:#FFC13F;}
	.st2{fill:#FFB315;}
	.st3{fill:#FFA135;}
	.st4{fill:#FF7E2A;}
	.st5{fill:none;stroke:#333333;stroke-miterlimit:10;}
	.st6{fill:#FFCE35;}
	.st7{fill:#FF651F;}
	.st8{fill:#FF8C5F;}
	.st9{fill:#D4001D;}
</style>
<g id="Capa_1_00000116236945101115245930000015682370484501118126_">
	
		<image style="display:none;overflow:visible;enable-background:new    ;" width="1221" height="1348" xlink:href="F6FC1F1A.jpeg"  transform="matrix(0.1087 0 0 0.1087 8.5944 1.6874)">
	</image>
	<linearGradient id="SVGID_1_" gradientUnits="userSpaceOnUse" x1="9" y1="72.95" x2="141.7" y2="72.95">
		<stop  offset="0" style="stop-color:#B6FF2A"/>
		<stop  offset="0.1437" style="stop-color:#B1EF22"/>
		<stop  offset="0.5134" style="stop-color:#A7C90F"/>
		<stop  offset="0.812" style="stop-color:#A0B204"/>
		<stop  offset="1" style="stop-color:#9EAA00"/>
	</linearGradient>
	<path class="st0" d="M59.4,0.9l5.4,4.7l4.9,4.1l4.1,1.3l2.6,2.1l3.9,1.3l3.4-1.3l2.3,1.3l-2.8,1.3L86,17l2.6,1.1v3.2l0.9,2.8h1.7
		c0,0,1.7-0.2,2.4,0c0.6,0.2,1.5,0,1.5,0l1.5,0.1l1.1,1.6h1.9c0,0,2.1-0.9,2.8,0c0.6,0.9,4.5,0,4.5,0s1.7-0.3,2.6,0.4
		c0.9,0.7,3,0,3,0s2.1,0.6,1.1,0.3c-1.1-0.3,0.4-2.4,0.3-2.6s0.3-1.1,1-1.1c0.6,0,0.4-0.4,1.7-0.4S123,25,123,25l2.1,1.6l1.1,2.6
		c0,0,1.3,1.1,1.9,1.3c0.6,0.2,3,0,3,0s1.1,0.6,1.5,1.5c0.4,0.9-0.2,1.5,1.1,1.9s2.4-0.4,3.4,0c1.1,0.4,3.2,1.1,3.2,1.1l-3.6,1.5
		c0,0-1.5-0.2-2.1,0s-3.4,0-3.4,0l-0.2,2.1l2.8,1.9h1.7l1.7,2.8h1.9c0,0,2.1,3.6,1.3,4.3c-0.9,0.6,0.2,3,0.2,3v3.2l1.1,1.9h-3.9
		h-1.3l-1.9,6.2l-1.9,6.6l-1.9,0.9L122,80.8l-13.1,10.3l-16.5,6.4l-10.7,2.6l-4.9,5.1l-1.6,2.3l-2.3,1.5l2.3,2.6l-2.5,1.3l-1.7-2.8
		l-1.3,1.7l-0.2,5.6l-2.8,4.1l-2.1,4.7v3.2l-1.9,1.3l1.3,2.8l-2.8,4.7h-2.6l-1.7,3.2l-1.7,3.6h-4.3l-3-0.9l-3.2-3V137l-1.5-2.4
		l-3-1.1l-3.9,0.6l-1.9-2.8l-4.5-1.7l-4.9,4.1l-2.6-1.3v-1.7l1.5-1.9l-1.5-1.7v-2.6v-1.9l2.6-0.2l2.6-0.2l1.5-1.9l-2.4-9.9l6.9-2.1
		l-1.3-3.2l3-1.7l2.4-4.1l-0.2-3.9l1.1-3.2l-1.7-3.9l-1.7,2.1l-2.1,0.2L31.6,88L29,90.6l-1.9,1.5l0.6,3l-3-1.5L20,90.8l-3.4-3.2
		l-4.9-2.4l-2.7-3c0,0,2.1-0.4,2.9-0.2c0.9,0.2,1.9,0.2,1.9,0.2l1.1-2.4c0,0,0.6-1.9,1.1-2.6s0.4-1.7,0.4-1.7L15.1,73L13,69.4
		c0,0-1.3-3.2-0.6-3.2c0.6,0,2.1-1.7,2.1-1.7v-2.1l-2.1-3.2l-1.1-2.8c0,0,0.9-1.5,1.5-1.9s3.6-1.5,3.6-1.5s1.7,0,2.4,0
		c0.6,0,1.3-5.4,1.9-5.8c0.6-0.4,2.4-1.7,2.4-1.7L21,42.7l-0.2-1.5l2.3-1.7l0.4-1.9c0,0,1.1-1.1,2.1-1.1s1.1-3,1.7-3.2
		s2.4-2.8,2.4-2.8l1.3-6.6l-1.5-4.3l-1.7-4.7c0,0,3-1.9,4.9-2.6c1.9-0.6,7.5-2.6,8.8-2.6S46.6,8,46.6,8s6.6-3,7.9-3
		S59.4,0.9,59.4,0.9z"/>
</g>
<g id="Capa_2_00000018218942132158744900000009743973817012496045_">
	<ellipse class="st1" cx="94.7" cy="84.6" rx="21.7" ry="20.2"/>
	<circle class="st2" cx="94.7" cy="84.6" r="11.7"/>
	<circle class="st3" cx="94.7" cy="84.6" r="6.5"/>
	<circle class="st4" cx="95.2" cy="84.5" r="2.5"/>
</g>
<g id="Capa_4">
	<path class="st5" d="M2.4,25.5c0.6,0.5,7,1.8,7.4,0.8c0.4-1,2.8-5.9,2.8-5.9l1.7,5.9l1.7,4l1.3-6.1H21l21.1-0.6l1.4-6.7l1.2,7.2
		c0,0.3,0.1,0.6,0.2,0.9l0.7,3.1l1.2-11.5L48,24l0,0l1,5c0.1,0.4,0.7,0.4,0.8-0.1l1.3-14l1.7,8.3c0,0.4,0.1,0.8,0.3,1.1L54,27
		c0.3,0.6,1.2,0.6,1.4-0.1l1-3.4H62"/>
</g>
<g id="Capa_3">
	<ellipse class="st6" cx="30.1" cy="23.5" rx="11.5" ry="10.7"/>
	<circle class="st7" cx="30.1" cy="23.5" r="6.2"/>
	<circle class="st8" cx="30.1" cy="23.5" r="3.5"/>
	<circle class="st9" cx="30.3" cy="23.5" r="1.3"/>
</g>
</svg>
