<?xml version="1.0" encoding="utf-8"?>
<!-- Generator: Adobe Illustrator 25.4.1, SVG Export Plug-In . SVG Version: 6.00 Build 0)  -->
<svg version="1.1" id="Capa_1" xmlns="http://www.w3.org/2000/svg" xmlns:xlink="http://www.w3.org/1999/xlink" x="0px" y="0px"
	 viewBox="0 0 150 150" style="enable-background:new 0 0 150 150;" xml:space="preserve">
<style type="text/css">
	.st0{fill:none;stroke:url(#SVGID_1_);stroke-width:32;stroke-miterlimit:10;}
	.st1{display:none;fill:none;stroke:#39B54A;stroke-width:32;stroke-miterlimit:10;}
	.st2{fill:none;stroke:#39B54A;stroke-width:32;stroke-miterlimit:10;}
	.st3{fill:none;stroke:url(#SVGID_00000016054900575693781050000014374241580208197297_);stroke-width:32;stroke-miterlimit:10;}
	.st4{fill:none;stroke:url(#SVGID_00000031185238656015916460000015790095333001903538_);stroke-width:32;stroke-miterlimit:10;}
	.st5{fill:none;stroke:url(#SVGID_00000083781179422425174090000007649722854246170019_);stroke-width:17;stroke-miterlimit:10;}
	.st6{fill:#FFFFFF;}
</style>
<g id="Capa_1_00000100368121895426850850000001647339530675771581_">
	
		<linearGradient id="SVGID_1_" gradientUnits="userSpaceOnUse" x1="17.64" y1="79.12" x2="139.64" y2="79.12" gradientTransform="matrix(1 0 0 -1 0 150)">
		<stop  offset="0" style="stop-color:#F15A24"/>
		<stop  offset="1" style="stop-color:#F7931E"/>
	</linearGradient>
	<circle class="st0" cx="78.6" cy="70.9" r="45"/>
	<path class="st1" d="M99.6,80.4c0,18.5-15,33.5-33.5,33.5s-33.5-15-33.5-33.5"/>
	<path class="st2" d="M119.5,82.3"/>
	<path class="st1" d="M78.5,47"/>
	
		<linearGradient id="SVGID_00000070096038472271473050000002084989506081935806_" gradientUnits="userSpaceOnUse" x1="67.7682" y1="81.7791" x2="130.2369" y2="81.7791" gradientTransform="matrix(0.9962 -8.720000e-02 -8.720000e-02 -0.9962 4.8739 159.7594)">
		<stop  offset="0" style="stop-color:#00A99D"/>
		<stop  offset="1" style="stop-color:#0071BC"/>
	</linearGradient>
	
		<path style="fill:none;stroke:url(#SVGID_00000070096038472271473050000002084989506081935806_);stroke-width:32;stroke-miterlimit:10;" d="
		M86.1,38.1c17.4,3.7,28.4,21,24.7,38.7c-3.8,17.7-20.9,29-38.3,25.3"/>
	
		<linearGradient id="SVGID_00000128468077679041645800000000410823627450019005_" gradientUnits="userSpaceOnUse" x1="45.29" y1="82.46" x2="110.29" y2="82.46" gradientTransform="matrix(1 0 0 -1 0 150)">
		<stop  offset="0" style="stop-color:#FBB03B"/>
		<stop  offset="0.2698" style="stop-color:#BC8956"/>
		<stop  offset="0.6226" style="stop-color:#705A76"/>
		<stop  offset="0.8749" style="stop-color:#403C8A"/>
		<stop  offset="1" style="stop-color:#2E3192"/>
	</linearGradient>
	
		<circle style="fill:none;stroke:url(#SVGID_00000128468077679041645800000000410823627450019005_);stroke-width:32;stroke-miterlimit:10;" cx="77.8" cy="67.5" r="16.5"/>
</g>
<g id="Capa_2_00000139992148733967106470000011016498899317991101_">
	
		<linearGradient id="SVGID_00000092442354599342199750000006552805409575104180_" gradientUnits="userSpaceOnUse" x1="45.4356" y1="73.1876" x2="82.1647" y2="73.1876" gradientTransform="matrix(0.5736 -0.8192 -0.8192 -0.5736 74.254 173.7572)">
		<stop  offset="0" style="stop-color:#39B54A"/>
		<stop  offset="0.3608" style="stop-color:#36B34A"/>
		<stop  offset="0.5831" style="stop-color:#2EAE49"/>
		<stop  offset="0.7678" style="stop-color:#1FA548"/>
		<stop  offset="0.9312" style="stop-color:#0B9946"/>
		<stop  offset="1" style="stop-color:#009245"/>
	</linearGradient>
	
		<path style="fill:none;stroke:url(#SVGID_00000092442354599342199750000006552805409575104180_);stroke-width:17;stroke-miterlimit:10;" d="
		M66,100.7c-18.2-6.6-27.6-26.8-21-45"/>
</g>
<g id="Capa_3">
	<g>
		<g>
			<path class="st6" d="M40.3,81.8l1.7-2.3c0.1-0.1,0.2-0.3,0.2-0.4c0.1-0.1,0.1-0.3,0.1-0.4v0c0-0.2-0.1-0.3-0.2-0.5
				S41.9,78,41.7,78c-0.2,0-0.4,0.1-0.5,0.2c-0.1,0.1-0.2,0.3-0.2,0.5l0,0h-0.7l0,0c0-0.3,0.1-0.5,0.2-0.7c0.1-0.2,0.3-0.4,0.5-0.5
				c0.2-0.1,0.4-0.2,0.7-0.2c0.3,0,0.5,0.1,0.8,0.2s0.4,0.2,0.5,0.4s0.2,0.4,0.2,0.7l0,0c0,0.2,0,0.4-0.1,0.6s-0.2,0.4-0.3,0.6
				l-1.4,2h1.9v0.7h-2.8L40.3,81.8L40.3,81.8z"/>
			<path class="st6" d="M44.7,82.2c-0.2-0.1-0.3-0.2-0.5-0.4c-0.1-0.2-0.2-0.4-0.2-0.7l0,0h0.7l0,0c0,0.2,0.1,0.3,0.2,0.4
				s0.3,0.2,0.5,0.2c0.2,0,0.4-0.1,0.5-0.2c0.1-0.2,0.2-0.4,0.2-0.6v-0.4c0-0.3-0.1-0.5-0.2-0.6c-0.1-0.2-0.3-0.2-0.5-0.2
				c-0.1,0-0.2,0-0.3,0.1s-0.2,0.2-0.3,0.3h-0.6v-2.6h2.5V78h-1.8v1.1c0.1-0.1,0.2-0.1,0.3-0.2c0.1,0,0.2-0.1,0.3-0.1
				c0.3,0,0.5,0.1,0.7,0.2c0.2,0.1,0.4,0.3,0.5,0.5c0.1,0.2,0.2,0.5,0.2,0.8v0.4c0,0.3,0,0.6-0.2,0.8c-0.1,0.2-0.3,0.4-0.5,0.5
				c-0.2,0.1-0.5,0.2-0.8,0.2C45.1,82.4,44.9,82.3,44.7,82.2z"/>
			<path class="st6" d="M47.8,79.3c-0.1-0.2-0.2-0.4-0.2-0.6v-0.4c0-0.3,0.1-0.5,0.2-0.6c0.1-0.2,0.3-0.2,0.6-0.2s0.5,0.1,0.6,0.2
				s0.2,0.4,0.2,0.7v0.4c0,0.3-0.1,0.5-0.2,0.7c-0.2,0.2-0.3,0.2-0.6,0.2C48.2,79.5,48,79.4,47.8,79.3z M50.7,77.4h0.6l-2.7,5H48
				L50.7,77.4z M48.7,78.9c0-0.1,0.1-0.1,0.1-0.2v-0.5c0-0.1,0-0.2-0.1-0.2c0-0.1-0.1-0.1-0.2-0.1c-0.1,0-0.2,0-0.2,0.1
				c0,0.1-0.1,0.1-0.1,0.2v0.5c0,0.1,0,0.2,0.1,0.2c0,0.1,0.1,0.1,0.2,0.1C48.5,79,48.6,78.9,48.7,78.9z M50.3,82.2
				c-0.1-0.2-0.2-0.4-0.2-0.6v-0.4c0-0.3,0.1-0.5,0.2-0.6c0.1-0.2,0.3-0.2,0.6-0.2s0.5,0.1,0.6,0.2s0.2,0.4,0.2,0.7v0.4
				c0,0.3-0.1,0.5-0.2,0.7c-0.1,0.2-0.3,0.2-0.6,0.2C50.7,82.4,50.5,82.3,50.3,82.2z M51.1,81.8c0-0.1,0.1-0.1,0.1-0.2v-0.5
				c0-0.1,0-0.2-0.1-0.2c0-0.1-0.1-0.1-0.2-0.1c-0.1,0-0.2,0-0.2,0.1c0,0.1-0.1,0.1-0.1,0.2v0.5c0,0.1,0,0.2,0.1,0.2
				c0,0.1,0.1,0.1,0.2,0.1C51,81.9,51.1,81.8,51.1,81.8z"/>
		</g>
	</g>
	<g>
		<g>
			<path class="st6" d="M97.2,97c-0.3-0.1-0.5-0.3-0.6-0.6s-0.3-0.5-0.3-0.9l0,0h0.9l0,0c0,0.2,0.1,0.4,0.3,0.6
				c0.2,0.1,0.4,0.2,0.6,0.2c0.3,0,0.5-0.1,0.7-0.3s0.2-0.5,0.2-0.8v-0.5c0-0.3-0.1-0.6-0.2-0.8c-0.2-0.2-0.4-0.3-0.7-0.3
				c-0.2,0-0.3,0-0.5,0.1s-0.3,0.2-0.4,0.4h-0.8v-3.4h3.4v0.8h-2.4V93c0.1-0.1,0.2-0.2,0.4-0.2s0.3-0.1,0.4-0.1c0.4,0,0.7,0.1,1,0.2
				s0.5,0.4,0.6,0.7s0.2,0.7,0.2,1.1v0.5c0,0.4-0.1,0.8-0.2,1.1s-0.4,0.5-0.6,0.7s-0.6,0.2-1,0.2C97.8,97.2,97.5,97.1,97.2,97z"/>
			<path class="st6" d="M102.4,97c-0.3-0.1-0.5-0.3-0.6-0.6s-0.3-0.5-0.3-0.9l0,0h0.9l0,0c0,0.2,0.1,0.4,0.3,0.6
				c0.2,0.1,0.4,0.2,0.6,0.2c0.3,0,0.5-0.1,0.7-0.3s0.2-0.5,0.2-0.8v-0.5c0-0.3-0.1-0.6-0.2-0.8c-0.2-0.2-0.4-0.3-0.7-0.3
				c-0.2,0-0.3,0-0.5,0.1s-0.3,0.2-0.4,0.4h-0.8v-3.4h3.4v0.8h-2.4V93c0.1-0.1,0.2-0.2,0.4-0.2s0.3-0.1,0.4-0.1c0.4,0,0.7,0.1,1,0.2
				s0.5,0.4,0.6,0.7s0.2,0.7,0.2,1.1v0.5c0,0.4-0.1,0.8-0.2,1.1s-0.4,0.5-0.6,0.7s-0.6,0.2-1,0.2C102.9,97.2,102.6,97.1,102.4,97z"
				/>
			<path class="st6" d="M106.6,93.2c-0.2-0.2-0.3-0.5-0.3-0.8v-0.6c0-0.3,0.1-0.6,0.3-0.8c0.2-0.2,0.5-0.3,0.8-0.3s0.6,0.1,0.8,0.3
				c0.2,0.2,0.3,0.5,0.3,0.8v0.5c0,0.4-0.1,0.6-0.3,0.8s-0.5,0.3-0.8,0.3C107,93.5,106.8,93.4,106.6,93.2z M110.4,90.7h0.8l-3.6,6.4
				h-0.8L110.4,90.7z M107.6,92.7c0.1-0.1,0.1-0.2,0.1-0.3v-0.7c0-0.1,0-0.2-0.1-0.3s-0.1-0.1-0.2-0.1s-0.2,0-0.2,0.1
				s-0.1,0.2-0.1,0.3v0.6c0,0.1,0,0.2,0.1,0.3s0.1,0.1,0.2,0.1C107.5,92.8,107.6,92.8,107.6,92.7z M109.9,96.9
				c-0.2-0.2-0.3-0.5-0.3-0.8v-0.6c0-0.3,0.1-0.6,0.3-0.8c0.2-0.2,0.5-0.3,0.8-0.3s0.6,0.1,0.8,0.3c0.2,0.2,0.3,0.5,0.3,0.8v0.5
				c0,0.4-0.1,0.6-0.3,0.8s-0.5,0.3-0.8,0.3C110.3,97.2,110.1,97.1,109.9,96.9z M110.9,96.4c0.1-0.1,0.1-0.2,0.1-0.3v-0.7
				c0-0.1,0-0.2-0.1-0.3s-0.1-0.1-0.2-0.1s-0.2,0-0.2,0.1s-0.1,0.2-0.1,0.3v0.6c0,0.1,0,0.2,0.1,0.3s0.1,0.1,0.2,0.1
				C110.8,96.5,110.9,96.5,110.9,96.4z"/>
		</g>
	</g>
	<g>
		<g>
			<path class="st6" d="M63.2,30.8h-0.9v-5.5l-0.9,0.6V25l0.9-0.6h0.9V30.8z"/>
			<path class="st6" d="M65.2,30.4c-0.3-0.3-0.5-0.8-0.5-1.4v-2.9c0-0.6,0.2-1,0.5-1.4s0.8-0.5,1.4-0.5s1.1,0.2,1.4,0.5
				s0.5,0.8,0.5,1.4v2.9c0,0.6-0.2,1-0.5,1.4s-0.8,0.5-1.4,0.5C65.9,30.9,65.5,30.8,65.2,30.4z M67.2,29.8c0.2-0.2,0.2-0.4,0.2-0.7
				v-2.9c0-0.3-0.1-0.5-0.2-0.7s-0.4-0.2-0.7-0.2s-0.6,0.1-0.7,0.2c-0.2,0.2-0.2,0.4-0.2,0.7v2.9c0,0.3,0.1,0.5,0.2,0.7
				s0.4,0.2,0.7,0.2S67.1,30,67.2,29.8z"/>
			<path class="st6" d="M70.1,30.4c-0.3-0.3-0.5-0.8-0.5-1.4v-2.9c0-0.6,0.2-1,0.5-1.4s0.8-0.5,1.4-0.5s1.1,0.2,1.4,0.5
				s0.5,0.8,0.5,1.4v2.9c0,0.6-0.2,1-0.5,1.4s-0.8,0.5-1.4,0.5C70.9,30.9,70.4,30.8,70.1,30.4z M72.2,29.8c0.2-0.2,0.2-0.4,0.2-0.7
				v-2.9c0-0.3-0.1-0.5-0.2-0.7s-0.4-0.2-0.7-0.2s-0.6,0.1-0.7,0.2c-0.2,0.2-0.2,0.4-0.2,0.7v2.9c0,0.3,0.1,0.5,0.2,0.7
				s0.4,0.2,0.7,0.2S72,30,72.2,29.8z"/>
			<path class="st6" d="M74.7,26.9c-0.2-0.2-0.3-0.5-0.3-0.8v-0.5c0-0.4,0.1-0.6,0.3-0.8c0.2-0.2,0.4-0.3,0.8-0.3s0.6,0.1,0.8,0.3
				c0.2,0.2,0.3,0.5,0.3,0.9V26c0,0.4-0.1,0.6-0.3,0.8s-0.4,0.3-0.8,0.3C75.1,27.1,74.9,27,74.7,26.9z M78.4,24.4h0.8l-3.5,6.5h-0.8
				L78.4,24.4z M75.7,26.4c0.1-0.1,0.1-0.2,0.1-0.3v-0.6c0-0.1,0-0.2-0.1-0.3c-0.1-0.1-0.1-0.1-0.2-0.1c-0.1,0-0.2,0-0.2,0.1
				c-0.1,0.1-0.1,0.2-0.1,0.3v0.6c0,0.1,0,0.2,0.1,0.3c0.1,0.1,0.1,0.1,0.2,0.1S75.7,26.4,75.7,26.4z M77.9,30.6
				c-0.2-0.2-0.3-0.5-0.3-0.8v-0.5c0-0.4,0.1-0.6,0.3-0.8s0.4-0.3,0.8-0.3s0.6,0.1,0.8,0.3s0.3,0.5,0.3,0.9v0.5
				c0,0.4-0.1,0.6-0.3,0.8s-0.4,0.3-0.8,0.3C78.3,30.9,78.1,30.8,77.9,30.6z M78.9,30.1c0.1-0.1,0.1-0.2,0.1-0.3v-0.6
				c0-0.1,0-0.2-0.1-0.3c-0.1-0.1-0.1-0.1-0.2-0.1c-0.1,0-0.2,0-0.2,0.1c-0.1,0.1-0.1,0.2-0.1,0.3v0.6c0,0.1,0,0.2,0.1,0.3
				c0.1,0.1,0.1,0.1,0.2,0.1S78.8,30.2,78.9,30.1z"/>
		</g>
	</g>
</g>
<circle class="st6" cx="77.8" cy="67.5" r="14.2"/>
</svg>
