<?xml version="1.0" encoding="utf-8"?>
<!-- Generator: Adobe Illustrator 25.4.1, SVG Export Plug-In . SVG Version: 6.00 Build 0)  -->
<svg version="1.1" id="Capa_1" xmlns="http://www.w3.org/2000/svg" xmlns:xlink="http://www.w3.org/1999/xlink" x="0px" y="0px"
	 viewBox="0 0 150 150" style="enable-background:new 0 0 150 150;" xml:space="preserve">
<style type="text/css">
	.st0{fill:url(#SVGID_1_);stroke:#000000;stroke-miterlimit:10;}
	.st1{fill:url(#SVGID_00000159466477128811991190000010175404591960009638_);stroke:#000000;stroke-miterlimit:10;}
	.st2{fill:#038A00;stroke:#000000;stroke-miterlimit:10;}
	.st3{fill:#1EB400;stroke:#000000;stroke-miterlimit:10;}
	.st4{fill:url(#SVGID_00000103954962902995630580000002160297678389458313_);stroke:#000000;stroke-miterlimit:10;}
	.st5{fill:#DFA300;}
	.st6{fill:#FF2300;}
</style>
<linearGradient id="SVGID_1_" gradientUnits="userSpaceOnUse" x1="104.7669" y1="45.2137" x2="93.3062" y2="107.3826">
	<stop  offset="0.1665" style="stop-color:#00BF27"/>
	<stop  offset="0.4419" style="stop-color:#88BE29"/>
	<stop  offset="0.6281" style="stop-color:#E7BE2A"/>
	<stop  offset="0.71" style="stop-color:#E6BF2D"/>
	<stop  offset="0.7634" style="stop-color:#E5C135"/>
	<stop  offset="0.8087" style="stop-color:#E1C644"/>
	<stop  offset="0.8494" style="stop-color:#DDCC59"/>
	<stop  offset="0.8871" style="stop-color:#D7D575"/>
	<stop  offset="0.9225" style="stop-color:#D0DF96"/>
	<stop  offset="0.9562" style="stop-color:#C7EBBE"/>
	<stop  offset="0.9877" style="stop-color:#BDF9EB"/>
	<stop  offset="1" style="stop-color:#B9FFFF"/>
</linearGradient>
<polygon class="st0" points="85.9,103.6 82.7,101 81.8,88.5 74.6,87.7 72.7,84.1 73.7,76.2 79.3,71.9 84.4,71.9 86.5,71.9 83.8,66 
	80.9,68.4 73.5,66 73.8,61.3 78.2,56.5 78,49.9 84.3,46.5 89.1,48.1 105,40.6 111.3,41.7 110.5,45.4 130.9,46.7 131.5,51.7 
	128.2,55 123.3,57.6 118,57.6 117.9,61.5 112.6,70 111.1,78.3 109,79.9 105.7,79 102.1,76.2 101,79.6 96,76.2 92.6,76.1 96.5,79.8 
	95.9,87.5 94.4,93.8 88.9,100.8 87.8,103.6 "/>
<linearGradient id="SVGID_00000022533581896033088010000012209487682385880450_" gradientUnits="userSpaceOnUse" x1="100.8774" y1="102.205" x2="119.1226" y2="102.205">
	<stop  offset="0" style="stop-color:#00BF27"/>
	<stop  offset="9.257379e-02" style="stop-color:#1DBF27"/>
	<stop  offset="0.7566" style="stop-color:#E7BE2A"/>
</linearGradient>
<path style="fill:url(#SVGID_00000022533581896033088010000012209487682385880450_);stroke:#000000;stroke-miterlimit:10;" d="
	M113.1,94.4h-4.6c-0.8,0-1.6,0.3-2.1,0.9l-4.7,4.8c-0.5,0.6-0.8,1.3-0.8,2.1v1.1c0,0.9,0.4,1.7,1.1,2.3l1.2,1
	c0.7,0.5,1.5,0.8,2.4,0.6l3.2-0.6c1.1-0.2,2.1,0.2,2.8,1l1.1,1.3c0.6,0.7,1.4,1.1,2.3,1.1l0,0c1.3,0,2.4-0.8,2.8-2l1.2-3.4
	c0.3-0.7,0.2-1.6-0.1-2.3l-3-6.2C115.3,95.1,114.3,94.4,113.1,94.4z"/>
<polygon class="st2" points="106.9,84.9 103.7,86.2 116.3,92.5 111.1,85.9 "/>
<polygon class="st3" points="60.7,52.5 61.5,59.9 64.8,59 72.7,48.5 70.3,42 62.3,42.8 56.2,48.1 57.3,52.1 "/>
<linearGradient id="SVGID_00000125593837438738451010000014776275332442585751_" gradientUnits="userSpaceOnUse" x1="24.0503" y1="84.5346" x2="54.5065" y2="57.6166">
	<stop  offset="0" style="stop-color:#00BF27"/>
	<stop  offset="0.3949" style="stop-color:#88BE29"/>
	<stop  offset="0.662" style="stop-color:#E7BE2A"/>
	<stop  offset="0.9637" style="stop-color:#B9FFFF"/>
</linearGradient>
<path style="fill:url(#SVGID_00000125593837438738451010000014776275332442585751_);stroke:#000000;stroke-miterlimit:10;" d="
	M35.9,85.5l3.8,5.7c0.1,0.1,0.1,0.2,0.1,0.3l-0.9,8.8c0,0,0,0.1,0,0.1l0.9,4.9c0,0.1,0.1,0.2,0.2,0.3l6.9,3.9c0.3,0.2,0.6,0,0.6-0.4
	l-0.1-9.4c0-0.1,0-0.2,0.1-0.2l4.9-7.8c0,0,0,0,0,0l2.9-6.3c0.1-0.2,0-0.3-0.1-0.5l-3.9-3.9c0,0,0,0-0.1-0.1l-6-3.8c0,0,0,0-0.1,0
	l-2.5-1c-0.2-0.1-0.3-0.2-0.3-0.4l0.3-3.8c0,0,0-0.1,0-0.1l-0.5-4.4c0-0.1,0-0.3,0.1-0.3l2-1.8c0.1-0.1,0.1-0.1,0.1-0.2l0.6-3.9
	c0-0.1,0.1-0.2,0.2-0.3l4.2-3.1c0,0,0,0,0.1-0.1l1.1-1.3c0.2-0.2,0.1-0.4,0-0.6l-4.7-4.1c-0.1-0.1-0.2-0.1-0.4-0.1h0
	c-0.8,0.2-1.5-0.4-1.5-1.2l0-0.1c0-0.2,0.2-0.4,0.4-0.4h1c0.2,0,0.4-0.1,0.4-0.3l0.5-2.6c0-0.1,0-0.2,0-0.3l-1.8-3.2
	c-0.1-0.1-0.1-0.2,0-0.3l3.1-8c0-0.1,0-0.2,0-0.3l-0.8-1.4c-0.1-0.1-0.2-0.2-0.4-0.2h-5.7c0,0-0.1,0-0.1,0L35,34.4c0,0-0.1,0-0.1,0
	l-4.7,2.2c-0.1,0-0.1,0.1-0.1,0.1l-6.4,7.4c-0.1,0.1-0.2,0.1-0.2,0.1l-6.1,0.9c-0.1,0-0.2,0.1-0.3,0.2l-2.3,4.4c0,0.1,0,0.1,0,0.2
	v4.2c0,0.1,0,0.2,0.1,0.3l2.2,2.1c0.1,0.1,0.3,0.1,0.5,0.1l5.6-2.5c0.2-0.1,0.4,0,0.5,0.1l2.6,3.4c0.1,0.1,0.1,0.2,0.1,0.3
	c-0.3,1-1.5,6.2-1.1,6.2c0.5,0,4.7,4.5,4.7,4.5l2.7,2.6c0,0,0.1,0.1,0.1,0.1l4.1,2.1c0,0,0.1,0.1,0.1,0.1l3.3,3.5
	c0.1,0.2,0.1,0.4,0,0.5l-4.2,5.1C35.3,83.7,35.4,84.7,35.9,85.5z"/>
<circle class="st5" cx="40.8" cy="83.8" r="3.5"/>
<circle class="st6" cx="40.5" cy="83.8" r="1.4"/>
</svg>
