<?xml version="1.0" encoding="utf-8"?>
<!-- Generator: Adobe Illustrator 25.4.1, SVG Export Plug-In . SVG Version: 6.00 Build 0)  -->
<svg version="1.1" xmlns="http://www.w3.org/2000/svg" xmlns:xlink="http://www.w3.org/1999/xlink" x="0px" y="0px"
	 viewBox="0 0 1366 1159.9" style="enable-background:new 0 0 1366 1159.9;" xml:space="preserve">
<style type="text/css">
	.st0{display:none;}
	.st1{display:inline;fill:#B4FFB4;stroke:#000000;stroke-miterlimit:10;}
	.st2{display:inline;fill:#FFE15F;stroke:#000000;stroke-miterlimit:10;}
	.st3{display:inline;fill:#FF946A;stroke:#000000;stroke-miterlimit:10;}
	.st4{display:inline;fill:#FFFFFF;stroke:#4D4D4D;stroke-width:2;stroke-miterlimit:10;}
	.st5{display:inline;fill:#FFFFFF;stroke:#333333;stroke-width:2;stroke-miterlimit:10;}
	.st6{fill:#FAFF8A;stroke:#4D4D4D;stroke-width:4;stroke-miterlimit:10;}
	.st7{fill:#00F40D;stroke:#4D4D4D;stroke-width:4;stroke-miterlimit:10;}
	.st8{fill:#F3FF55;stroke:#4D4D4D;stroke-width:2;stroke-miterlimit:10;}
	.st9{fill:#7F5FFF;stroke:#4D4D4D;stroke-width:4;stroke-miterlimit:10;}
	.st10{fill:#FF9855;stroke:#4D4D4D;stroke-width:2;stroke-miterlimit:10;}
	.st11{fill:#FF5F8C;stroke:#4D4D4D;stroke-width:2;stroke-miterlimit:10;}
	.st12{fill:#FFFFFF;stroke:#4D4D4D;stroke-width:2;stroke-miterlimit:10;}
	.st13{fill:none;stroke:#4D4D4D;stroke-width:2;stroke-miterlimit:10;}
</style>
<g id="Capa_2" class="st0">
	<path class="st1" d="M808.7,279.1c352.9,360.2-448,471.5-414.5,271.7c32-190.6-331.9,6.5-331.9-153.6S265.8,254.8,199,130.4
		C107.6-39.9,641.1,108.1,808.7,279.1z"/>
	<path class="st2" d="M286.7,1055c-490.2-118.5-59.5-716.6,17.9-529.4c73.9,178.7,339.7-194.3,424.5-58.6s-51.4,260,71.2,330.1
		C968.1,893.1,519.5,1111.2,286.7,1055z"/>
	<path class="st3" d="M1333.5,956c-160.7,478-313.7-38.4-480.2-153.9c-84.7-58.7-64.7-249.7,77.9-322.3s80.7-84.3,161.2-200.3
		C1202.7,120.6,1409.8,729,1333.5,956z"/>
</g>
<g id="Capa_1">
	<g id="Capa_1_00000156545952658547053110000008260072276877145510_" class="st0">
		
			<image style="display:inline;overflow:visible;enable-background:new    ;" width="288" height="192" xlink:href="B387F8FD.jpeg"  transform="matrix(4.098 0 0 4.1446 110.3914 -24.2178)">
		</image>
		<path class="st4" d="M472.4,658.4l-14.1-16.7l7.1-15.4v-9l13.5-24.4h12.9v-19.3l18-6.4l14.1-25.7l14.1-12.9l11.6-20.6l10.3-21.9
			V472l-45-21.9l-5.8-10.3l-14.8-10.3l-23.1-14.1h-12.9l-12.6-5.7l-12.9,12.8c-2,2-5.8-2-8.5-1.5l-6.1,2.2c-6-0.3-6.1-5-6.4-11.1
			l1.3-9.5c0-0.9-2.3-2.9-3.2-2.9L402,400c-1.6,0-4.8,0.4-4.8-1.3l0.5-3.7l4.7-13.3c-3.2-2.7-1.2-6-3.3-3.7l-9.9,5.9l-0.8,4.4
			c-1.9,1.9-4.5,2.8-7.6,3.6l-7.8-2.2l-2.7-7.7c-1.7-4-0.2-9.8-1.3-14l4.4-12.4c3.9-1.2,6.3-2.8,8.9-2.5l10.1,0.9l6.8-4.5l11.7,1.3
			l6,13.4c2.2,3,6.9,2.1,7.9-1.5l0.4-4.9c0,0,0-9,3.9-10.3s7.7-9.3,7.7-9.3l7.7-10.4l10.3-15.1c0,0,7.7-7.7,12.9-7.7
			s12.9,3.9,16.7,0c2.4-2.4,5.7-8.1,7.9-12.1c1.5-2.7,1-6-1.2-8.1l-6.7-6.7l4.5-3.6c8-6.4,8.8-18.2,1.8-25.7l-6.3-6.7l-7.7-16.7
			l-9-9l-29.6-10.3H424l1.3,20.6l-3.9,10.3l3.9,15.4l-11.6-3.9l-9-7.7l-15.4-3.9l-6.4-7.7l3.9-11.6l10.3-11.6c0,0,2.6-6.4,6.4-7.7
			c3.9-1.3,11.6-5.1,11.6-5.1l6.4-7.7l-2.6-12.9h-11.6l-2.6,11.6H397l-2.6-11.6H388v-7.7l1.3-10.3l3.9-7.7H385h-10.3v9v7.7V175
			l-9,1.3l-10.3,2.6l-14.1,2.6l-18,5.1l-12.9-3.9l-16.7-7.7c0,0-15.4-3.9-19.3-3.9s-9,0-12.9,0s-11.6,1.3-11.6,1.3l-7.7,1.3
			l-12.9-2.6c0,0-32.8-6-36.6-6c-3.9,0-1.9-2.8-1.9-2.8l-10.3-0.2l-13.9,11.6l-6.2,0.6c-2.9,3.3-2.8,4.3,0.6,7l14.5,7.6l-4.1,3.9
			c2.5,1.5-4.1-4.6-6.9-3.6l-8.4,3.2v2.6c-2.8,0.5-0.5,2.7,1.9,4.3l8.2,1.5l6.6,0.2c2.7,1.2,0.7,7.6-2.3,8l-7.6,3.4
			c-3.3,0.5-4.5,4.6-2,6.9l5.3,4.7l14.2,3.6c3.4,2.6,3.1,7.8-0.5,10.1l-11.8,6l-4.3,2.8c-2.9,2.9-1.6,2.3,2.4,2.8l3-1.1l11.1-6.2
			l12.9-9c0,0,4.7-16.7,8.6-16.7s1.5,9.2,1.5,9.2l6.9-0.6l3.9-4.5l31.9,7.9l5.5,8.6l8.2,9l6.9,1.9l8.4,16.1l18.4,13.1l-1.1,4.3
			l-6.4-4.5l1.9,35.6l10.1,19.3l9.9,6.6l2.4,4.8l0.4,3.6l1.9,4.3l2.1,4.3c0,0,2.4,3.6,3,4.7s2.8,5.4,2.8,5.4s3.2,5.8,3.9,6.2
			c0.6,0.4,1.7,2.1,2.4,2.8c0.6,0.6,4.3,1.7,4.3,1.7s1.7,0.4,1.7-0.2s-0.2-4.5-0.9-4.9c-0.6-0.4-2.8-3.2-2.8-3.9s-2.6-5.4-2.6-5.4
			l-3.2-4.3l-2.4-6.2l-1.5-3.2l0.4-1.9l2.6-0.2l2.4,2.8l1.7,3.2l2.8,3.9c0,0,1.9,3.2,2.6,4.1s3,4.3,3.6,5.1s4.5,5.1,4.5,5.1
			s0.9,3,1.5,3.9s1.7,4.1,2.8,4.7c1.1,0.6,2.6,2.4,4.3,4.1c1.7,1.7,4.7,6.4,5.1,7.1c0.4,0.6,2.1,2.6,2.1,2.6l2.8,3.2
			c0,0,4.1,1.7,6.4,2.4c2.4,0.6,3.6,0.4,4.3,1.1s6.9,3,7.5,3s3.4,0.2,4.5,0.9c1.1,0.6,4.9,2.1,6.2,2.6c1.3,0.4,3,0.4,3.9,1.1
			s2.6,1.3,3.4,1.5s3.6,1.1,3.6,1.1s1.1,0,1.5,0.6s1.9,1.7,2.4,3s0.6,3,0.6,3l0.2,2.6c0,0,0.2,0.6,0.2,1.3s1.7,1.5,1.7,1.5l4.1,1.3
			l1.9,1.5l1.3,1.9c0,0,3.2,1.1,3.9,1.7s2.8,1.5,2.8,1.5s1.5-2.5,2.1-2.5s0.4,1.3,2.8,0s0.6,1.4,1.3,0.5s1.7-1.3,2.8,0.2
			c1.1,1.5,3,2.6,3.2,3.6s0.6,3,0.6,3s-2.8,5.4-2.8,6.6c0,1.3,0.2,1.3-0.6,2.6s-1.9,3-2.4,3.9s-0.9,2.6-1.5,3.6s-0.9,2.4-1.3,3.2
			c-0.4,0.9-3,5.1-3,5.1l0.6,5.1l-0.9,3.4l-1.9,3c0,0,1.9,4.3,2.6,5.4c0.6,1.1,1.7,3.4,1.9,4.1c0.2,0.6,3,4.7,3,4.7l1.5,2.6
			c0,0,2.6,9.2,3.2,9.9c0.6,0.6,1.7,4.1,3,4.9s2.1,1.3,3.6,2.6s4.9,2.6,5.6,3s3.4,3.6,3.4,3.6l1.1,1.7l1.9,1.9l1.5,2.4l1.1,1.9
			l0.2,1.3l0.4,9.2l-0.9,10.3c0,0-1.3,3.9-1.7,5.6c-0.4,1.7-0.9,4.7-2.1,6c-1.3,1.3-2.6,10.7-2.6,10.7l-1.7,10.7c0,0,0.9,5.6,0,7.7
			s-2.1,7.7-2.1,7.7l-1.3,8.1l0.4,9.9l-0.4,9l-1.3,9.4c0,0,0.9,7.3,1.3,8.6s0.9,5.6,1.7,7.7c0.9,2.1,5.1,7.7,6.9,9
			c1.7,1.3,5.1,4.7,5.1,4.7s5.6,3.9,6.9,3.9s5.1,0,5.1,0L472.4,658.4L472.4,658.4z"/>
		<path class="st5" d="M443.3,190.9c-1.3,1.3-7.3,7.3-7.3,7.3h-6.4l-1.7,3c0,0,5.1-0.9,7.7,0s12.4,4.7,12.4,4.7l11.6,3.4h8.1v-5.1
			l-3.9-4.1c0,0-3-4.1-3.4-5.4s0.4-5.6,0.4-5.6l6.9,6.9l3.4,3.2c0,0,3.4-4.9,4.7-6.2s2.6-3.9,2.6-3.9l-9.4-5.6l-5.1-2.6l-1.3-5.1
			c0-3.4-0.4-6-1.7-6.9s-5.1-1.7-7.7-3s-6-3-6-3l-6.9-3.4l-5.6-5.6c0,0-4.7-3.9-6.9-4.7c-2.1-0.9-12.9-2.6-12.9-2.6s-3-0.9-6.9,0
			s-8.6,0.9-9.9,2.1c-1.3,1.3-3.9,5.1-3.9,5.1v5.6l4.3,0.4c0,0,2.1,5.1,0.9,5.1c-1.3,0-5.1,1.3-5.1,1.3l3.9,3.9h7.7
			c0,0,7.3-3.4,8.6-3.4c1.3,0,7.7-2.1,9.9-1.3c2.1,0.9,9,7.3,12,8.6s4.7,3.7,4.7,3.7l5.1,7.1L443.3,190.9z"/>
		<path class="st5" d="M535.9,222.6c0-1.3,4.3-16.7,4.3-16.7l3-6l6.4-6h6.4h3.9c0,0,3-5.6,4.7-7.7s6.4-8.3,6.4-8.3s14.6,0.7,16.7,0
			s8.6-5.8,8.6-5.8h-7.7l-1.7-3.4l6-5.6c0,0,1.3,2.6,3.4,3s3.4-3,3.4-3l-4.3-5.1l-6.9-5.1c0,0-0.4,1.7,2.1,0s7.3-0.9,9,0
			s1.7,0.9,1.7,0.9l2.1-6.9l-3.9-0.4l-1.7-3.5c0,0,2.6,1.3,3.9,0s3.9,0,3.9,0v-4.7v-3.4l-3.4-3l0.4-5.1c0,0,3,0.4,4.7,0
			s1.7-0.4,1.7-0.4l-3-3.4c0,0,0.4-3-0.9-3s-3,0-3,0s4.7-4.3,6.9-6.4c2.1-2.1,6.9-10.7,6.9-10.7l11.1-8.6c0,0-8.6-3.9-10.3-3.4
			c-1.7,0.4-16.3,6.4-17.6,6.9s-7.3,0.9-7.3,0.9s9-7.8,5.6-7.8s-16.1,2.2-16.1,2.2l-14.4-2.2c0,0,14.1-4.7,14.4-4.7s14.4,0,14.4,0
			s-1.3-5.1-2.6-5.1s-11.1-2.6-14.1-3s-15.9-3-17.6-3s-12,0-12,0l-4.7,6c0,0-9-0.9-9-1.3s-10.3,0-10.3,0l5.1,6.9l-9.4,1.7l-15-3
			l-5.1,1.3l-22.7,3.4v6l-10.7,5.1l-6.9,1.3l7.7,5.1c0,0-6,1.7-7.7,2.1s-12.4,3-12.4,3v4.7l8.6,3.9l14.6,2.1l-19.7,0.9l11.6,6.4
			c0,0,9,4.3,12.4,4.7s3.9-2.6,11.1,1.3s10.7,7.7,10.7,7.7l1.3,10.3l-1.7,5.1l-2.6,3.9c0,0,1.3,0.4,3,1.3s6-1.3,6-1.3
			s-0.4-3,2.1-2.1s4.7,2.1,5.6,3.4s0.4-1.3,0.9,1.3c0.4,2.6-6.4,3.9-8.1,3.9s-5.1,0.4-5.1,0.4s-2.1,1.3-0.4,2.6s3.9,2.6,3.9,2.6
			s0,4.3,1.3,2.4s0.4-1.5,3.4-2.4s5.1-1.3,5.1-1.3l1.7,3.7h-3c0,0-2.6,2.8-3.9,4.5s-3,5.1-3,5.1v3c0,0,2.1,3.9,2.6,5.1
			c0.4,1.3,2.1,4.7,2.1,4.7l0.4,3.9c0,0,0,0,2.6-0.4s2.6-0.4,2.6-0.4L514,208l-2.6,1.7c0,0-1.7,1.7,0.4,3.4c2.1,1.7,4.7,3.4,4.7,3.4
			s-0.9,1.7,1.7,2.1s-0.4-1.7,2.6,0.4s4.7,3.9,4.7,3.9h3c0,0-0.4,3.9,2.1,2.1c2.6-1.7,2.6-1.7,2.6-1.7L535.9,222.6z"/>
		<path class="st5" d="M616,206.7c1.7-1.7-1.7-1.3,1.7-1.7s5.1,0.9,6.4,0s1.3-0.9,1.3-0.9l1.7-2.1l-2.6-6l-2.6-2.6h-3H615h-4.3
			l-2.1,1.7l-2.6,2.6l-3-2.6l-2.6-1.7H598v3v4h3.4c0,0,3,2.4,1.3,3.3s-1.7,0.9-1.7,0.9s0.9,6.7,1.3,2.9c0.4-3.8,2.6-1.6,2.6-1.6h2.1
			C607,205.9,614.3,208.4,616,206.7z"/>
		<path class="st5" d="M421.4,142c0,0,1.7-1.3,1.7-2.6s3-2.6-0.9-3.4s-9-2.6-10.3-2.1s1.7,2.1-4.7,1.7c-6.4-0.4-11.1-1.8-11.1-1.8
			c-3,1.4-3.9,2.1-5.1,0s-3.4-5.5-3.4-5.5h-4.7h-5.1c0,0-1.3,3,0,3.9s3,3,3,3l2.6,2.6c4.7,2.1,6,2.6,7.3,2.6s2.6-0.4,3.9,0
			s2.1,3,3.4,1.7s-0.9-0.9,1.3-1.3c2.1-0.4,3-0.4,4.7-0.4s1.7,0,1.7,0l2.1,2.1h2.6c3-0.8,5.1,0,5.1,0h3.9L421.4,142z"/>
		<path class="st5" d="M470.3,83.7c-2.1-0.4-3,1.3-4.3,0s-3.9-2.6-6-3s-2.6,1.7-6.9,0s-3.9-2.1-8.1-2.1s-6.9-0.9-8.6,0
			s-0.4,2.2-5.1,2.6s-3.8-1.7-7,0s-2.4,2.6-5.8,3s-1.7,1.7-6,2.5c-4.3,0.9-4.7-0.4-6.4,0s-3,0.2-7.7,0.3c-4.7,0.1-4.7,0.1-4.7,0.1
			l-3,3c1.3,2.1,3.9,2.6,5.6,3.4c1.7,0.9,4.6,2.6,4.6,2.6v3c0,0,0.2,2.1-2.4,2.1s-0.9,1.3-3.9,0s-3.9-2.6-3.9-2.6s-1.7-1.3-3-1.7
			c-1.3-0.4-1.3-0.4-1.3-0.4l-2.6-1.7c0,0-2.6-1.3-4.3-0.9c-1.7,0.4-0.3,1.3-2.3,2.6s-3.3,5.3-3.3,5.3H370l3,5
			c6.4,1.7,6.4,1.7,6.4,1.7s0.9,0.4,2.1,0c1.3-0.4,3,0.2,3,0.2v3.7c0,0-3.9,1.3-1.3,3s0.4,2.1,2.6,1.7s2.1-0.4,2.1-0.4l1.7,0.6
			c3.9-0.2,3.9-0.2,3.9-0.2l0,0l3.9-2.6c4.7,1.7,5.1-0.1,6.9,2.7c1.7,2.8,1.7,2.8,1.7,2.8h-5.3l-3.7,4.7l-2.6,3.4c0,0,1.7,0,3,0
			s-3,0.4,1.3,0c4.3-0.4,9.9,0.2,9.9,0.2c3,0.2,3.4-0.2,6,0s5.1,0.1,5.1,0.1c3.9,1.9,0.9,2.3,3.9,1.9s3-0.4,3-0.4s1.7,0,1.7-1.7
			s0-1.7,0-1.7l0,0l-1.3-5.1c0,0-1.3-1.3,0.9-2.1c2.1-0.9,3-2.1,4.3-1.7s4.3,1.3,4.3,1.7s-1.7,2.1,0,0.4s2.1-1.3,2.6-3.4
			s0.4-3.9,0.4-3.9s-2.1-0.9-0.9-2.6c1.3-1.7-1.3-1.7,1.3-1.7c2.6,0,3.4,0.4,5.6-0.4s1.3-3.2,3-3.3s-1.3,2,1.7-0.1s3-2.1,3-2.1
			l3-1.3c0,0,1.7-1.7,3-3s-0.9,0,1.3-1.3c2.1-1.3,2.6-1.3,5.1-2.1c2.6-0.9,4.7-1.7,4.7-1.7c-0.9-2.1-3-2.6-3-2.6
			c6.9-0.4,6.9-0.4,6.9-0.4h4.3c0.9-3.4,0.9-3.4,0.9-3.4S472.4,84.1,470.3,83.7z"/>
		<path class="st5" d="M357.5,166.9c-0.8,0-2.5,0-2.5,0c-3-2.6-3-2.6-3-2.6s-2.1-1.7-2.6-3.9c-0.4-2.1-0.4,0.9-0.4-2.1s0,0.4,0-3
			s0-3.4,0-5.4s2.1-1.5,0-1.9s-3.9-1.3-5.1,0s0.4-0.9-1.3,1.3c-1.7,2.1-1.7,2.1-1.7,2.1l-3.4,0.4c0,0-3-1.7-3,0.9s2.6,6.1,2.6,6.1
			s4.3,4.6,0.9,2.9c-3.4-1.7-5.1-3.4-6-4.7s3.9-3.4,0-3.4s-7.7,0-7.7,0s0.9,0-2.6,0s-6.9,0.4-6.9,0.4s-0.4-0.9-3.4-0.4
			s-1.3-2.1-3,0.4c-1.7,2.6-2.6,7.3-2.6,7.3s-0.9,1.3,2.1,2.1s3,0.9,3,0.9l-1.7,1.7c2.1,2.1,2.1,2.1,4.3,2.1c2.1,0-0.9,0.4,2.1,0
			s3-0.4,3-0.4s3,2.1,1.7,2.6c-1.3,0.4-3.9,0-3.9,0l-2.6,2.6c4.3,1.7,7.7,3,7.7,3s0.9,1.8,2.1,1.9c1.3,0.2-1.3,0.6,1.3,0.2
			s-0.4,2.1,2.6-0.4s4.9-4.3,4.9-4.3s-1.4-1.3,2.4-0.4c3.9,0.9,3.9,0.9,3.9,0.9l0,0c0,0,3,1.3,4.7,1.7s1.7,0.4,1.7,0.4s0.4,0,2.1,0
			s1.7,0,1.7,0s1.3-1.7,2.6-2.1c1.3-0.4,1.3-0.4,1.3-0.4l2.1-0.9h2.5C357.5,172.4,358.2,166.9,357.5,166.9z"/>
		<path class="st5" d="M360.1,147.3l-2.3,2.6c2.3,1.5,2.3,1.5,2.3,1.5s0.4,3,0,3.4s-2.3,0-2.3,0l-0.3,4.3l1.4,3.9
			c3.8-0.9,1.2-0.4,3.8-0.9c2.6-0.4,0,1.3,2.6-0.4s1.7,0.9,2.6-1.7s2.1-4.8,2.1-4.8v-2.9c-0.4-2.6-0.4-2.6-0.4-2.6l-1.3-3.4
			c-3.9-0.1-3.9-0.1-3.9-0.1L360.1,147.3z"/>
		<path class="st5" d="M367.4,128.3c0,0,0.4,1.6-1.7,2.3s0,0.3-2.1,0.7s-2.8,0.9-6.1,0c-3.3-0.9-6.3-3-6.3-3s0,2.7,0,3.5
			s1.3,3.3,2.6,3.5c1.3,0.2,3.2,2,3.8,2.4c0.5,0.4-1.2-1.3,1.8,0s0,1.7,3,1.3s0.9,1.7,3-0.4s0.4,0.4,2.1-2.1c1.7-2.6,3-3.6,2.6-5.9
			s-0.4-2.3-0.4-2.3H367.4L367.4,128.3z"/>
		<path class="st5" d="M360.6,120.1c-3-0.4-3-0.4-3-0.4l-2.1,0.6h-2.1l-2.1-0.6c0,0,0-1.7,0-3s0-1.3,0-1.3h-3.4h-2.1v-4.7
			c2.1,0,4.7-3,5.6-1.3s3.2,2.1,3.5,2.6s2.8,0.9,2.8,0.9l3.1,1.8h3.1C363.7,114.6,363.6,120.6,360.6,120.1z"/>
		<path class="st5" d="M374.7,114.6h-3c-3.9-0.9-3.9-0.9-3.9-0.9v3.4l2.1,3.2c3.4,0.2,3.4,0.2,3.4,0.2l1.3-0.2l2.4-3.2L374.7,114.6z
			"/>
		<path class="st5" d="M335.3,126.1c-1.3,0-3.6,0-3.6,0v4.4v3.3c-2.9,0.4-0.7,0.4-2.9,0.4s-2.1,1-4.3-0.4c-2.1-1.3-6.4-3.5-6.4-3.5
			c-4.3,0.1-6,0.2-6,0.2v4c0,0-1.3,1.8,0,2.2s4.7-0.9,6.9,0c2.1,0.9,4.4,2.7,4.4,2.7v2.8c2.9,1.4-0.1,2.6,2.9,1.4
			c3-1.3,0.4,0.9,3-1.3c2.6-2.1,2.6-2.1,2.6-2.1l3.4-3c2.1,1.3,2.1,2.8,4.3,2.2c2.1-0.5,0,0.8,2.1-0.5s2.1-1.3,2.1-1.3
			s1.3-4.2,0-3.8s-2.1,0.1-3.4,0s-1.3-0.1-1.3-0.1l-1.3-3.3l1.3-2.3L335.3,126.1z"/>
		<path class="st5" d="M307.9,146.3c0,0-0.2-2.8-2.3-2s0.5,1.6-2,0.8s2.1,2.6-2.6-0.9s-6.4-4.6-6.4-4.6l-3.4,3.4c0,0,2.1,2.9,0,4.4
			s-3.9,2.6-3.9,2.6l-2.6,4.7c0,0,4.3,5.8,6.4,5.8s-2.1,1.3,2.1,0c4.3-1.3,2.1,1.3,4.3-1.3c2.1-2.6,2.6-3,3.9-4.5s-0.9-0.2,1.3-1.5
			c2.1-1.3,2.1-1.3,2.1-1.3s2.6-1.5,3.9-1.6s1.3-0.1,1.3-0.1l1.6-0.2L307.9,146.3z"/>
		<path class="st5" d="M311.6,123.6v4.7c-3.3,0.9-3.3,0.9-3.3,0.9l0,0l-2.7-0.9l-2,2.3c-2.1,0.7,0,0.7-2.1,0.7s-1.7-0.4-5.1,0
			s-3.4,0.4-3.4,0.4s-1.7,2.6-1.7,0s-4.7,0,0-2.6s4.6-6.9,7-5.6s2.9-0.5,4.1-0.2c1.3,0.2-1.3,0.7,1.3,0.2c2.6-0.4-0.9-0.4,2.6-0.4
			s3.4,0,3.4,0l0,0L311.6,123.6z"/>
		<path class="st5" d="M332.1,117.7c-0.2,0-2.2-0.6-2.7,0s0.8,0.6-1.4,0.6s-3.6-1.1-4.1-0.4s-0.2,1-1.1,1.4
			c-0.9,0.5-0.6,0.6-1.6,1.3c-1,0.7-1.4,1.1-1.4,1.4s-1.3,1.1,1.1,1.7s1.9,0.5,3.5,0.4s1.8,0.4,2.5,0.1c0.7-0.4-0.6-0.5,1.1-0.5
			s1.6,0.3,2.3-0.5c0.6-0.9,0.7-0.9,1-1.4s-0.7-0.7,0.5-0.9c1.1-0.2,0.7,0.2,1.1-0.2s0.7-0.5,0.7-1.1s0-1,0-1s0.7-0.7,0-0.7
			C332.9,117.8,332.1,117.7,332.1,117.7z"/>
		<path class="st5" d="M333.9,113c-0.1,0.2,0.7,1.5,0,1.6s0.6,0.4-2.5,0s-2.2-0.9-3.4-0.7s-1,0.5-2.4,0.9s-1.3,0.8-1.9,0.8
			c-0.6-0.1-1.1-0.5-1.5-1c-0.3-0.5-1.7-0.9-0.6-2.1s0.6-1.5,1.7-1.6s0.2,0.1,2.8,0s2.6,0.5,4.4,0s3.1-0.9,3.3-0.9s-0.6-1.3,0.2,0
			s0.9,2.5,0.7,2.5C334.6,112.6,333.9,113,333.9,113z"/>
		<path class="st4" d="M752.2,108.7c-3.1,0.6-2.6,1-6.2,1.4s-2.2,1-4.9,0.9s-1.8,0.6-4.9,0c-3.1-0.6-4.6-1.5-4.8-1s-3.8,0.1,0,2
			s-0.3,1,5.4,2.5s6,1.7,7.3,2.2s2.4,1,2.4,1.6s0.9,1.6-1.3,2.1s-1.9,1.4-5,2.2s-2.5,1.1-3.8,1.3s1,1.3-2.5,0s-2.9-0.3-4.2-1.9
			s-0.2-3.4-2.4-1.2c-2.1,2.2-1.2,4.2-2.5,4.9s-0.9,2.4-4.8,1.9s-3.9-0.1-7-1s-4.7-0.3-5.8-1.6c-1.1-1.3-1.3-1-1.7-2
			c-0.4-1.1-1.4-1.4-1.4-3.6s0.1-2.7,0-5s-1.4-1.9,0-5.1s-0.3-5,2.4-4.9s3.8,0,5,0.8s2.4,2,3.1,1.9s0.5,2,1.6-1.3s-0.9-3.1,1.1-3.3
			s2.4,0.6,3.5,1.7s3.5,3,4.2,3.1s0.6,1.3,1.7-0.1c1.1-1.4,1.1-1.2,2-3.1c1-1.9-1.6-2.6,2.2-3s6-0.3,8.6,0s4.2,0.3,6.4,0.3
			s2.6,0.1,4.8,0.1s2-0.6,3,0.2c1,0.9,1.2,0.8,1.2,1.4C755,103.8,755.3,108,752.2,108.7z"/>
		<path class="st4" d="M701.6,97.1"/>
		<path class="st5" d="M739.5,573.1h7.7c0,0,0-2.9,3.9-4.8s-1.9,3.9,3.9-1.9s1.9,0,5.8-5.8s-1-1,3.9-5.8c4.8-4.8,2.9,0,4.8-4.8
			s-1-1,1.9-4.8s2.9-3.9,2.9-3.9s4.8,6.8,4.8,0s-1,2.9,0-6.8s1-9.6,1-9.6V520c9.6-4.8,5.8-1.9,9.6-4.8c3.9-2.9,7.7-5.8,7.7-5.8
			s0-6.8,0-10.6s0,4.8,0-3.9s0-13.5,0-13.5s1.9-1,0-5.8s-1.9,1-1.9-4.8s-4.8,0,0-5.8s-1,1.9,4.8-5.8c5.8-7.7,0-1,5.8-7.7
			s1-1.9,5.8-6.8c4.8-4.8-1,1,4.8-4.8s1.9-1,5.8-5.8c3.9-4.8,2.9,0,3.9-4.8s1-4.8,1-4.8v-5.8c-5.8,0-10.6,0-10.6,0H812h-7.7l-1-4.8
			l-3.9-4.8l-2.9-5.5c-3.9-6.1-3.9-6.1-3.9-6.1l-4.8-4.8l-4.3-3.9V383c-3.4-5.8-7.2-12.5-7.2-12.5l-4.8-12.5h12v12.5l11.1,14.5
			c0,0,1.9,5.8,4.8,10.6c2.9,4.8,3.5,6.8,3.5,8s1.7,5.1,1.7,5.1l4.3,1.7c0,0,5.1,0.9,6-0.9c0.9-1.7,0.9-1.7,0.9-1.7s1.7-4.7,3.4-4.3
			c1.7,0.4,2.6,1.3,4.7,0s-0.9-0.9,3.4-2.1c4.3-1.3,0.9,1.3,6.4-2.1c5.6-3.4,6.4-2.1,7.7-3.9c1.3-1.7-2.1,0,1.3-1.7s0.9,2.1,3.4-1.7
			c2.6-3.9,0.9-2.1,2.6-3.9c1.7-1.7,0.9,0.9,1.7-1.7c0.9-2.6-1.3-3.4,0-5.1s0.4-3.9,0.2-4.7c-0.2-0.9-1.1-3-2.3-3.4
			c-1.3-0.4-5.1-2.1-5.1-2.1s-1.7-0.4-3,0.4s3,1.7-1.3,0.9c-4.3-0.9-0.9,0-4.3-0.9s-3.4-0.9-3.4-0.9s0.9,1.3-0.9-2.1
			c-1.7-3.4-1.7-3.4-1.7-3.4l-1.7-2.6c0,0-1.3,0.4-2.6,0s-1.7,0-2.6-2.1s-0.9-2.1-0.9-2.1s-0.4-1.7-0.4-3.4s-2.1-1.3,0-1.7
			c2.1-0.4,5.1,0,5.1,0s1.7-3,2.6-0.2s2.1,6.2,2.1,6.2l1.7,2.6c0,0,2.1,0.9,3.4,0.9s-0.9,0.4,1.3,0c2.1-0.4-3.9-1.7,2.1-0.4
			c6,1.3,8.1,2.1,8.1,2.1l7.7,4.3c3.9,0.4,1.3,0.4,3.9,0.4s5.1,0,5.1,0s-1.7,0,2.1,0.4c3.9,0.4,3.9,0.4,3.9,0.4s0,0,3.4,0
			s5.1,0.9,5.1,0.9l5.1,2.6l2.6,4.3l-3,2.6c0,0-2.1,2.6,0.4,3s4.3,0.4,4.3,0.4s0.9,0.4,2.6-0.4s1.7-0.9,1.7-0.9s-2.6,2.1,0,4.7
			s2.1,3,3.9,6.4c1.7,3.4,3.4,10.3,3.4,10.3s-0.4,0.4,0,2.6s1.7,5.1,1.7,5.1s0.9,2.6,1.7,3.9c0.9,1.3,2.1,5.1,2.1,5.1v5.6l2.1,0.4
			c0,0,0.9,4.3,2.1,3.4c1.3-0.9-1.3,3.9,1.3-0.9c2.6-4.7,0,2.1,2.6-4.7c2.6-6.9,0.9-0.4,2.6-6.9s0.9-3.4,1.7-6.4
			c0.9-3,0.4-3,1.7-5.1s1.3-2.1,2.1-3.9c0.9-1.7-1.7,0,0.9-1.7s-0.4-0.9,2.6-1.7s0.4,2.1,3-0.9s2.1,0,2.6-3s0.4-3,0.4-3l1.7-3
			c5.6,0.4,5.6,0.4,5.6,0.4s1.7-1.3,2.6-3s1.3-2.1,2.6-3s-1.7,0,1.3-0.9s-0.4,0,3-0.9s-0.4-0.4,3.4-0.9s3-3.9,3.9-0.4
			s5.1,10.7,5.1,10.7v4.3v3l3,3.4l3.9-1.3c0,0,0.9-3.9,2.6-0.4s1.7,6.4,1.7,6.4s-0.4,2.1,0,4.3c0.4,2.1-1.7,2.6,0,3.9
			s0.1,6.4,0.1,6.4s-0.7,1.3,0.7,3s3.5,5.1,3.5,5.1v4.7c0,0,2.1,3,2.6,4.3s0.4,1.3,0.4,1.3l2.6,3.9c0,0,1.3,1.3,2.1,3
			c0.9,1.7,2.1,3.9,2.1,3.9c2.6,0.4-0.4,2.1,2.6,0.4s2.1,0.9,3-1.7s0-3.9,0-5.1c0-1.3-0.4-1.3-1.7-3.4s-2.1-4.7-3.4-6.4
			s0.9,1.3-1.3-1.7c-2.1-3,0,0.9-2.1-3s-3-4.7-3.4-6s-0.9-0.4-0.4-3s0-3.9,1.7-5.1c1.7-1.3-2.6-0.9,1.7-1.3s6,3.4,6,3.4
			s2.9-0.9,3.4,3.4s0.5,4.3,0.5,4.3s1.3,2.1,2.6,2.1s-1.3,2.6,1.3,0s-0.4,1.7,2.6-2.6c3-4.3,1.7-4.7,3.9-6c2.1-1.3,0,0.9,2.1-1.3
			c2.1-2.1,1.3,0.9,2.1-2.1s2.1,1.7,0.9-3c-1.3-4.7-1.3-4.7-1.3-4.7l-2.6-5.1l-2.1-3.4c0,0,0-0.4-0.9-2.1s-0.9-1.7-0.9-1.7
			s-0.4-1.7-0.4-3.4c0-1.7,0.4-3.4,0.4-3.4c3-2.1-4.3-1.7,3-2.1s7.3-0.4,7.3-0.4s0,4.3,3.4,0.9s1.7-2.1,3.4-3.4s-2.6,0,1.7-1.3
			s2.6-0.4,4.3-1.3s0.9-0.4,3.4-1.3c2.6-0.9-2.1,1.7,2.6-0.9s4.7-2.6,4.7-2.6s1.7-0.9,2.6-2.1c0.9-1.3-0.9,0,2.1-4.3s3-4.3,3-4.3
			l2.6-3c0.9-3,0.9-3,0.9-3v-3.4c0-3,0.4-0.9,0-3s-0.5-3.9,0.2-3.9s2.4,4.3,0.7,0s-4.3-6.9-4.3-6.9s0-1.9-0.4-2.4s-0.4-0.6-0.4-0.6
			l-1.3-2.6v-3c3.4-2.6,3.4-2.6,3.4-2.6l3.7-1.7c0,0-1-0.5,0-1.8s3.3-1.7,0-2.6s-3.3-0.9-3.3-0.9s3.9-0.4,0,0s-3.9,0.4-3.9,0.4
			l-3.4-0.6v-6.2l6.9-3.4c0,0-1.3,0.4,2.1,0s3.4-0.4,3.4-0.4v5.1c3-1.7,4.3-6.9,5.6-5.1c1.3,1.7,0-0.9,1.3,1.7s-0.9,3.4,0,5.1
			s0.4,3.4,0.4,3.4c4.3,4.7,7.7,7.7,7.7,7.7v4.7c0,0,1.3,0,3-1.3s-1.3,0.9,1.7-1.3c3-2.1,1.7,0,3-2.1s3.4,1.3,1.3-2.1s-3-5.6-3-5.6
			l-1.3-3c0,0-3.9-0.4-2.1-2.6c1.7-2.1,2.1-5,3.4-5.1s-0.9,2.9,1.3-0.1c2.1-3-2-3,2.6-4.7s1.7,0,4.7-1.7s3-1.7,4.7-3s3-1.3,3.9-2.6
			c0.9-1.3,0.9-1.3,0.9-1.3s-0.9,1.7,2.1-2.1c3-3.9,3-3.9,3-3.9v-1.7l3.9-3.9c0,0,2.1-3.4,3.4-4.7c1.3-1.3,2.6-6,2.6-6
			s-1.3-1.3,0-4.3s2.1-4.7,2.1-6s0,0,0-3.4s-1.7-7.3-1.7-7.3s-5.1,1.3-6.9,0c-1.7-1.3,3,0.4-1.7-1.3s-4.7-1.7-4.7-1.7l-0.9-1.7
			c3-3.4,2.6-3.4,4.7-4.3s2.1-0.9,2.1-0.9s0.9-7.7,4.3-7.7s12-0.4,12-1.7s-5.6,0.9,0-1.3s5.1-3,10.7-4.3s-4.3-2.1,5.6-1.3
			c9.9,0.9,9,1.7,13.7,2.1s1.3,0,4.7,0.4c3.4,0.4,3.4,0.4,3.4,0.4l2.1-3.4c0,0,0.4-0.9,0-3.5s-5.2-3,0.2-4.3c5.4-1.3,5.8,1.7,7.1,0
			c1.3-1.7,3-2.4,3.4-0.3c0.4,2-3,2.9,0.4,2s2.1-2.8,4.7-3.3s3.4-2.3,5.1-2.7s1.7-0.4,1.7-0.4s0.9-0.4,0,2.6s-2.1,3.4-3.9,5.1
			c-1.7,1.7-0.4,1.7-3.9,3.9c-3.4,2.1-4.3,3.4-6.4,5.1s-2.6,3.9-3.9,4.7s-0.9-1.3-3.4,2.6s-3.4,7.7-3.4,7.7s-0.4,1.7-0.4,4.7
			s0.4,8.1,0.4,9.4s1.3,5.6,1.3,5.6s-0.9,1.3,3,0s0.4,2.1,3.9-1.3c3.4-3.4,3-3.4,4.3-5.6s-1.7,0.9,1.3-2.1s-0.9,2.6,3-3
			s4.7-6,5.1-8.1s1.3-5.1,1.3-5.1s-0.4-1.3-0.4-3.4s0-2.1,0-2.1l2.5-5.1l1.8-1.7c0,0,2.1-1.7,3.4-1.7s3.4,0,3.4,0l3.4,0.4
			c2.6,1.7-2.1,4.3,2.6,1.7s2.1-0.4,4.7-2.6c2.6-2.1-4.7-1.7,2.6-2.1c7.3-0.4,3.4,2.6,7.3-0.4s6.9-5.6,6.9-5.6s0.4-0.4,2.6-1.3
			c2.1-0.9,6-2.2,6-2.2c3-2.1,3.9-6,3.9-6s0.9-3-2.1-3s-6,0-6,0s-3.4-2.6-1.3-3s5.6-2.1,7.7-2.6c2.1-0.4,2.6-1.3,3.9-3
			s-1.3,0,1.3-1.7c2.6-1.7,8.1,5.1,8.1,5.1c3,1.3-0.9,1.7,3,1.3s3-0.4,5.6-1.7s-1.3,0,2.6-1.3s1.3,3.9,3.9-1.3
			c2.6-5.1,5.6-9.9,3.9-10.3s-3-0.4-4.7,0s-4.3,3-5.6,3s-2.6,0.4-3.4-0.9c-0.9-1.3,1.7,2.4-2.6-2.5s-3.4-6.1-7.3-7.4
			c-3.9-1.3-3.9-2.6-7.7-3.4s1.7,0-7.7-2.6c-9.4-2.6-9.4-2.6-9.4-2.6h-6.8c-1.3,4.3,1.3,6.4-0.4,6.9c-1.7,0.4-1.7,0.4-5.6,0.4
			s-3.9,0-3.9,0s-0.9-1.7,0.4-3s2.6-4.3,2.6-4.3c-7.3,2.1-8.1,2.6-12.4,3s-4.7,0-6.4,0c-1.7,0-1.7,0-1.7,0s1.7-0.9-2.6-0.9
			s-4.3,0-4.3,0s-0.4,0-1.3-2.1s3-0.4-0.9-2.1s-4.7,2.1-8.1,0s-4.7-2.6-6.9-2.6s2.1,1.7-5.1,0c-7.3-1.7-8.6-3.9-8.6-3.9
			s0.9-1.7,1.7-3c0.9-1.3,4.7-0.9,0.9-1.3s-3.9,1.3-9.4,0c-5.6-1.3-3.9,1.6-7.3-0.1c-3.4-1.6,1.7-0.8-3.4-1.6c-5.1-0.9-8.1,0-8.1,0
			s3.4-5.1-2.1-0.4c-5.6,4.7-5.6,4.7-5.6,4.7s3.4,1.7-3,1.7s-4.3-0.9-8.6-0.4c-4.3,0.4-6.9,0-6.9,0c-3.4,0.4-3,1.3-6,2.1
			s-0.4,0.4-3,0.9c-2.6,0.4-1.3,4.3-2.6,0.4c-1.3-3.9-1.7-2.6-1.7-5.6s-0.4-5.8-0.4-5.8s12-0.6-0.4-1.9s-9-1.3-12.4-1.3
			s-5.6,0-5.6,0s-0.4,2.1-3,2.1s-2.6,0.4-5.1,0.4c-2.6,0-2.6,0-2.6,0l-3.9-2.6c-2.6-1.7,0.4-1.7-2.6-1.7s-2.1,0-5.6,0
			c-3.4,0-0.9-1.3-6,0s-1.3,1.3-5.1,1.3s-3.9-2.9-6-1.9s-0.9,0.6-3.9,2.3s-0.4,0.9-3,1.7c-2.6,0.9-7.1,2.6-5.5,0s6.3-4.3,10.2-6
			s1.7,0.4,6.4-2.6s3-0.4,4.7-3s1.7-0.4,1.7-2.6c0-2.1,0.4-2.1-2.6-3.4s11.1,4.3-3-1.3s-11.6-4.7-14.1-5.6s-6.4-1.7-6.4-1.7
			c-2.1,0,4.7,0-2.1,0c-6.9,0-9-0.9-11.1,0c-2.1,0.9-3.9,1.7-5.1,3c-1.3,1.3,2.1-1.7-1.3,1.3s2.6-1.3-3.4,3s-3.4,4.7-6,4.3
			s-2.6-1.3-4.7-1.3s-3.9,0-5.1,0s1.7-2.1-4.7-0.9c-6.4,1.3-6,2.1-8.6,3.9s-2.6,0.9-4.3,3.9s-0.9,5.1-2.1,5.1c-1.3,0,5.1,0-1.3,0
			s-8.1-1.3-8.1-1.3s-1.7,0.4-2.1,1.7c-0.4,1.3,0.4,9,4.7,12s5.1,3,6,4.3s3.9,0.9,2.1,3.4c-1.7,2.6-1.3,4.3-3.4,4.3s5.6,3.4-2.1,0
			s-6.4,0.9-7.7-3.4c-1.3-4.3-0.4-0.9-1.7-6.4c-1.3-5.6-1.3-5.6-1.3-5.6s-0.9-1.3-4.7-0.4c-3.9,0.9-3.9,0.9-3.9,0.9l-1.3,6l-2.6,0.4
			c0,0-1.3,2.1-2.6-1.3c-1.3-3.4-2.1-6-2.1-7.3s0-1.3,0-1.3s-2.1,1.3-2.6,3.4s-0.9,4.7-0.9,4.7s-2.6-2.1,0,2.6s-1.7,1.7,2.6,4.7
			s3,3.4,6.4,4.3s3.4,0.9,3.4,0.9l1.3,3.4c-3.9,2.6-0.4,3.4-3.9,2.6c-3.4-0.9-1.3,1.7-3.4-0.9s-2.6-6-3.9-4.7s-0.9,3.4-1.7,5.6
			c-0.9,2.1-1.3,4.3-1.3,4.3l-1.7,3c-3.9,3-5.6,3.4-6.9,3.9c-1.3,0.4,0.4,0.4-1.3,0.4s-0.4,3-1.7,0s-1.7-2.6,1.3-6.4
			c3-3.9,0.9,0.4,3-3.9s1.7-0.9,2.1-4.3s0.4-4.3,0.4-5.6s0,1.7,0-3.4s1.3-1.7,0-7.3s-1.3-5.6-1.3-5.6s3.4-3-0.4-2.6s-4.3,1.7-6,2.6
			s-1.7,0.9-1.7,0.9s1.3,1.7-3,3s-5.1-2.6-4.7,4.3s1.3,9,2.1,10.7c0.9,1.7,0.9-1.7,0.9,1.7s-1.3,5.1-2.6,5.1s2.1,3.9-1.3,0
			s-4.3-5.1-6.9-6s-2.6-1.3-5.1-3s5.1,2.1-2.6-1.7c-7.7-3.9-7.7-3.9-7.7-3.9s-1.3-5.1,0,0s1.3,5.1,1.3,5.1s3.9,2.6,2.1,4.7
			c-1.7,2.1,1.3,0.9-1.7,2.1c-3,1.3-5.6-1.7-5.6-1.7c-3,0,0.4-3-3,0s0.4,3-3.4,3s-6.4,2.6-6.4,2.6c-3.4-3-1.3-4.3-4.3-5.1
			s-5.6-3.4-7.7-0.4s1.7,4.7-4.3,5.6s-7.7,0-8.1,1.3s-0.9,2.6-0.4,1.3c0.4-1.3,3,0,0-3.9s-3-5.1-5.6-4.7s-4.3-4.7-3,2.6
			s4.3,3.4,1.3,7.3s1.7,2.1-3,3.9c-4.7,1.7-6,3.4-6.9,5.1s3.4,3.2-1.7,3.3c-5.1,0.1-5.1-0.1-8.6,0s-0.4,1-3.4,0.1s-5.6,0.4-6.4-6
			s-0.9-6.4-0.9-6.4s8.6,5.6,9.9,4.7s-4.3,3,3.4,0s4.3-1.7,7.7-3s3.4-1.3,3.4-1.3s7.7,1.7,0.4-2.1c-7.3-3.9-4.7-3.4-7.3-3.9
			s9.4,5.1-2.6-0.4s-9.4-4.7-12-5.6s0.4-0.9-5.1-2.1c-5.6-1.3-2.6,1.7-5.6-1.3s-3-3-3-3s-2.3-3-4.6-3s0.3,0.4-2.3,0s-2.1-8.1-6-3
			s-3.9,5.1-3.9,5.1l-5.1,2.1c0,0,2.4,0-2,0.4s-5.1,0.4-6.5,0.4c-1.3,0-1.3,0-1.3,0s-0.9,1.3-2.1,2.1c-1.3,0.9-2.1,1.3-3.9,2.6
			c-1.7,1.3-4.3,2.6-4.3,2.6s-1.7,0.9-2.6,2.1c-0.9,1.3,1.3-2.6-0.9,1.3s-0.4,1.7-2.1,3.9c-1.7,2.1-1.7,2.1-1.7,2.1s3,2.1,0,3.9
			c-3,1.7-0.9-0.9-3,1.7s0.9-1.3-2.1,2.6s-3,3.9-3,3.9s0,2.1-1.7,3s1.3-0.4-1.7,0.9s-3,1.3-3,1.3l-4.7,1.9c-1.7,2.4-1.7,2.4-1.7,2.4
			l-3.4,3.9c0,0,0,3.4,0,4.7s-0.9,3.9,0,5.6s-0.9-1.3,0.9,1.7s1.7,3,1.7,3l2.1,2.6l3.4-0.4c3.9-0.9,1.3,2.1,3.9-0.9s0-2.6,2.6-4.3
			c2.5-1.7-0.9-1.3,2.5-1.7s3.4-0.4,3.4-0.4l1.7,0.4l1.7,3c0,0-0.9,0.4-1.7,2.1c-0.9,1.7-0.9,2.1-1.3,4.3s-0.4,5.1-0.4,5.1
			s0.9,2.1,2.6,2.1s-1.3,3,1.7,0s0,2.1,3-3s2.6-5.1,3.9-6.9c1.3-1.7-3.9,0.9,1.3-1.7c5.1-2.6,5.1-2.6,5.1-2.6l0.9,3l-1.7-5.6
			c0,0-2.6-0.4-2.6-3.9s-1.3-4.3,0-6s0-0.9,3.9-4.3s2.3-2.1,4.8-5.1s2.9-1.1,5.5-4.8s-0.9-1.6,2.6-3.7s4.3-9.4,5.6-3.9
			c1.3,5.6,4.7,3.6,1.3,7.6s-2.6,7.4-6,9.5s-4.3,3.9-5.1,5.6c-0.9,1.7-1.7,6.4-0.4,7.3c1.3,0.9,0.4,3,6,1.7s0.4,0.9,7.7,0
			s3.2-0.4,8.7,0s16.2-3.9,5.5,0.4c-10.7,4.3-5.6,5.1-13.3,6.4c-7.7,1.3-7.7,1.3-7.7,1.3s-2.6,1.7-0.9,2.6s5.1,3.9,5.1,6
			s3,3.4-2.6,3.4s-7.7,0-7.7,0s0,0.4-0.4,3s2.1,1.7-0.4,2.6s-3.4,2.6-6,2.6s1.7-0.4-2.6,0s2.1-0.4-4.3,0.4c-6.4,0.9-3.9,0.4-8.1,0.9
			c-4.3,0.4-1.3,0.4-6,0s-6.9-1.7-6.9-1.7c-1.3-4.7-1.3,1.3-1.3-4.7s2.1-7.3,0-6s-2.6,4.3-2.6,4.3s-0.4,1.3-0.4,2.6s0,4.7,0,4.7
			s1.3,2.6,0,2.6s1.7,0-1.3,0s-3,0-3,0L692,259c-2.1,2.1-3.6,2.6-5,3.9s1.6-0.9-1.4,1.3s-3,2.6-5.1,3.9s1.3-0.9-2.1,1.3
			c-3.4,2.1-0.9,0.9-3.4,2.1c-2.6,1.3,0,0.4-2.6,1.3s-2.6,0.9-2.6,0.9s0,0.9-2.1,1.3s-3,0.9-3.9,2.1c-0.9,1.3-0.9,1.3-0.9,1.3v3.4
			l3,3l1.7,3c0,0,0.4,1.7,0.9,3s0,0.9,0.4,4.3s0.4,3.4,0.4,3.4s-0.9,0.9-3.4,2.6s1.7,1.7-2.6,1.7s-5.6,0.9-6.9,0s2.1-0.4-1.3-0.9
			s-0.9-1.3-3.4-0.4c-2.6,0.9-0.4,0-4.3,2.6s-4.7-3.9-3.9,2.6c0.9,6.4-0.3,9.4-0.3,9.4s-0.7,1.7,0,3.9s-2.3,0,0.7,2.1s0.9,0.9,3,2.1
			c2.1,1.3,1.7,5.3,4.3,3.9c2.6-1.3-5.1-0.9,2.6-1.3c7.7-0.4,4.7,5.1,12-1.3s6.4-3.4,7.3-6.4s0.4-3,1.3-5.6s-1.3-2.6,3-4.7
			s3-1.3,6-3.9s-3.9,0.4,3-2.6s6.9-2.6,9.4-3.4s0-0.9,2.6-0.9s6,2.6,6,2.6l3,3.4c0,0,3.9,1.3,6,3.4s2.1,2.1,2.1,2.1l3.9,3.9
			c0,0,1.3,1.7,0,2.6s-1.3,0.9-1.3,0.9s-3.9,2.6,0.4,2.6s3.4,2.6,4.3,0s1.3-3.9,1.3-5.1s-1.7,0.4,0-1.3s1.7-1.7,1.7-1.7
			s-1.7,0.4-3-3s1.3-1.3-1.3-3.4s-3.9-1.7-5.1-3c-1.3-1.3-2.6-2.6-3.9-4.3c-1.3-1.7,0,0.9-1.3-1.7s-1.3-4.7-1.3-4.7l5.6-0.4l9.9,8.1
			l2.1,5.6l3.4,4.3l2.2,3.4v2.6l3.4,6.4c3.9-0.9,3.9-0.9,3.9-0.9s0.9,0.4,1.7-1.3s-3,3,0.9-1.7s3.9-4.7,3.9-4.7l0,0
			c0,0-2.1,3.9,1.3,3s3.9-0.4,4.3,1.3c0.4,1.7,2.1,4.7,2.1,4.7l0.4,2.1l4,4.3c0,0,7.2,0.9,8.9,0s-5.6-2.6,1.7-0.9s7.3,1.7,7.3,1.7
			l1.7-0.8l1.3,3.4c0,0,0.9,0.4,0,3.4s-1.3,5.1-1.7,6.4s-2.6,4.3-2.6,4.3s0.4,0.9-2.6,1.3s-1.3,6.1-9,3.3s-11.1-3.7-13.3-3.7
			c-2.1,0-4.3-0.9-5.6-0.9s-2.6-0.4-3.9-0.9s-0.9-0.9-3.4-0.9s-6.4,2.6-6.4,2.6s-3.4,5.3-4.7,3.7s-0.9,3.7-3.9,0s-3.4-5-6-5
			s-9.4-1.3-9.4-1.3l-3-1.3c-1.3-4.7-2.2-0.4-1.3-4.7c0.9-4.3,0.5-3.4,1.3-6s0.8-2.6,0.8-2.6l-8.6-5.6c0,0,1.3,0.9-2.6,0.9
			s-3-0.9-9.9,0s-6.4-1.7-9.4,0.4s-3,2.1-3,2.1l-1.3,3.4c0,0,5.1,1.3-4.3,0.9c-9.4-0.4-9.4-0.4-9.4-0.4l-2.6,0.9l-0.9,2.6l-2.6,4
			h-2.1l-6.1,5.9l-2.9,5.9c0,0-2.1,4.4-3.4,5.3s-1.7,4.3-3,4.7c-1.3,0.4-3.9,0.4-4.7,2.6c-0.9,2.1-0.9,5.6-2.6,7.7
			c-1.7,2.1-2.1,5.6-3,7.7s1.3,5.6,0,6.9s0.9,4.3-0.2,6s1.5,3.9-0.2,6.4c-1.7,2.6-2.2,4.7-2.2,7.3c0,2.6-0.9,4.7,0,6.9
			c0.9,2.1,4.7,7.3,4.7,7.3s0.9,2.6,2.1,3.9c1.3,1.3,1.7,2.6,4.7,4.7s3,5.1,5.1,6s0.9,1.7,4.3,2.1c3.4,0.4-1.7,0.4,3.4,0.4
			s4.7,0.4,9,0.4s-6.4,0,4.3,0s3.9,0,10.7,0c6.9,0-3.9-0.9,6.9,0s8.4,1.7,11.3,2.6c2.9,0.9,4.6,1.7,6.7,3s2.1,1.3,2.1,1.3
			s0.4,3,0.9,4.7s0.9,4.3,1.3,5.6c0.4,1.3,1.7,5.1,1.7,5.1s1.7,1.7,3,5.1s0,4.7,1.7,6s2.5,2.6,3.4,4.3c0.9,1.7,1.7,3.4,1.7,3.4
			l3.4,4.7c0,0,0,4.7-0.4,7.3c-0.4,2.6,0.4,5.6-0.4,8.6s-0.9,6.9-0.9,8.1s0,3.9,0,7.3c0,3.4,1.3,10.7,1.7,12.9c0.4,2.1,1.7,6,3.4,9
			s3.9,7.7,4.3,9.4c0.4,1.7,2.1,5.6,2.1,5.6l2.1,6.4l1.3,5.6c0,0,0.4,2.6,0.9,3.9s1.3,3,2.1,4.3c0.9,1.3,0.9,3.4,4.3,3.9
			s3.4,0.4,3.4,0.4L739.5,573.1z"/>
		<path class="st5" d="M819.6,498.1l-2.1,1.7c0,0,1.3,1.7-2.6,2.6c-3.9,0.9-5.1,0.4-6.4,1.7s-2.1,3-3.4,3.4s-2.6,3.4-2.6,3.4
			s0.9,3.4,0,5.1s-1.7,7.7,0,9s1.7,8.1,1.7,8.1v3.9c0,0-1.7,1.3,2.1,0c3.9-1.3,4.7-0.9,6-2.1s0,0.9,1.3-1.3c1.3-2.1-0.9,3.9,1.3-2.1
			c2.1-6,0,0,2.1-6s0.9-3.3,2.6-7.6c1.7-4.4,3.4-8.6,3.4-8.6v-3.4v-2.6v-3L819.6,498.1z"/>
		<path class="st5" d="M644.7,248.3l-2.6,2.6c0,0-0.9,3.4-2.6,3.9c-1.7,0.4-1.7,0.4-1.7,0.4v6.9c0,0-2.6,4.3,0,3.4s-0.9,0.9,2.6-0.9
			c3.4-1.7,0.9,0.4,3.4-1.7c2.6-2.1,2.6-2.1,2.6-2.1s0.9,0,1.7-1.7c0.9-1.7-1.7-2.1,0-4.3c1.7-2.1,1.7-2.1,1.7-2.1V251l-3-2.6
			L644.7,248.3L644.7,248.3z"/>
		<path class="st5" d="M658,231.6l-4.3,3.9l-3.9,1.3v3v3.4c0,0,3.9,1.3,4.1,2.6c0.2,1.3,0,2.6,0,2.6v2.1h2.4l1.7,3c0,0,0,4-1.7,3.5
			s-2.4,2.9-2.4,2.9v2.6v3.1h1.9c0,0,5.6-0.1,2.1,2c-3.4,2.1-3.4,2.1-3.4,2.1s3.5-0.4,4.5,0s-1.5,1.3,1,0.4c2.6-0.9,0.4,0,2.6-0.9
			s-0.4-0.4,2.1-0.9s0,0.9,2.6-0.4s1.3,0.4,2.6-1.3c1.3-1.7,0,3,1.3-1.7s0-8.1,0-8.1c-2.1-1.3,1.3,1.2-2.1-1.3s-3.4-2.6-3.4-2.6
			s-0.9-0.5-1.3-2s-0.4-1.5-0.4-1.5s0.9,0-0.4-1.3s-1.3-1.3-1.3-1.3s-0.7-1.7-1.4-3.4s-0.7,1.3-0.7-1.7s0-3,0-3l0.7-2.6v-4.7
			L658,231.6L658,231.6z"/>
		<path class="st5" d="M1099,311.7c0,2.1-3.9,9-3.9,9s0.9,1.7-3.4,3s-5.6,3.5-7.7,3.9s-4.7,3.4-4.7,3.4s-3.4,3-5.6,3.4
			c-2.1,0.4-4.3,2-5.1,3.6s-1.3,3.3,0,4.6c1.3,1.3-2.6-0.9,3.9,0c6.4,0.9,0.4,3.4,6.4,0.9s9.4-4.4,12.4-5.4s3-0.1,5.6-3.1
			s0.4,1.3,2.6-3s0.9-0.9,2.1-4.3c1.3-3.4-2.6-4.3,0-6.4s3-2.1,3-4.3s0.9-5.1,0-5.1s-1.7,0-0.9,0c0.9,0-0.9-2.6,1.2-3.4
			s1.3-2.1,3.9-3.4s1.7,1.3,2.6-1.3c0.9-2.6,1.7-3,0-4.3s-2.1-1.7-3.9-3c-1.7-1.3,0.9-1.7-1.7-1.3s-4.7,3.9-4.7,3.9l-2.1,3l-0.9,4.3
			l0.4,3.4L1099,311.7z"/>
		<path class="st5" d="M1042,389.7c-1.3,1.3-5.6,5.6-5.6,5.6s-1.7,1.7-1.7,3.4c0,1.7,3.6,7.7,3.6,7.7s0.6,3,1.9,4.3s1.7,3,1.7,3v2.1
			c4.3,0.9,8.1,3.4,8.1,0s0.9,1.3,0-3.4c-0.9-4.7,4.2-1.3,0.4-6.4s-8.4-3.9-7.2-6.4c1.2-2.6,1.3-1.3,0-5.6S1042,389.7,1042,389.7z"
			/>
		<path class="st5" d="M1048.9,424.4c-3,0.4-5.9,0.4-5.5,1.7s0,4.3,0,4.3s4.4-0.9,4.3,0s-2,5.1,4.3,2.6s7.2,6.4,6.3-2.6
			c-0.9-9-0.9-9-0.9-9S1051.9,424,1048.9,424.4z"/>
		<path class="st5" d="M1030.9,436.4c3,1.3,3.4-1.7,3,1.3s3.4,3-0.4,3s-3.9,0-3.9,0s-3.9-1.3-1.3,2.6s2.6,6.4,2.6,6.4s3,3.9,0,5.6
			s-2.2,4.3-4.3,5.6s-4.3,4.7-4.3,4.7c-3.9,0.4-4.7,1.7-8.1,0s-5.1-1.3-6.4-2.6s3,2.1,0-3s-2.6-3.4-3-5.1s-3,1.7-0.4-1.7
			c2.6-3.4,3-3,4.3-4.3s-1.3,0,1.3-1.3s2.1-0.4,3.9-3.9c1.7-3.4,1.3-5.1,3.4-7.3c2.1-2.1,3,0.1,4.7-1.9
			C1023.6,432.6,1027.9,435.1,1030.9,436.4z"/>
		<path class="st5" d="M968.3,455.7c2.6,1.3,3,1.7,4.3,3.4s1.3,3,3.4,3.9s4.7,3.4,4.7,3.4s5.1,0.9,5.6,0s1.3,4.3,0.4-0.9
			c-0.9-5.1,1.7-5.8-2.1-8.5c-3.9-2.7-4.7-1.4-6-2.7s-1.8-4.3-2.6-4.3s1.3,3.4-0.8,0s-2.6-3.9-3-5.6s3.9-2.1-0.4-1.7
			S965.7,454.4,968.3,455.7z"/>
		<path class="st5" d="M1001.3,474.6c-5.1,0.9-5.1,0.9-5.1,0.9l-3,2.6c2.1,1.7-6.9,0.9,4.7,1.7c11.6,0.9,11.6,0.9,11.6,0.9h2.6
			c0,0-2.6,1.7,0,2.6s9,3,9,3s-0.9,1.7,0-2.1s0.9-4.7,0-6.4c-0.9-1.7-4.7-3.4-4.7-3.4S1006.4,473.7,1001.3,474.6z"/>
		<path class="st5" d="M1048,450.1h-4.7l-4.3,3l-3.8,2.1l-0.4,3.4v7.7v6c3-1.3,3.9-4.5,3.9-4.5c2.1-1,2.1-1,2.1-1s3,5.1,2.6,1
			s-0.4-4-0.4-4s-0.8-0.9,0.4-2.6c1.3-1.7-1.3-0.4,1.3-1.7c2.6-1.3,2.6-1.3,2.6-1.3s-2.1-0.8,0.9-3s3-2.1,3-2.1l0,0v-3H1048
			L1048,450.1z"/>
		<path class="st5" d="M1074.6,455.3c-1.7-0.4-3.9,0-3.9,0v3.4l1.9,2.6v3.4c0,0-3.6,2.1,0,3.2s3.6,1.1,3.6,1.1l2.1-1.1l9,4.5h2.7
			l2.9,4.7l-2.9,3.1c6.3-0.1,10.2,0,10.2,0c4.3,2,4.3,2,4.3,2s2.1,0.9,3.4,0s-3.4-0.9,1.3-0.9c4.7,0,5.6,2.9,7.7,5.1
			s-3.9,2.2,2.1,2.2s8.1,0,8.1,0c2.6,0.9,2.6,3.9,2.6,0.9s2.6-4.7,0-5.1s-6.4-4.1-6.4-4.1s0.9-1,3-1.9s0.9,1.7,2.1-0.9
			c1.3-2.6,0.1-1.9,2.4-4.6s2.7-5.1,2.7-5.1s0-0.2-2.1,0s-2.6,4.4-4.7,5.1s1.3,0.7-2.1,0.7s-5.6-0.7-5.6-0.7s-0.9-5.8-3.4-5.1
			c-2.6,0.7-5.1-1.5-5.1-1.5s-1.3-0.4-3.9-1.7c-2.6-1.3-1.7-4.3-4.5-3.4s-3.2,0-4.5,0s6.4,0-1.3,0c-7.7,0-7.7,0-7.7,0l-3.9,1.7
			c0,0-0.4,1.3-3.4,0s-3.9,0.4-4.7-1.7c-0.9-2.1-0.9-2.1-0.9-2.1L1074.6,455.3z"/>
		<path class="st5" d="M1078.9,493l-2.6-2.1h-2.1h-3.4v2.1v5.1h-3c0,0-1.7,1.7-2.1,3s-0.4,1.3-0.4,1.3l0,0c0,0-2.1-1.3-3.4,0
			s-1.3,1.3-1.3,1.3h-1.9c0,0-1.6-2.1-3.3-2.1c-1.7,0-4.3,0-4.3,0l-2.1,2.1c0,0,1.7,3,0,4.7s-3,4.3-3,4.3s-1.2-0.9-2.6,0
			c-1.4,0.9,3,0.9-1.3,0.9s-9.9,7.3-9.9,7.3s-6.4,4.7-8.6,4.7s-4.4,0-4.4,0s-1.6,2.6-2,3.9s-2.1,3.9-2.1,3.9s0,2.4,0,4.4
			s4.2,8.9,4.2,8.9s-0.6,2.6,0,3.9s0,8.6,0,8.6l2.5,3.4c0,0-0.6,0.9,0,3s0.6,2.1,0.6,2.1s-0.9,3-0.6,3c0.2,0-2.5,0-2.5,0v3.9
			c0,0,1.8-0.9,4.4,0s-0.4,0.9,2.6,0.9c3,0,1.3,0,5.6,0c4.3,0,4.3,0,4.3,0s-0.9,1.3,3.4,0s2.1-1.3,4.3-1.3c2.1,0,0.4,4.7,2.1,0
			s0,0,1.7-4.7s1.7-4.7,1.7-4.7s-0.6-0.9,2.7-0.9s3.9,0,6.6,0s2.3-0.4,5.3-0.4s6.4,0,6.9,0c0.4,0-4.7-1.7,0.4,0s6.9,3,6.9,3l1.3,3
			c3.4,1.7,3,1.7,5.1,1.7s3.9-2.1,3.9-2.1c0.9,4.7,0.9,7.2,0.9,7.2l4.2-1.5l0.5-0.2c0,0-2.6-0.4,0,3.9s3.4,7.3,3.4,7.3
			s1.7,3.4,3,4.3s-2.6,1.3,1.3,0.9s0.9,0.9,3.9-0.4s5.6-3.9,5.6-3.9c3,0,3,0,3,0l2.1,4.5c0,0,0-0.7,2.1,0s3,3.2,5.6,0
			s0.9-0.6,2.6-3.2s0,2.6,1.7-2.6s0-1.7,1.7-5.1s3-6,3.9-7.7s3.4-1.3,4.3-7.7s0.9-3.9,0.9-6.4s0-0.4,0-4.7s0,3,0-4.3s0.4-2.6,0-7.3
			s0.2-7.3,0.2-7.3s-1.9-1.3-5.3-3.4c-3.4-2.1-3.4-2.1-3.4-2.1l-0.9-3.9c0,0-0.4-1.3-1.7-2.1c-1.3-0.9-0.9-0.4-3.4-2.1
			c-2.6-1.7-3.4-3.3-4.7-2.9c-1.3,0.4,0,2.1-1.3,0.4s1.3,2.1-1.3-1.7c-2.6-3.9-1.7-1.3-2.6-3.9s-0.9,3.9-0.9-2.6s-3.9-8.1-3.9-8.1
			s-1.3,0-2.1-3.9s-1.3-4.7-2.1-7.3s1.3-6.9-0.9-2.6c-2.1,4.3,2.1-2.1-2.4,7.7s-4.9,11.6-4.9,11.6c-0.9,2.6-2.6,8.1-5.1,6.4
			s-1.3,1.3-2.6-1.7c-1.3-3-1.7-5.1-1.7-5.1l-1.3-3.4l-2.1-0.4c0,0,0.9-4.3,2.1-5.1c1.3-0.9,1.3-0.9,1.3-0.9s1.7-1.3,0.4-2.6
			c-1.3-1.3-3-1.7-3-1.7C1083.1,491.7,1078.9,493,1078.9,493z"/>
	</g>
	<g id="Capa_2_00000137119503312804301260000000558343879400085685_">
		<circle class="st6" cx="229.9" cy="222.1" r="74.7"/>
		<circle class="st7" cx="641.1" cy="529.7" r="74.7"/>
		<circle class="st8" cx="570.9" cy="279.4" r="42.5"/>
		<circle class="st9" cx="1204.3" cy="1017.6" r="74.7"/>
		<circle class="st10" cx="636" cy="941.6" r="35.5"/>
		<circle class="st8" cx="929.8" cy="250.8" r="40"/>
		<circle class="st10" cx="194.4" cy="686.8" r="35.5"/>
		<circle class="st10" cx="425.1" cy="793.2" r="35.5"/>
		<circle class="st10" cx="707" cy="810.4" r="35.5"/>
		<circle class="st11" cx="925.3" cy="651.2" r="35.5"/>
		<circle class="st12" cx="1302" cy="634.8" r="19"/>
		<circle class="st12" cx="1044.2" cy="693.1" r="19"/>
		<circle class="st12" cx="908.8" cy="774.9" r="19"/>
		<path class="st12" d="M963.6,525.6c0,10.5-9.5,19-20,19s-19-8.5-19-19s8.5-19,19-19S963.6,515.1,963.6,525.6z"/>
		<circle class="st8" cx="1152.6" cy="371.1" r="19"/>
		<circle class="st8" cx="547.4" cy="197.8" r="19"/>
		<circle class="st8" cx="479.6" cy="296.8" r="19"/>
		<line class="st10" x1="228.2" y1="675.9" x2="566.4" y2="546.6"/>
		<line class="st13" x1="286.7" y1="270.6" x2="585.6" y2="479.7"/>
		<line class="st8" x1="492.2" y1="311.1" x2="600.5" y2="467"/>
		<line class="st13" x1="940.1" y1="542.7" x2="925.3" y2="615.8"/>
		<line class="st13" x1="908.8" y1="755.9" x2="908.8" y2="682.7"/>
		<line class="st13" x1="1025.2" y1="686.8" x2="960.8" y2="662.3"/>
		<line class="st8" x1="560.8" y1="238.1" x2="555.1" y2="215.2"/>
		<line class="st8" x1="584" y1="319.8" x2="630.2" y2="455"/>
		<line class="st10" x1="436.2" y1="759.5" x2="600.5" y2="592.4"/>
		<line class="st10" x1="707" y1="774.9" x2="658.5" y2="602.4"/>
		<line class="st10" x1="636" y1="906.1" x2="623.8" y2="602.4"/>
		<line class="st8" x1="931.2" y1="292.1" x2="943.6" y2="507.6"/>
		<line class="st13" x1="1163.8" y1="954.8" x2="944.1" y2="676"/>
		<line class="st13" x1="896.9" y1="630" x2="711.2" y2="555.7"/>
		<line class="st13" x1="1154.1" y1="387.4" x2="1204.3" y2="942.9"/>
		<line class="st13" x1="1298" y1="653.8" x2="1236.7" y2="950.3"/>
	</g>
</g>
</svg>
