<?xml version="1.0" encoding="utf-8"?>
<!-- Generator: Adobe Illustrator 25.4.1, SVG Export Plug-In . SVG Version: 6.00 Build 0)  -->
<svg version="1.1" id="Capa_1" xmlns="http://www.w3.org/2000/svg" xmlns:xlink="http://www.w3.org/1999/xlink" x="0px" y="0px"
	 viewBox="0 0 1440 435.7" style="enable-background:new 0 0 1440 435.7;" xml:space="preserve">
<style type="text/css">
	.st0{fill:#0A94FF;}
	.st1{fill:#023535;}
</style>
<path class="st0" d="M1443.9,101.8l-60.3-13.9c-60.3-13.9-181-41.8-301.3-49.8c-120.3-7.6-240.3,3.9-360,31.3S483,138.3,362.7,130.7
	c-120.3-7.9-241.5-65.8-302.1-94.8L0,7l3.7,210l60.1-1c60.1-1,188.9,46.2,309,44.1s231.6-53.5,351.8-55.6s240.3-4.2,360.4-6.3
	c120.1-2.1,240.3-4.2,300.4-5.2l60.1-1L1443.9,101.8z"/>
<path class="st1" d="M-2,98l60.1-15c60.1-15,180.2-45,300.4-55c120.2-9.7,240.3-0.3,360.5,25s240.3,64.7,360.5,55
	c120.2-10,240.3-70,300.4-100l60.1-30v210h-60.1c-60.1,0-180.2,0-300.4,0s-240.3,0-360.5,0s-240.3,0-360.5,0s-240.3,0-300.4,0H-2V98
	z"/>
<path class="st1" d="M1440,208.9l-60.1,14.1c-60.1,14.1-180.4,42.4-300.6,51.9c-120.2,9.1-240.5,0.3-360.7-23.6
	s-240.5-61-360.7-51.9c-120.2,9.5-240.5,66-300.6,94.3L-3,322l0-198l60.1,0c60.1,0,180.4,0,300.6,0s240.5,0,360.7,0s240.5,0,360.7,0
	s240.5,0,300.6,0l60.1,0L1440,208.9z"/>
<path class="st1" d="M619.7,383.1c-11.7,12-28,19.4-46.1,19.4c-35.6,0-64.5-28.9-64.5-64.5s28.9-64.5,64.5-64.5s64.5,28.9,64.5,64.5
	C638.1,355.6,631.1,371.5,619.7,383.1"/>
<circle class="st1" cx="457.6" cy="293.5" r="20"/>
</svg>
