<?xml version="1.0" encoding="utf-8"?>
<!-- Generator: Adobe Illustrator 25.4.1, SVG Export Plug-In . SVG Version: 6.00 Build 0)  -->
<svg version="1.1" id="Capa_1" xmlns="http://www.w3.org/2000/svg" xmlns:xlink="http://www.w3.org/1999/xlink" x="0px" y="0px"
	 viewBox="0 0 1440 596.6" style="enable-background:new 0 0 1440 596.6;" xml:space="preserve">
<style type="text/css">
	.st0{fill:#0A94FF;}
</style>
<path class="st0" d="M1445.7,193.2l-60.1-12.7c-60.1-12.7-180.3-38.2-301-53.1c-120.7-14.7-246-3.5-367.8,0.6
	c-121.8,4.1-240.2,0.1-360.9-14.5C235.3,98.6,116,57,56.3,36.2L-3.3,15.4l-6.1,112.4c0,0,248.5,46.1,369.5,55.5
	c121,9.5,242.1,1.7,361.3-2.5c124.3-4.3,152-8.8,273,0.7c55,4.3,191,31.2,244.8,43.9c84.3,19.9,168.9,38.9,210.2,83.7v0
	L1445.7,193.2z"/>
<path class="st0" d="M-12.6,404.1l60.9-6.6c60.9-6.6,182.8-19.8,304.3-23.6c121.5-3.6,245.3,15.9,366.2,28.9
	c120.9,13,239.2,18.7,360.7,15.1c121.5-3.7,243.9-31.2,305.1-45l61.2-13.7l-3.7,99.6c0,0-251.5,21.4-372.8,20.4
	c-121.3-1-241.2-17.2-359.5-30.1c-123.4-13.4-150.6-19.5-271.9-20.5c-55.1-0.5-192.9,12.8-247.6,19.9
	c-85.7,11-171.5,21.3-216.6,57.6l0,0L-12.6,404.1z"/>
</svg>
