<?xml version="1.0" encoding="utf-8"?>
<!-- Generator: Adobe Illustrator 25.4.1, SVG Export Plug-In . SVG Version: 6.00 Build 0)  -->
<svg version="1.1" id="Capa_2" xmlns="http://www.w3.org/2000/svg" xmlns:xlink="http://www.w3.org/1999/xlink" x="0px" y="0px"
	 viewBox="0 0 1440 435.7" style="enable-background:new 0 0 1440 435.7;" xml:space="preserve">
<style type="text/css">
	.st0{fill:#FFFCD4;}
</style>
<path class="st0" d="M1440,255.3c-86,0-221-90-307-90C817.2,165.3,566.8,284,251,284c-78.2,0-172.8-28.7-251-28.7
	c0-19.1,0-38.2,0-57.3c78.9,0,160.1,32.7,239,32.7c316.1,0,595.9-122.6,912-122.6c85,0,204,90,289,90
	C1440,217.1,1440,236.2,1440,255.3z"/>
<path class="st0" d="M1440,352.8c-86,0-221-90-307-90c-315.8,0-566.2,118.7-882,118.7c-78.2,0-172.8-28.7-251-28.7
	c0-19.1,0-38.2,0-57.3c78.9,0,160.1,32.7,239,32.7c316.1,0,595.9-122.6,912-122.6c85,0,204,90,289,90
	C1440,314.6,1440,333.7,1440,352.8z"/>
</svg>
