<?xml version="1.0" encoding="utf-8"?>
<!-- Generator: Adobe Illustrator 25.4.1, SVG Export Plug-In . SVG Version: 6.00 Build 0)  -->
<svg version="1.1" id="Capa_1" xmlns="http://www.w3.org/2000/svg" xmlns:xlink="http://www.w3.org/1999/xlink" x="0px" y="0px"
	 viewBox="0 0 1366 768" style="enable-background:new 0 0 1366 768;" xml:space="preserve">
<style type="text/css">
	.st0{fill:#47D400;stroke:#4D4D4D;stroke-width:2;stroke-miterlimit:10;}
	.st1{fill:#FFEE15;stroke:#333333;stroke-width:2;stroke-miterlimit:10;}
	.st2{fill:#55FFD1;stroke:#333333;stroke-width:2;stroke-miterlimit:10;}
	.st3{fill:#FF715F;stroke:#333333;stroke-width:2;stroke-miterlimit:10;}
	.st4{fill:#5F88FF;stroke:#333333;stroke-width:2;stroke-miterlimit:10;}
	.st5{fill:#FF955F;stroke:#333333;stroke-width:2;stroke-miterlimit:10;}
	.st6{fill:#007AFF;stroke:#333333;stroke-width:2;stroke-miterlimit:10;}
	.st7{fill:#1550FF;stroke:#333333;stroke-width:2;stroke-miterlimit:10;}
	.st8{fill:#007DE9;stroke:#333333;stroke-width:2;stroke-miterlimit:10;}
	.st9{fill:#4A8CFF;stroke:#333333;stroke-width:2;stroke-miterlimit:10;}
	.st10{fill:#3FA0FF;stroke:#333333;stroke-width:2;stroke-miterlimit:10;}
	.st11{fill:#0071D4;stroke:#333333;stroke-width:2;stroke-miterlimit:10;}
	.st12{fill:#009EE9;stroke:#333333;stroke-width:2;stroke-miterlimit:10;}
	.st13{fill:#00BCDF;stroke:#333333;stroke-width:2;stroke-miterlimit:10;}
	.st14{fill:#4AABFF;stroke:#333333;stroke-width:2;stroke-miterlimit:10;}
	.st15{fill:#1F3FFF;stroke:#333333;stroke-width:2;stroke-miterlimit:10;}
	.st16{fill:#321FFF;stroke:#4D4D4D;stroke-width:2;stroke-miterlimit:10;}
	.st17{fill:#FFFFFF;stroke:#4D4D4D;stroke-width:2;stroke-miterlimit:10;}
	.st18{fill:#FF722A;stroke:#333333;stroke-width:2;stroke-miterlimit:10;}
	.st19{fill:#3590FF;stroke:#333333;stroke-width:2;stroke-miterlimit:10;}
	.st20{fill:#51FF35;stroke:#333333;stroke-width:2;stroke-miterlimit:10;}
	.st21{fill:#FFB03F;stroke:#333333;stroke-width:2;stroke-miterlimit:10;}
	.st22{fill:#EAFF5F;stroke:#333333;stroke-width:2;stroke-miterlimit:10;}
	.st23{fill:#BF0035;stroke:#333333;stroke-width:2;stroke-miterlimit:10;}
	.st24{fill:#FFB455;stroke:#333333;stroke-width:2;stroke-miterlimit:10;}
	.st25{fill:#FFA96A;stroke:#333333;stroke-width:2;stroke-miterlimit:10;}
	.st26{fill:#FFB955;stroke:#333333;stroke-width:2;stroke-miterlimit:10;}
	.st27{fill:#FFBA4A;stroke:#333333;stroke-width:2;stroke-miterlimit:10;}
	.st28{fill:#FFE76A;stroke:#333333;stroke-width:2;stroke-miterlimit:10;}
	.st29{fill:#E97D00;stroke:#333333;stroke-width:2;stroke-miterlimit:10;}
	.st30{fill:#FFFFFF;stroke:#333333;stroke-width:2;stroke-miterlimit:10;}
	.st31{fill:none;stroke:#333333;stroke-width:5;stroke-miterlimit:10;}
	.st32{fill:#FFDF94;stroke:#333333;stroke-width:2;stroke-miterlimit:10;}
	.st33{fill:#FF4F00;stroke:#333333;stroke-width:2;stroke-miterlimit:10;}
</style>
<image style="display:none;overflow:visible;enable-background:new    ;" width="1603" height="1015" xlink:href="F979A4B2.jpeg"  transform="matrix(0.7476 0 0 0.7561 101.2961 -10.0616)">
</image>
<path class="st0" d="M472.4,658.4l-14.1-16.7l7.1-15.4v-9l13.5-24.4h12.9v-19.3l18-6.4l14.1-25.7l14.1-12.9l11.6-20.6l10.3-21.9V472
	l-45-21.9l-5.8-10.3l-14.8-10.3l-23.1-14.1h-12.9l-12.6-5.7l-12.9,12.8c-2,2-5.8-2-8.5-1.5l-6.1,2.2c-6-0.3-6.1-5-6.4-11.1l1.3-9.5
	c0-0.9-2.3-2.9-3.2-2.9l-7.9,0.3c-1.6,0-4.8,0.4-4.8-1.3l0.5-3.7l4.7-13.3c-3.2-2.7-1.2-6-3.3-3.7l-9.9,5.9l-0.8,4.4
	c-1.9,1.9-4.5,2.8-7.6,3.6l-7.8-2.2l-2.7-7.7c-1.7-4-0.2-9.8-1.3-14l4.4-12.4c3.9-1.2,6.3-2.8,8.9-2.5l10.1,0.9l6.8-4.5l11.7,1.3
	l6,13.4c2.2,3,6.9,2.1,7.9-1.5l0.4-4.9c0,0,0-9,3.9-10.3s7.7-9.3,7.7-9.3l7.7-10.4l10.3-15.1c0,0,7.7-7.7,12.9-7.7s12.9,3.9,16.7,0
	c2.4-2.4,5.7-8.1,7.9-12.1c1.5-2.7,1-6-1.2-8.1l-6.7-6.7l4.5-3.6c8-6.4,8.8-18.2,1.8-25.7l-6.3-6.7l-7.7-16.7l-9-9l-29.6-10.3h-14.1
	l1.3,20.6l-3.9,10.3l3.9,15.4l-11.6-3.9l-9-7.7l-15.4-3.9l-6.4-7.7l3.9-11.6l10.3-11.6c0,0,2.6-6.4,6.4-7.7
	c3.9-1.3,11.6-5.1,11.6-5.1l6.4-7.7l-2.6-12.9h-11.6l-2.6,11.6h-7.7l-2.6-11.6h-6.4v-7.7l1.3-10.3l3.9-7.7H385h-10.3v9v7.7V175
	l-9,1.3l-10.3,2.6l-14.1,2.6l-18,5.1l-12.9-3.9l-16.7-7.7c0,0-15.4-3.9-19.3-3.9c-3.9,0-9,0-12.9,0s-11.6,1.3-11.6,1.3l-7.7,1.3
	l-12.9-2.6c0,0-32.8-6-36.6-6c-3.9,0-1.9-2.8-1.9-2.8l-10.3-0.2l-13.9,11.6l-6.2,0.6c-2.9,3.3-2.8,4.3,0.6,7l14.5,7.6l-4.1,3.9
	c2.5,1.5-4.1-4.6-6.9-3.6l-8.4,3.2v2.6c-2.8,0.5-0.5,2.7,1.9,4.3l8.2,1.5l6.6,0.2c2.7,1.2,0.7,7.6-2.3,8l-7.6,3.4
	c-3.3,0.5-4.5,4.6-2,6.9l5.3,4.7l14.2,3.6c3.4,2.6,3.1,7.8-0.5,10.1l-11.8,6l-4.3,2.8c-2.9,2.9-1.6,2.3,2.4,2.8l3-1.1l11.1-6.2
	l12.9-9c0,0,4.7-16.7,8.6-16.7s1.5,9.2,1.5,9.2l6.9-0.6l3.9-4.5l31.9,7.9l5.5,8.6l8.2,9l6.9,1.9l8.4,16.1l18.4,13.1l-1.1,4.3
	l-6.4-4.5l1.9,35.6l10.1,19.3l9.9,6.6l2.4,4.8l0.4,3.6l1.9,4.3l2.1,4.3c0,0,2.4,3.6,3,4.7c0.6,1.1,2.8,5.4,2.8,5.4s3.2,5.8,3.9,6.2
	c0.6,0.4,1.7,2.1,2.4,2.8c0.6,0.6,4.3,1.7,4.3,1.7s1.7,0.4,1.7-0.2c0-0.6-0.2-4.5-0.9-4.9c-0.6-0.4-2.8-3.2-2.8-3.9
	s-2.6-5.4-2.6-5.4l-3.2-4.3l-2.4-6.2l-1.5-3.2l0.4-1.9l2.6-0.2l2.4,2.8l1.7,3.2l2.8,3.9c0,0,1.9,3.2,2.6,4.1s3,4.3,3.6,5.1
	s4.5,5.1,4.5,5.1s0.9,3,1.5,3.9s1.7,4.1,2.8,4.7c1.1,0.6,2.6,2.4,4.3,4.1c1.7,1.7,4.7,6.4,5.1,7.1c0.4,0.6,2.1,2.6,2.1,2.6l2.8,3.2
	c0,0,4.1,1.7,6.4,2.4c2.4,0.6,3.6,0.4,4.3,1.1s6.9,3,7.5,3s3.4,0.2,4.5,0.9c1.1,0.6,4.9,2.1,6.2,2.6c1.3,0.4,3,0.4,3.9,1.1
	s2.6,1.3,3.4,1.5s3.6,1.1,3.6,1.1s1.1,0,1.5,0.6s1.9,1.7,2.4,3s0.6,3,0.6,3l0.2,2.6c0,0,0.2,0.6,0.2,1.3s1.7,1.5,1.7,1.5l4.1,1.3
	l1.9,1.5l1.3,1.9c0,0,3.2,1.1,3.9,1.7s2.8,1.5,2.8,1.5s1.5-2.5,2.1-2.5s0.4,1.3,2.8,0s0.6,1.4,1.3,0.5s1.7-1.3,2.8,0.2
	c1.1,1.5,3,2.6,3.2,3.6s0.6,3,0.6,3s-2.8,5.4-2.8,6.6c0,1.3,0.2,1.3-0.6,2.6s-1.9,3-2.4,3.9s-0.9,2.6-1.5,3.6s-0.9,2.4-1.3,3.2
	c-0.4,0.9-3,5.1-3,5.1l0.6,5.1l-0.9,3.4l-1.9,3c0,0,1.9,4.3,2.6,5.4c0.6,1.1,1.7,3.4,1.9,4.1c0.2,0.6,3,4.7,3,4.7l1.5,2.6
	c0,0,2.6,9.2,3.2,9.9c0.6,0.6,1.7,4.1,3,4.9s2.1,1.3,3.6,2.6s4.9,2.6,5.6,3s3.4,3.6,3.4,3.6l1.1,1.7l1.9,1.9l1.5,2.4l1.1,1.9
	l0.2,1.3l0.4,9.2l-0.9,10.3c0,0-1.3,3.9-1.7,5.6c-0.4,1.7-0.9,4.7-2.1,6c-1.3,1.3-2.6,10.7-2.6,10.7l-1.7,10.7c0,0,0.9,5.6,0,7.7
	s-2.1,7.7-2.1,7.7l-1.3,8.1l0.4,9.9l-0.4,9l-1.3,9.4c0,0,0.9,7.3,1.3,8.6c0.4,1.3,0.9,5.6,1.7,7.7c0.9,2.1,5.1,7.7,6.9,9
	c1.7,1.3,5.1,4.7,5.1,4.7s5.6,3.9,6.9,3.9c1.3,0,5.1,0,5.1,0L472.4,658.4L472.4,658.4z"/>
<path class="st1" d="M461.7,187.6c-1.3,1.3-7.3,7.3-7.3,7.3h-6.4l-1.7,3c0,0,5.1-0.9,7.7,0c2.6,0.9,12.4,4.7,12.4,4.7l11.6,3.4h8.1
	v-5.1l-3.9-4.1c0,0-3-4.1-3.4-5.4s0.4-5.6,0.4-5.6l6.9,6.9l3.4,3.2c0,0,3.4-4.9,4.7-6.2c1.3-1.3,2.6-3.9,2.6-3.9l-9.4-5.6l-5.1-2.6
	l-1.3-5.1c0-3.4-0.4-6-1.7-6.9c-1.3-0.9-5.1-1.7-7.7-3s-6-3-6-3l-6.9-3.4l-5.6-5.6c0,0-4.7-3.9-6.9-4.7c-2.1-0.9-12.9-2.6-12.9-2.6
	s-3-0.9-6.9,0s-8.6,0.9-9.9,2.1c-1.3,1.3-3.9,5.1-3.9,5.1v5.6l4.3,0.4c0,0,2.1,5.1,0.9,5.1c-1.3,0-5.1,1.3-5.1,1.3l3.9,3.9h7.7
	c0,0,7.3-3.4,8.6-3.4c1.3,0,7.7-2.1,9.9-1.3c2.1,0.9,9,7.3,12,8.6c3,1.3,4.7,3.7,4.7,3.7l5.1,7.1L461.7,187.6z"/>
<path class="st2" d="M535.9,222.6c0-1.3,4.3-16.7,4.3-16.7l3-6l6.4-6h6.4h3.9c0,0,3-5.6,4.7-7.7s6.4-8.3,6.4-8.3s14.6,0.7,16.7,0
	s8.6-5.8,8.6-5.8h-7.7l-1.7-3.4l6-5.6c0,0,1.3,2.6,3.4,3s3.4-3,3.4-3l-4.3-5.1l-6.9-5.1c0,0-0.4,1.7,2.1,0s7.3-0.9,9,0
	s1.7,0.9,1.7,0.9l2.1-6.9l-3.9-0.4l-1.7-3.5c0,0,2.6,1.3,3.9,0s3.9,0,3.9,0v-4.7v-3.4l-3.4-3l0.4-5.1c0,0,3,0.4,4.7,0
	s1.7-0.4,1.7-0.4l-3-3.4c0,0,0.4-3-0.9-3s-3,0-3,0s4.7-4.3,6.9-6.4c2.1-2.1,6.9-10.7,6.9-10.7l11.1-8.6c0,0-8.6-3.9-10.3-3.4
	c-1.7,0.4-16.3,6.4-17.6,6.9s-7.3,0.9-7.3,0.9s9-7.8,5.6-7.8s-16.1,2.2-16.1,2.2l-14.4-2.2c0,0,14.1-4.7,14.4-4.7s14.4,0,14.4,0
	s-1.3-5.1-2.6-5.1s-11.1-2.6-14.1-3s-15.9-3-17.6-3s-12,0-12,0l-4.7,6c0,0-9-0.9-9-1.3s-10.3,0-10.3,0l5.1,6.9l-9.4,1.7l-15-3
	l-5.1,1.3l-22.7,3.4v6l-10.7,5.1l-6.9,1.3l7.7,5.1c0,0-6,1.7-7.7,2.1s-12.4,3-12.4,3v4.7l8.6,3.9l14.6,2.1l-19.7,0.9l11.6,6.4
	c0,0,9,4.3,12.4,4.7c3.4,0.4,3.9-2.6,11.1,1.3s10.7,7.7,10.7,7.7l1.3,10.3l-1.7,5.1l-2.6,3.9c0,0,1.3,0.4,3,1.3s6-1.3,6-1.3
	s-0.4-3,2.1-2.1s4.7,2.1,5.6,3.4s0.4-1.3,0.9,1.3c0.4,2.6-6.4,3.9-8.1,3.9s-5.1,0.4-5.1,0.4s-2.1,1.3-0.4,2.6
	c1.7,1.3,3.9,2.6,3.9,2.6s0,4.3,1.3,2.4s0.4-1.5,3.4-2.4s5.1-1.3,5.1-1.3l1.7,3.7h-3c0,0-2.6,2.8-3.9,4.5c-1.3,1.7-3,5.1-3,5.1v3
	c0,0,2.1,3.9,2.6,5.1c0.4,1.3,2.1,4.7,2.1,4.7l0.4,3.9c0,0,0,0,2.6-0.4s2.6-0.4,2.6-0.4l-0.4,4.3l-2.6,1.7c0,0-1.7,1.7,0.4,3.4
	c2.1,1.7,4.7,3.4,4.7,3.4s-0.9,1.7,1.7,2.1s-0.4-1.7,2.6,0.4s4.7,3.9,4.7,3.9h3c0,0-0.4,3.9,2.1,2.1c2.6-1.7,2.6-1.7,2.6-1.7
	L535.9,222.6z"/>
<path class="st3" d="M616,206.7c1.7-1.7-1.7-1.3,1.7-1.7s5.1,0.9,6.4,0s1.3-0.9,1.3-0.9l1.7-2.1l-2.6-6l-2.6-2.6h-3h-3.9h-4.3
	l-2.1,1.7l-2.6,2.6l-3-2.6l-2.6-1.7H598v3v4h3.4c0,0,3,2.4,1.3,3.3s-1.7,0.9-1.7,0.9s0.9,6.7,1.3,2.9c0.4-3.8,2.6-1.6,2.6-1.6h2.1
	C607,205.9,614.3,208.4,616,206.7z"/>
<path class="st4" d="M422.4,139.3c0,0,1.7-1.3,1.7-2.6c0-1.3,3-2.6-0.9-3.4s-9-2.6-10.3-2.1s1.7,2.1-4.7,1.7
	c-6.4-0.4-11.1-1.8-11.1-1.8c-3,1.4-3.9,2.1-5.1,0s-3.4-5.5-3.4-5.5h-4.7h-5.1c0,0-1.3,3,0,3.9s3,3,3,3l2.6,2.6
	c4.7,2.1,6,2.6,7.3,2.6s2.6-0.4,3.9,0c1.3,0.4,2.1,3,3.4,1.7s-0.9-0.9,1.3-1.3c2.1-0.4,3-0.4,4.7-0.4s1.7,0,1.7,0l2.1,2.1h2.6
	c3-0.8,5.1,0,5.1,0h3.9L422.4,139.3z"/>
<path class="st5" d="M471.2,78.6c-2.1-0.4-3,1.3-4.3,0s-3.9-2.6-6-3s-2.6,1.7-6.9,0s-3.9-2.1-8.1-2.1s-6.9-0.9-8.6,0
	c-1.7,0.9-0.4,2.2-5.1,2.6c-4.7,0.4-3.8-1.7-7,0s-2.4,2.6-5.8,3s-1.7,1.7-6,2.5c-4.3,0.9-4.7-0.4-6.4,0s-3,0.2-7.7,0.3
	c-4.7,0.1-4.7,0.1-4.7,0.1l-3,3c1.3,2.1,3.9,2.6,5.6,3.4c1.7,0.9,4.6,2.6,4.6,2.6v3c0,0,0.2,2.1-2.4,2.1s-0.9,1.3-3.9,0
	s-3.9-2.6-3.9-2.6s-1.7-1.3-3-1.7c-1.3-0.4-1.3-0.4-1.3-0.4l-2.6-1.7c0,0-2.6-1.3-4.3-0.9c-1.7,0.4-0.3,1.3-2.3,2.6
	s-3.3,5.3-3.3,5.3h-3.9l3,5c6.4,1.7,6.4,1.7,6.4,1.7s0.9,0.4,2.1,0c1.3-0.4,3,0.2,3,0.2v3.7c0,0-3.9,1.3-1.3,3
	c2.6,1.7,0.4,2.1,2.6,1.7s2.1-0.4,2.1-0.4l1.7,0.6c3.9-0.2,3.9-0.2,3.9-0.2l0,0l3.9-2.6c4.7,1.7,5.1-0.1,6.9,2.7
	c1.7,2.8,1.7,2.8,1.7,2.8h-5.3l-3.7,4.7l-2.6,3.4c0,0,1.7,0,3,0s-3,0.4,1.3,0c4.3-0.4,9.9,0.2,9.9,0.2c3,0.2,3.4-0.2,6,0
	s5.1,0.1,5.1,0.1c3.9,1.9,0.9,2.3,3.9,1.9s3-0.4,3-0.4s1.7,0,1.7-1.7c0-1.7,0-1.7,0-1.7l0,0l-1.3-5.1c0,0-1.3-1.3,0.9-2.1
	c2.1-0.9,3-2.1,4.3-1.7s4.3,1.3,4.3,1.7s-1.7,2.1,0,0.4s2.1-1.3,2.6-3.4s0.4-3.9,0.4-3.9s-2.1-0.9-0.9-2.6c1.3-1.7-1.3-1.7,1.3-1.7
	c2.6,0,3.4,0.4,5.6-0.4s1.3-3.2,3-3.3s-1.3,2,1.7-0.1s3-2.1,3-2.1l3-1.3c0,0,1.7-1.7,3-3s-0.9,0,1.3-1.3c2.1-1.3,2.6-1.3,5.1-2.1
	c2.6-0.9,4.7-1.7,4.7-1.7c-0.9-2.1-3-2.6-3-2.6c6.9-0.4,6.9-0.4,6.9-0.4h4.3c0.9-3.4,0.9-3.4,0.9-3.4S473.4,79,471.2,78.6z"/>
<path class="st6" d="M357.5,166.9c-0.8,0-2.5,0-2.5,0c-3-2.6-3-2.6-3-2.6s-2.1-1.7-2.6-3.9c-0.4-2.1-0.4,0.9-0.4-2.1s0,0.4,0-3
	s0-3.4,0-5.4s2.1-1.5,0-1.9s-3.9-1.3-5.1,0s0.4-0.9-1.3,1.3c-1.7,2.1-1.7,2.1-1.7,2.1l-3.4,0.4c0,0-3-1.7-3,0.9s2.6,6.1,2.6,6.1
	s4.3,4.6,0.9,2.9c-3.4-1.7-5.1-3.4-6-4.7s3.9-3.4,0-3.4s-7.7,0-7.7,0s0.9,0-2.6,0s-6.9,0.4-6.9,0.4s-0.4-0.9-3.4-0.4s-1.3-2.1-3,0.4
	c-1.7,2.6-2.6,7.3-2.6,7.3s-0.9,1.3,2.1,2.1s3,0.9,3,0.9l-1.7,1.7c2.1,2.1,2.1,2.1,4.3,2.1c2.1,0-0.9,0.4,2.1,0s3-0.4,3-0.4
	s3,2.1,1.7,2.6c-1.3,0.4-3.9,0-3.9,0l-2.6,2.6c4.3,1.7,7.7,3,7.7,3s0.9,1.8,2.1,1.9c1.3,0.2-1.3,0.6,1.3,0.2s-0.4,2.1,2.6-0.4
	s4.9-4.3,4.9-4.3s-1.4-1.3,2.4-0.4c3.9,0.9,3.9,0.9,3.9,0.9l0,0c0,0,3,1.3,4.7,1.7c1.7,0.4,1.7,0.4,1.7,0.4s0.4,0,2.1,0
	c1.7,0,1.7,0,1.7,0s1.3-1.7,2.6-2.1c1.3-0.4,1.3-0.4,1.3-0.4l2.1-0.9h2.5C357.5,172.4,358.2,166.9,357.5,166.9z"/>
<path class="st7" d="M361.1,145.2l-2.3,2.6c2.3,1.5,2.3,1.5,2.3,1.5s0.4,3,0,3.4s-2.3,0-2.3,0l-0.3,4.3l1.4,3.9
	c3.8-0.9,1.2-0.4,3.8-0.9c2.6-0.4,0,1.3,2.6-0.4c2.6-1.7,1.7,0.9,2.6-1.7s2.1-4.8,2.1-4.8v-2.9c-0.4-2.6-0.4-2.6-0.4-2.6l-1.3-3.4
	c-3.9-0.1-3.9-0.1-3.9-0.1L361.1,145.2z"/>
<path class="st8" d="M364.1,125.2c0,0,0.4,1.6-1.7,2.3s0,0.3-2.1,0.7c-2.1,0.4-2.8,0.9-6.1,0c-3.3-0.9-6.3-3-6.3-3s0,2.7,0,3.5
	c0,0.8,1.3,3.3,2.6,3.5c1.3,0.2,3.2,2,3.8,2.4c0.5,0.4-1.2-1.3,1.8,0c3,1.3,0,1.7,3,1.3s0.9,1.7,3-0.4s0.4,0.4,2.1-2.1
	c1.7-2.6,3-3.6,2.6-5.9s-0.4-2.3-0.4-2.3L364.1,125.2L364.1,125.2z"/>
<path class="st9" d="M360.1,115.1c-3-0.4-3-0.4-3-0.4l-2.1,0.6h-2.1l-2.1-0.6c0,0,0-1.7,0-3s0-1.3,0-1.3h-3.4h-2.1v-4.7
	c2.1,0,4.7-3,5.6-1.3s3.2,2.1,3.5,2.6s2.8,0.9,2.8,0.9l3.1,1.8h3.1C363.2,109.6,363.1,115.6,360.1,115.1z"/>
<path class="st10" d="M374.7,114.6h-3c-3.9-0.9-3.9-0.9-3.9-0.9v3.4l2.1,3.2c3.4,0.2,3.4,0.2,3.4,0.2l1.3-0.2l2.4-3.2L374.7,114.6z"
	/>
<path class="st11" d="M335.3,126.1c-1.3,0-3.6,0-3.6,0v4.4v3.3c-2.9,0.4-0.7,0.4-2.9,0.4s-2.1,1-4.3-0.4c-2.1-1.3-6.4-3.5-6.4-3.5
	c-4.3,0.1-6,0.2-6,0.2v4c0,0-1.3,1.8,0,2.2s4.7-0.9,6.9,0c2.1,0.9,4.4,2.7,4.4,2.7v2.8c2.9,1.4-0.1,2.6,2.9,1.4c3-1.3,0.4,0.9,3-1.3
	c2.6-2.1,2.6-2.1,2.6-2.1l3.4-3c2.1,1.3,2.1,2.8,4.3,2.2c2.1-0.5,0,0.8,2.1-0.5s2.1-1.3,2.1-1.3s1.3-4.2,0-3.8s-2.1,0.1-3.4,0
	c-1.3-0.1-1.3-0.1-1.3-0.1l-1.3-3.3l1.3-2.3L335.3,126.1z"/>
<path class="st12" d="M291.7,146c0,0-0.2-2.8-2.3-2s0.5,1.6-2,0.8s2.1,2.6-2.6-0.9s-6.4-4.6-6.4-4.6l-3.4,3.4c0,0,2.1,2.9,0,4.4
	c-2.1,1.5-3.9,2.6-3.9,2.6l-2.6,4.7c0,0,4.3,5.8,6.4,5.8s-2.1,1.3,2.1,0c4.3-1.3,2.1,1.3,4.3-1.3c2.1-2.6,2.6-3,3.9-4.5
	c1.3-1.5-0.9-0.2,1.3-1.5c2.1-1.3,2.1-1.3,2.1-1.3s2.6-1.5,3.9-1.6c1.3-0.1,1.3-0.1,1.3-0.1l1.6-0.2L291.7,146z"/>
<path class="st13" d="M307.2,115.7v4.7c-3.3,0.9-3.3,0.9-3.3,0.9l0,0l-2.7-0.9l-2,2.3c-2.1,0.7,0,0.7-2.1,0.7s-1.7-0.4-5.1,0
	c-3.4,0.4-3.4,0.4-3.4,0.4s-1.7,2.6-1.7,0s-4.7,0,0-2.6s4.6-6.9,7-5.6s2.9-0.5,4.1-0.2c1.3,0.2-1.3,0.7,1.3,0.2
	c2.6-0.4-0.9-0.4,2.6-0.4s3.4,0,3.4,0l0,0L307.2,115.7z"/>
<path class="st14" d="M329.8,108.3c-0.2,0-2.2-0.6-2.7,0s0.8,0.6-1.4,0.6s-3.6-1.1-4.1-0.4c-0.5,0.7-0.2,1-1.1,1.4
	c-0.9,0.5-0.6,0.6-1.6,1.3c-1,0.7-1.4,1.1-1.4,1.4s-1.3,1.1,1.1,1.7s1.9,0.5,3.5,0.4s1.8,0.4,2.5,0.1c0.7-0.4-0.6-0.5,1.1-0.5
	s1.6,0.3,2.3-0.5c0.6-0.9,0.7-0.9,1-1.4s-0.7-0.7,0.5-0.9c1.1-0.2,0.7,0.2,1.1-0.2s0.7-0.5,0.7-1.1s0-1,0-1s0.7-0.7,0-0.7
	C330.5,108.4,329.8,108.3,329.8,108.3z"/>
<path class="st15" d="M338.8,99.4c-0.1,0.2,0.7,1.5,0,1.6s0.6,0.4-2.5,0s-2.2-0.9-3.4-0.7s-1,0.5-2.4,0.9c-1.4,0.4-1.3,0.8-1.9,0.8
	c-0.6-0.1-1.1-0.5-1.5-1c-0.3-0.5-1.7-0.9-0.6-2.1s0.6-1.5,1.7-1.6c1.1-0.1,0.2,0.1,2.8,0s2.6,0.5,4.4,0c1.8-0.5,3.1-0.9,3.3-0.9
	s-0.6-1.3,0.2,0s0.9,2.5,0.7,2.5C339.5,99,338.8,99.4,338.8,99.4z"/>
<path class="st16" d="M752.2,108.7c-3.1,0.6-2.6,1-6.2,1.4s-2.2,1-4.9,0.9c-2.7-0.1-1.8,0.6-4.9,0c-3.1-0.6-4.6-1.5-4.8-1
	s-3.8,0.1,0,2s-0.3,1,5.4,2.5s6,1.7,7.3,2.2s2.4,1,2.4,1.6c0,0.6,0.9,1.6-1.3,2.1s-1.9,1.4-5,2.2s-2.5,1.1-3.8,1.3s1,1.3-2.5,0
	s-2.9-0.3-4.2-1.9c-1.3-1.6-0.2-3.4-2.4-1.2c-2.1,2.2-1.2,4.2-2.5,4.9s-0.9,2.4-4.8,1.9s-3.9-0.1-7-1c-3.1-0.9-4.7-0.3-5.8-1.6
	c-1.1-1.3-1.3-1-1.7-2c-0.4-1.1-1.4-1.4-1.4-3.6s0.1-2.7,0-5s-1.4-1.9,0-5.1s-0.3-5,2.4-4.9s3.8,0,5,0.8s2.4,2,3.1,1.9
	s0.5,2,1.6-1.3c1.1-3.3-0.9-3.1,1.1-3.3s2.4,0.6,3.5,1.7s3.5,3,4.2,3.1s0.6,1.3,1.7-0.1c1.1-1.4,1.1-1.2,2-3.1c1-1.9-1.6-2.6,2.2-3
	s6-0.3,8.6,0s4.2,0.3,6.4,0.3s2.6,0.1,4.8,0.1s2-0.6,3,0.2c1,0.9,1.2,0.8,1.2,1.4C755,103.8,755.3,108,752.2,108.7z"/>
<path class="st17" d="M701.6,97.1"/>
<path class="st18" d="M739.5,574.1h7.7c0,0,0-2.9,3.9-4.8s-1.9,3.9,3.9-1.9s1.9,0,5.8-5.8s-1-1,3.9-5.8c4.8-4.8,2.9,0,4.8-4.8
	s-1-1,1.9-4.8s2.9-3.9,2.9-3.9s4.8,6.8,4.8,0s-1,2.9,0-6.8s1-9.6,1-9.6V521c9.6-4.8,5.8-1.9,9.6-4.8c3.9-2.9,7.7-5.8,7.7-5.8
	s0-6.8,0-10.6s0,4.8,0-3.9s0-13.5,0-13.5s1.9-1,0-5.8c-1.9-4.8-1.9,1-1.9-4.8c0-5.8-4.8,0,0-5.8s-1,1.9,4.8-5.8c5.8-7.7,0-1,5.8-7.7
	s1-1.9,5.8-6.8c4.8-4.8-1,1,4.8-4.8c5.8-5.8,1.9-1,5.8-5.8c3.9-4.8,2.9,0,3.9-4.8c1-4.8,1-4.8,1-4.8v-5.8c-5.8,0-10.6,0-10.6,0h-4.8
	h-7.7l-1-4.8l-3.9-4.8l-2.9-5.5c-3.9-6.1-3.9-6.1-3.9-6.1l-4.8-4.8l-4.3-3.9v-5.8c-3.4-5.8-7.2-12.5-7.2-12.5l-4.8-12.5h12v12.5
	l11.1,14.5c0,0,1.9,5.8,4.8,10.6c2.9,4.8,3.5,6.8,3.5,8s1.7,5.1,1.7,5.1l4.3,1.7c0,0,5.1,0.9,6-0.9c0.9-1.7,0.9-1.7,0.9-1.7
	s1.7-4.7,3.4-4.3c1.7,0.4,2.6,1.3,4.7,0s-0.9-0.9,3.4-2.1c4.3-1.3,0.9,1.3,6.4-2.1c5.6-3.4,6.4-2.1,7.7-3.9c1.3-1.7-2.1,0,1.3-1.7
	s0.9,2.1,3.4-1.7c2.6-3.9,0.9-2.1,2.6-3.9c1.7-1.7,0.9,0.9,1.7-1.7c0.9-2.6-1.3-3.4,0-5.1c1.3-1.7,0.4-3.9,0.2-4.7
	c-0.2-0.9-1.1-3-2.3-3.4c-1.3-0.4-5.1-2.1-5.1-2.1s-1.7-0.4-3,0.4s3,1.7-1.3,0.9c-4.3-0.9-0.9,0-4.3-0.9s-3.4-0.9-3.4-0.9
	s0.9,1.3-0.9-2.1c-1.7-3.4-1.7-3.4-1.7-3.4l-1.7-2.6c0,0-1.3,0.4-2.6,0c-1.3-0.4-1.7,0-2.6-2.1s-0.9-2.1-0.9-2.1s-0.4-1.7-0.4-3.4
	s-2.1-1.3,0-1.7c2.1-0.4,5.1,0,5.1,0s1.7-3,2.6-0.2s2.1,6.2,2.1,6.2l1.7,2.6c0,0,2.1,0.9,3.4,0.9s-0.9,0.4,1.3,0
	c2.1-0.4-3.9-1.7,2.1-0.4c6,1.3,8.1,2.1,8.1,2.1l7.7,4.3c3.9,0.4,1.3,0.4,3.9,0.4s5.1,0,5.1,0s-1.7,0,2.1,0.4
	c3.9,0.4,3.9,0.4,3.9,0.4s0,0,3.4,0s5.1,0.9,5.1,0.9l5.1,2.6l2.6,4.3l-3,2.6c0,0-2.1,2.6,0.4,3s4.3,0.4,4.3,0.4s0.9,0.4,2.6-0.4
	s1.7-0.9,1.7-0.9s-2.6,2.1,0,4.7c2.6,2.6,2.1,3,3.9,6.4c1.7,3.4,3.4,10.3,3.4,10.3s-0.4,0.4,0,2.6s1.7,5.1,1.7,5.1s0.9,2.6,1.7,3.9
	c0.9,1.3,2.1,5.1,2.1,5.1v5.6l2.1,0.4c0,0,0.9,4.3,2.1,3.4c1.3-0.9-1.3,3.9,1.3-0.9c2.6-4.7,0,2.1,2.6-4.7c2.6-6.9,0.9-0.4,2.6-6.9
	s0.9-3.4,1.7-6.4c0.9-3,0.4-3,1.7-5.1s1.3-2.1,2.1-3.9c0.9-1.7-1.7,0,0.9-1.7s-0.4-0.9,2.6-1.7s0.4,2.1,3-0.9s2.1,0,2.6-3
	s0.4-3,0.4-3l1.7-3c5.6,0.4,5.6,0.4,5.6,0.4s1.7-1.3,2.6-3s1.3-2.1,2.6-3s-1.7,0,1.3-0.9s-0.4,0,3-0.9s-0.4-0.4,3.4-0.9
	s3-3.9,3.9-0.4s5.1,10.7,5.1,10.7v4.3v3l3,3.4l3.9-1.3c0,0,0.9-3.9,2.6-0.4s1.7,6.4,1.7,6.4s-0.4,2.1,0,4.3c0.4,2.1-1.7,2.6,0,3.9
	c1.7,1.3,0.1,6.4,0.1,6.4s-0.7,1.3,0.7,3s3.5,5.1,3.5,5.1v4.7c0,0,2.1,3,2.6,4.3s0.4,1.3,0.4,1.3l2.6,3.9c0,0,1.3,1.3,2.1,3
	c0.9,1.7,2.1,3.9,2.1,3.9c2.6,0.4-0.4,2.1,2.6,0.4c3-1.7,2.1,0.9,3-1.7c0.9-2.6,0-3.9,0-5.1c0-1.3-0.4-1.3-1.7-3.4
	c-1.3-2.1-2.1-4.7-3.4-6.4s0.9,1.3-1.3-1.7c-2.1-3,0,0.9-2.1-3s-3-4.7-3.4-6s-0.9-0.4-0.4-3s0-3.9,1.7-5.1c1.7-1.3-2.6-0.9,1.7-1.3
	c4.3-0.4,6,3.4,6,3.4s2.9-0.9,3.4,3.4c0.5,4.3,0.5,4.3,0.5,4.3s1.3,2.1,2.6,2.1s-1.3,2.6,1.3,0s-0.4,1.7,2.6-2.6
	c3-4.3,1.7-4.7,3.9-6c2.1-1.3,0,0.9,2.1-1.3c2.1-2.1,1.3,0.9,2.1-2.1s2.1,1.7,0.9-3c-1.3-4.7-1.3-4.7-1.3-4.7l-2.6-5.1l-2.1-3.4
	c0,0,0-0.4-0.9-2.1c-0.9-1.7-0.9-1.7-0.9-1.7s-0.4-1.7-0.4-3.4c0-1.7,0.4-3.4,0.4-3.4c3-2.1-4.3-1.7,3-2.1c7.3-0.4,7.3-0.4,7.3-0.4
	s0,4.3,3.4,0.9c3.4-3.4,1.7-2.1,3.4-3.4s-2.6,0,1.7-1.3c4.3-1.3,2.6-0.4,4.3-1.3s0.9-0.4,3.4-1.3c2.6-0.9-2.1,1.7,2.6-0.9
	c4.7-2.6,4.7-2.6,4.7-2.6s1.7-0.9,2.6-2.1c0.9-1.3-0.9,0,2.1-4.3s3-4.3,3-4.3l2.6-3c0.9-3,0.9-3,0.9-3v-3.4c0-3,0.4-0.9,0-3
	s-0.5-3.9,0.2-3.9c0.7,0,2.4,4.3,0.7,0s-4.3-6.9-4.3-6.9s0-1.9-0.4-2.4s-0.4-0.6-0.4-0.6l-1.3-2.6v-3c3.4-2.6,3.4-2.6,3.4-2.6
	l3.7-1.7c0,0-1-0.5,0-1.8s3.3-1.7,0-2.6c-3.3-0.9-3.3-0.9-3.3-0.9s3.9-0.4,0,0s-3.9,0.4-3.9,0.4l-3.4-0.6v-6.2l6.9-3.4
	c0,0-1.3,0.4,2.1,0s3.4-0.4,3.4-0.4v5.1c3-1.7,4.3-6.9,5.6-5.1c1.3,1.7,0-0.9,1.3,1.7c1.3,2.6-0.9,3.4,0,5.1
	c0.9,1.7,0.4,3.4,0.4,3.4c4.3,4.7,7.7,7.7,7.7,7.7v4.7c0,0,1.3,0,3-1.3s-1.3,0.9,1.7-1.3c3-2.1,1.7,0,3-2.1s3.4,1.3,1.3-2.1
	c-2.1-3.4-3-5.6-3-5.6l-1.3-3c0,0-3.9-0.4-2.1-2.6c1.7-2.1,2.1-5,3.4-5.1s-0.9,2.9,1.3-0.1c2.1-3-2-3,2.6-4.7s1.7,0,4.7-1.7
	s3-1.7,4.7-3s3-1.3,3.9-2.6c0.9-1.3,0.9-1.3,0.9-1.3s-0.9,1.7,2.1-2.1c3-3.9,3-3.9,3-3.9v-1.7l3.9-3.9c0,0,2.1-3.4,3.4-4.7
	c1.3-1.3,2.6-6,2.6-6s-1.3-1.3,0-4.3s2.1-4.7,2.1-6s0,0,0-3.4s-1.7-7.3-1.7-7.3s-5.1,1.3-6.9,0c-1.7-1.3,3,0.4-1.7-1.3
	c-4.7-1.7-4.7-1.7-4.7-1.7l-0.9-1.7c3-3.4,2.6-3.4,4.7-4.3c2.1-0.9,2.1-0.9,2.1-0.9s0.9-7.7,4.3-7.7s12-0.4,12-1.7
	c0-1.3-5.6,0.9,0-1.3c5.6-2.2,5.1-3,10.7-4.3c5.6-1.3-4.3-2.1,5.6-1.3c9.9,0.9,9,1.7,13.7,2.1s1.3,0,4.7,0.4
	c3.4,0.4,3.4,0.4,3.4,0.4l2.1-3.4c0,0,0.4-0.9,0-3.5c-0.4-2.6-5.2-3,0.2-4.3c5.4-1.3,5.8,1.7,7.1,0c1.3-1.7,3-2.4,3.4-0.3
	c0.4,2-3,2.9,0.4,2s2.1-2.8,4.7-3.3s3.4-2.3,5.1-2.7s1.7-0.4,1.7-0.4s0.9-0.4,0,2.6s-2.1,3.4-3.9,5.1c-1.7,1.7-0.4,1.7-3.9,3.9
	c-3.4,2.1-4.3,3.4-6.4,5.1c-2.1,1.7-2.6,3.9-3.9,4.7c-1.3,0.9-0.9-1.3-3.4,2.6c-2.6,3.9-3.4,7.7-3.4,7.7s-0.4,1.7-0.4,4.7
	s0.4,8.1,0.4,9.4s1.3,5.6,1.3,5.6s-0.9,1.3,3,0s0.4,2.1,3.9-1.3c3.4-3.4,3-3.4,4.3-5.6s-1.7,0.9,1.3-2.1s-0.9,2.6,3-3
	c3.9-5.6,4.7-6,5.1-8.1c0.4-2.1,1.3-5.1,1.3-5.1s-0.4-1.3-0.4-3.4s0-2.1,0-2.1l2.5-5.1l1.8-1.7c0,0,2.1-1.7,3.4-1.7s3.4,0,3.4,0
	l3.4,0.4c2.6,1.7-2.1,4.3,2.6,1.7c4.7-2.6,2.1-0.4,4.7-2.6s-4.7-1.7,2.6-2.1c7.3-0.4,3.4,2.6,7.3-0.4s6.9-5.6,6.9-5.6
	s0.4-0.4,2.6-1.3c2.1-0.9,6-2.2,6-2.2c3-2.1,3.9-6,3.9-6s0.9-3-2.1-3s-6,0-6,0s-3.4-2.6-1.3-3s5.6-2.1,7.7-2.6s2.6-1.3,3.9-3
	s-1.3,0,1.3-1.7c2.6-1.7,8.1,5.1,8.1,5.1c3,1.3-0.9,1.7,3,1.3c3.9-0.4,3-0.4,5.6-1.7c2.6-1.3-1.3,0,2.6-1.3c3.9-1.3,1.3,3.9,3.9-1.3
	c2.6-5.1,5.6-9.9,3.9-10.3s-3-0.4-4.7,0s-4.3,3-5.6,3s-2.6,0.4-3.4-0.9c-0.9-1.3,1.7,2.4-2.6-2.5s-3.4-6.1-7.3-7.4
	c-3.9-1.3-3.9-2.6-7.7-3.4s1.7,0-7.7-2.6c-9.4-2.6-9.4-2.6-9.4-2.6h-6.8c-1.3,4.3,1.3,6.4-0.4,6.9c-1.7,0.4-1.7,0.4-5.6,0.4
	s-3.9,0-3.9,0s-0.9-1.7,0.4-3s2.6-4.3,2.6-4.3c-7.3,2.1-8.1,2.6-12.4,3s-4.7,0-6.4,0c-1.7,0-1.7,0-1.7,0s1.7-0.9-2.6-0.9
	s-4.3,0-4.3,0s-0.4,0-1.3-2.1s3-0.4-0.9-2.1c-3.9-1.7-4.7,2.1-8.1,0s-4.7-2.6-6.9-2.6s2.1,1.7-5.1,0c-7.3-1.7-8.6-3.9-8.6-3.9
	s0.9-1.7,1.7-3c0.9-1.3,4.7-0.9,0.9-1.3s-3.9,1.3-9.4,0c-5.6-1.3-3.9,1.6-7.3-0.1s1.7-0.8-3.4-1.6c-5.1-0.9-8.1,0-8.1,0
	s3.4-5-2.1-0.4c-5.6,4.7-5.6,4.7-5.6,4.7s3.4,1.7-3,1.7s-4.3-0.9-8.6-0.4c-4.3,0.4-6.9,0-6.9,0c-3.4,0.4-3,1.3-6,2.1
	c-3,0.8-0.4,0.4-3,0.9s-1.3,4.3-2.6,0.4c-1.3-3.9-1.7-2.6-1.7-5.6s-0.4-5.8-0.4-5.8s12-0.6-0.4-1.9c-12.4-1.3-9-1.3-12.4-1.3
	s-5.6,0-5.6,0s-0.4,2.1-3,2.1s-2.6,0.4-5.1,0.4c-2.6,0-2.6,0-2.6,0l-3.9-2.6c-2.6-1.7,0.4-1.7-2.6-1.7s-2.1,0-5.6,0
	c-3.4,0-0.9-1.3-6,0c-5.1,1.3-1.3,1.3-5.1,1.3s-3.9-2.9-6-1.9s-0.9,0.6-3.9,2.3c-3,1.7-0.4,0.9-3,1.7c-2.6,0.9-7.1,2.6-5.5,0
	c1.6-2.6,6.3-4.3,10.2-6c3.9-1.7,1.7,0.4,6.4-2.6s3-0.4,4.7-3c1.7-2.6,1.7-0.4,1.7-2.6c0-2.1,0.4-2.1-2.6-3.4c-3-1.3,11.1,4.3-3-1.3
	c-14.1-5.6-11.6-4.7-14.1-5.6c-2.6-0.9-6.4-1.7-6.4-1.7c-2.1,0,4.7,0-2.1,0c-6.9,0-9-0.9-11.1,0c-2.1,0.9-3.9,1.7-5.1,3
	c-1.3,1.3,2.1-1.7-1.3,1.3s2.6-1.3-3.4,3c-6,4.3-3.4,4.7-6,4.3c-2.6-0.4-2.6-1.3-4.7-1.3s-3.9,0-5.1,0s1.7-2.1-4.7-0.9
	c-6.4,1.3-6,2.1-8.6,3.9c-2.6,1.7-2.6,0.9-4.3,3.9s-0.9,5.1-2.1,5.1c-1.3,0,5.1,0-1.3,0s-8.1-1.3-8.1-1.3s-1.7,0.4-2.1,1.7
	c-0.4,1.3,0.4,9,4.7,12s5.1,3,6,4.3c0.9,1.3,3.9,0.9,2.1,3.4c-1.7,2.6-1.3,4.3-3.4,4.3s5.6,3.4-2.1,0s-6.4,0.9-7.7-3.4
	c-1.3-4.3-0.4-0.9-1.7-6.4c-1.3-5.6-1.3-5.6-1.3-5.6s-0.9-1.3-4.7-0.4c-3.9,0.9-3.9,0.9-3.9,0.9l-1.3,6l-2.6,0.4
	c0,0-1.3,2.1-2.6-1.3c-1.3-3.4-2.1-6-2.1-7.3c0-1.3,0-1.3,0-1.3s-2.1,1.3-2.6,3.4c-0.4,2.1-0.9,4.7-0.9,4.7s-2.6-2.1,0,2.6
	s-1.7,1.7,2.6,4.7c4.3,3,3,3.4,6.4,4.3s3.4,0.9,3.4,0.9l1.3,3.4c-3.9,2.6-0.4,3.4-3.9,2.6s-1.3,1.7-3.4-0.9s-2.6-6-3.9-4.7
	c-1.3,1.3-0.9,3.4-1.7,5.6c-0.9,2.1-1.3,4.3-1.3,4.3l-1.7,3c-3.9,3-5.6,3.4-6.9,3.9s0.4,0.4-1.3,0.4s-0.4,3-1.7,0s-1.7-2.6,1.3-6.4
	c3-3.9,0.9,0.4,3-3.9c2.1-4.3,1.7-0.9,2.1-4.3s0.4-4.3,0.4-5.6s0,1.7,0-3.4c0-5.1,1.3-1.7,0-7.3c-1.3-5.6-1.3-5.6-1.3-5.6
	s3.4-3-0.4-2.6s-4.3,1.7-6,2.6s-1.7,0.9-1.7,0.9s1.3,1.7-3,3s-5.1-2.6-4.7,4.3c0.4,6.9,1.3,9,2.1,10.7c0.9,1.7,0.9-1.7,0.9,1.7
	c0,3.4-1.3,5.1-2.6,5.1s2.1,3.9-1.3,0s-4.3-5.1-6.9-6s-2.6-1.3-5.1-3c-2.6-1.7,5.1,2.1-2.6-1.7c-7.7-3.9-7.7-3.9-7.7-3.9
	s-1.3-5.1,0,0c1.3,5.1,1.3,5.1,1.3,5.1s3.9,2.6,2.1,4.7c-1.7,2.1,1.3,0.9-1.7,2.1c-3,1.3-5.6-1.7-5.6-1.7c-3,0,0.4-3-3,0
	s0.4,3-3.4,3s-6.4,2.6-6.4,2.6c-3.4-3-1.3-4.3-4.3-5.1c-3-0.9-5.6-3.4-7.7-0.4s1.7,4.7-4.3,5.6c-6,0.9-7.7,0-8.1,1.3
	s-0.9,2.6-0.4,1.3c0.4-1.3,3,0,0-3.9s-3-5.1-5.6-4.7s-4.3-4.7-3,2.6c1.3,7.3,4.3,3.4,1.3,7.3c-3,3.9,1.7,2.1-3,3.9
	c-4.7,1.7-6,3.4-6.9,5.1s3.4,3.2-1.7,3.3c-5.1,0.1-5.1-0.1-8.6,0s-0.4,1-3.4,0.1c-3-0.8-5.6,0.4-6.4-6s-0.9-6.4-0.9-6.4
	s8.6,5.6,9.9,4.7s-4.3,3,3.4,0s4.3-1.7,7.7-3c3.4-1.3,3.4-1.3,3.4-1.3s7.7,1.7,0.4-2.1c-7.3-3.9-4.7-3.4-7.3-3.9s9.4,5.1-2.6-0.4
	c-12-5.6-9.4-4.7-12-5.6c-2.6-0.9,0.4-0.9-5.1-2.1c-5.6-1.3-2.6,1.7-5.6-1.3s-3-3-3-3s-2.3-3-4.6-3s0.3,0.4-2.3,0s-2.1-8.1-6-3
	s-3.9,5.1-3.9,5.1l-5.1,2.1c0,0,2.4,0-2,0.4c-4.4,0.4-5.1,0.4-6.5,0.4c-1.3,0-1.3,0-1.3,0s-0.9,1.3-2.1,2.1
	c-1.3,0.9-2.1,1.3-3.9,2.6c-1.7,1.3-4.3,2.6-4.3,2.6s-1.7,0.9-2.6,2.1c-0.9,1.3,1.3-2.6-0.9,1.3s-0.4,1.7-2.1,3.9
	c-1.7,2.1-1.7,2.1-1.7,2.1s3,2.1,0,3.9c-3,1.7-0.9-0.9-3,1.7s0.9-1.3-2.1,2.6s-3,3.9-3,3.9s0,2.1-1.7,3c-1.7,0.9,1.3-0.4-1.7,0.9
	c-3,1.3-3,1.3-3,1.3l-4.7,1.9c-1.7,2.4-1.7,2.4-1.7,2.4l-3.4,3.9c0,0,0,3.4,0,4.7c0,1.3-0.9,3.9,0,5.6s-0.9-1.3,0.9,1.7s1.7,3,1.7,3
	l2.1,2.6l3.4-0.4c3.9-0.9,1.3,2.1,3.9-0.9s0-2.6,2.6-4.3c2.5-1.7-0.9-1.3,2.5-1.7c3.4-0.4,3.4-0.4,3.4-0.4l1.7,0.4l1.7,3
	c0,0-0.9,0.4-1.7,2.1c-0.9,1.7-0.9,2.1-1.3,4.3c-0.4,2.1-0.4,5.1-0.4,5.1s0.9,2.1,2.6,2.1s-1.3,3,1.7,0s0,2.1,3-3s2.6-5.1,3.9-6.9
	c1.3-1.7-3.9,0.9,1.3-1.7c5.1-2.6,5.1-2.6,5.1-2.6l0.9,3l-1.7-5.6c0,0-2.6-0.4-2.6-3.9s-1.3-4.3,0-6s0-0.9,3.9-4.3s2.3-2.1,4.8-5.1
	s2.9-1.1,5.5-4.8c2.6-3.7-0.9-1.6,2.6-3.7c3.4-2.1,4.3-9.4,5.6-3.9c1.3,5.6,4.7,3.6,1.3,7.6c-3.4,4-2.6,7.4-6,9.5
	c-3.4,2.1-4.3,3.9-5.1,5.6c-0.9,1.7-1.7,6.4-0.4,7.3c1.3,0.9,0.4,3,6,1.7c5.6-1.3,0.4,0.9,7.7,0c7.3-0.9,3.2-0.4,8.7,0
	c5.5,0.4,16.2-3.9,5.5,0.4c-10.7,4.3-5.6,5.1-13.3,6.4c-7.7,1.3-7.7,1.3-7.7,1.3s-2.6,1.7-0.9,2.6s5.1,3.9,5.1,6s3,3.4-2.6,3.4
	s-7.7,0-7.7,0s0,0.4-0.4,3s2.1,1.7-0.4,2.6s-3.4,2.6-6,2.6s1.7-0.4-2.6,0c-4.3,0.4,2.1-0.4-4.3,0.4s-3.9,0.4-8.1,0.9
	c-4.3,0.4-1.3,0.4-6,0c-4.7-0.4-6.9-1.7-6.9-1.7c-1.3-4.7-1.3,1.3-1.3-4.7s2.1-7.3,0-6s-2.6,4.3-2.6,4.3s-0.4,1.3-0.4,2.6
	s0,4.7,0,4.7s1.3,2.6,0,2.6s1.7,0-1.3,0s-3,0-3,0l-2.1,2.1c-2.1,2.1-3.6,2.6-5,3.9c-1.4,1.3,1.6-0.9-1.4,1.3s-3,2.6-5.1,3.9
	c-2.1,1.3,1.3-0.9-2.1,1.3c-3.4,2.1-0.9,0.9-3.4,2.1c-2.6,1.3,0,0.4-2.6,1.3c-2.6,0.9-2.6,0.9-2.6,0.9s0,0.9-2.1,1.3
	c-2.1,0.4-3,0.9-3.9,2.1c-0.9,1.3-0.9,1.3-0.9,1.3v3.4l3,3l1.7,3c0,0,0.4,1.7,0.9,3s0,0.9,0.4,4.3c0.4,3.4,0.4,3.4,0.4,3.4
	s-0.9,0.9-3.4,2.6s1.7,1.7-2.6,1.7c-4.3,0-5.6,0.9-6.9,0s2.1-0.4-1.3-0.9s-0.9-1.3-3.4-0.4c-2.6,0.9-0.4,0-4.3,2.6s-4.7-3.9-3.9,2.6
	c0.9,6.4-0.3,9.4-0.3,9.4s-0.7,1.7,0,3.9s-2.3,0,0.7,2.1s0.9,0.9,3,2.1c2.1,1.3,1.7,5.3,4.3,3.9c2.6-1.3-5.1-0.9,2.6-1.3
	c7.7-0.4,4.7,5.1,12-1.3c7.3-6.4,6.4-3.4,7.3-6.4s0.4-3,1.3-5.6s-1.3-2.6,3-4.7c4.3-2.1,3-1.3,6-3.9c3-2.6-3.9,0.4,3-2.6
	s6.9-2.6,9.4-3.4s0-0.9,2.6-0.9s6,2.6,6,2.6l3,3.4c0,0,3.9,1.3,6,3.4c2.1,2.1,2.1,2.1,2.1,2.1l3.9,3.9c0,0,1.3,1.7,0,2.6
	s-1.3,0.9-1.3,0.9s-3.9,2.6,0.4,2.6s3.4,2.6,4.3,0s1.3-3.9,1.3-5.1s-1.7,0.4,0-1.3s1.7-1.7,1.7-1.7s-1.7,0.4-3-3s1.3-1.3-1.3-3.4
	c-2.6-2.1-3.9-1.7-5.1-3c-1.3-1.3-2.6-2.6-3.9-4.3c-1.3-1.7,0,0.9-1.3-1.7c-1.3-2.6-1.3-4.7-1.3-4.7l5.6-0.4l9.9,8.1l2.1,5.6
	l3.4,4.3l2.2,3.4v2.6l3.4,6.4c3.9-0.9,3.9-0.9,3.9-0.9s0.9,0.4,1.7-1.3s-3,3,0.9-1.7s3.9-4.7,3.9-4.7s-2.1,3.9,1.3,3
	s3.9-0.4,4.3,1.3c0.4,1.7,2.1,4.7,2.1,4.7l0.4,2.1l4,4.3c0,0,7.2,0.9,8.9,0s-5.6-2.6,1.7-0.9s7.3,1.7,7.3,1.7l1.7-0.8l1.3,3.4
	c0,0,0.9,0.4,0,3.4s-1.3,5.1-1.7,6.4s-2.6,4.3-2.6,4.3s0.4,0.9-2.6,1.3c-3,0.4-1.3,6.1-9,3.3s-11.1-3.7-13.3-3.7
	c-2.1,0-4.3-0.9-5.6-0.9s-2.6-0.4-3.9-0.9s-0.9-0.9-3.4-0.9s-6.4,2.6-6.4,2.6s-3.4,5.3-4.7,3.7s-0.9,3.7-3.9,0s-3.4-5-6-5
	s-9.4-1.3-9.4-1.3l-3-1.3c-1.3-4.7-2.2-0.4-1.3-4.7c0.9-4.3,0.5-3.4,1.3-6c0.8-2.6,0.8-2.6,0.8-2.6l-8.6-5.6c0,0,1.3,0.9-2.6,0.9
	s-3-0.9-9.9,0s-6.4-1.7-9.4,0.4s-3,2.1-3,2.1l-1.3,3.4c0,0,5.1,1.3-4.3,0.9c-9.4-0.4-9.4-0.4-9.4-0.4l-2.6,0.9l-0.9,2.6l-2.6,4h-2.1
	l-6.1,5.9l-2.9,5.9c0,0-2.1,4.4-3.4,5.3s-1.7,4.3-3,4.7c-1.3,0.4-3.9,0.4-4.7,2.6c-0.9,2.1-0.9,5.6-2.6,7.7c-1.7,2.1-2.1,5.6-3,7.7
	c-0.9,2.1,1.3,5.6,0,6.9c-1.3,1.3,0.9,4.3-0.2,6s1.5,3.9-0.2,6.4c-1.7,2.6-2.2,4.7-2.2,7.3c0,2.6-0.9,4.7,0,6.9
	c0.9,2.1,4.7,7.3,4.7,7.3s0.9,2.6,2.1,3.9c1.3,1.3,1.7,2.6,4.7,4.7s3,5.1,5.1,6s0.9,1.7,4.3,2.1c3.4,0.4-1.7,0.4,3.4,0.4
	s4.7,0.4,9,0.4s-6.4,0,4.3,0s3.9,0,10.7,0c6.9,0-3.9-0.9,6.9,0s8.4,1.7,11.3,2.6c2.9,0.9,4.6,1.7,6.7,3s2.1,1.3,2.1,1.3
	s0.4,3,0.9,4.7s0.9,4.3,1.3,5.6c0.4,1.3,1.7,5.1,1.7,5.1s1.7,1.7,3,5.1c1.3,3.4,0,4.7,1.7,6c1.7,1.3,2.5,2.6,3.4,4.3
	c0.9,1.7,1.7,3.4,1.7,3.4l3.4,4.7c0,0,0,4.7-0.4,7.3c-0.4,2.6,0.4,5.6-0.4,8.6s-0.9,6.9-0.9,8.1s0,3.9,0,7.3s1.3,10.7,1.7,12.9
	c0.4,2.1,1.7,6,3.4,9s3.9,7.7,4.3,9.4c0.4,1.7,2.1,5.6,2.1,5.6l2.1,6.4l1.3,5.6c0,0,0.4,2.6,0.9,3.9s1.3,3,2.1,4.3
	c0.9,1.3,0.9,3.4,4.3,3.9s3.4,0.4,3.4,0.4L739.5,574.1z"/>
<path class="st19" d="M830.3,494.1l-2.1,1.7c0,0,1.3,1.7-2.6,2.6c-3.9,0.9-5.1,0.4-6.4,1.7s-2.1,3-3.4,3.4s-2.6,3.4-2.6,3.4
	s0.9,3.4,0,5.1s-1.7,7.7,0,9s1.7,8.1,1.7,8.1v3.9c0,0-1.7,1.3,2.1,0c3.9-1.3,4.7-0.9,6-2.1s0,0.9,1.3-1.3c1.3-2.1-0.9,3.9,1.3-2.1
	c2.1-6,0,0,2.1-6s0.9-3.3,2.6-7.6c1.7-4.4,3.4-8.6,3.4-8.6v-3.4v-2.6v-3L830.3,494.1z"/>
<path class="st20" d="M644.7,248.3l-2.6,2.6c0,0-0.9,3.4-2.6,3.9c-1.7,0.4-1.7,0.4-1.7,0.4v6.9c0,0-2.6,4.3,0,3.4
	c2.6-0.9-0.9,0.9,2.6-0.9c3.4-1.7,0.9,0.4,3.4-1.7c2.6-2.1,2.6-2.1,2.6-2.1s0.9,0,1.7-1.7c0.9-1.7-1.7-2.1,0-4.3
	c1.7-2.1,1.7-2.1,1.7-2.1v-1.7l-3-2.6L644.7,248.3L644.7,248.3z"/>
<path class="st20" d="M658,231.6l-4.3,3.9l-3.9,1.3v3v3.4c0,0,3.9,1.3,4.1,2.6c0.2,1.3,0,2.6,0,2.6v2.1h2.4l1.7,3c0,0,0,4-1.7,3.5
	c-1.7-0.5-2.4,2.9-2.4,2.9v2.6v3.1h1.9c0,0,5.6-0.1,2.1,2c-3.4,2.1-3.4,2.1-3.4,2.1s3.5-0.4,4.5,0c1,0.4-1.5,1.3,1,0.4
	c2.6-0.9,0.4,0,2.6-0.9s-0.4-0.4,2.1-0.9s0,0.9,2.6-0.4c2.6-1.3,1.3,0.4,2.6-1.3c1.3-1.7,0,3,1.3-1.7s0-8.1,0-8.1
	c-2.1-1.3,1.3,1.2-2.1-1.3s-3.4-2.6-3.4-2.6s-0.9-0.5-1.3-2s-0.4-1.5-0.4-1.5s0.9,0-0.4-1.3s-1.3-1.3-1.3-1.3s-0.7-1.7-1.4-3.4
	c-0.7-1.7-0.7,1.3-0.7-1.7s0-3,0-3l0.7-2.6v-4.7L658,231.6L658,231.6z"/>
<path class="st21" d="M1111.1,320.2c0,2.1-3.9,9-3.9,9s0.9,1.7-3.4,3s-5.6,3.5-7.7,3.9c-2.1,0.4-4.7,3.4-4.7,3.4s-3.4,3-5.6,3.4
	c-2.1,0.4-4.3,2-5.1,3.6s-1.3,3.3,0,4.6c1.3,1.3-2.6-0.9,3.9,0c6.4,0.9,0.4,3.4,6.4,0.9s9.4-4.4,12.4-5.4s3-0.1,5.6-3.1
	s0.4,1.3,2.6-3s0.9-0.9,2.1-4.3c1.3-3.4-2.6-4.3,0-6.4s3-2.1,3-4.3s0.9-5.1,0-5.1s-1.7,0-0.9,0c0.9,0-0.9-2.6,1.2-3.4
	s1.3-2.1,3.9-3.4s1.7,1.3,2.6-1.3c0.9-2.6,1.7-3,0-4.3s-2.1-1.7-3.9-3c-1.7-1.3,0.9-1.7-1.7-1.3s-4.7,3.9-4.7,3.9l-2.1,3l-0.9,4.3
	l0.4,3.4L1111.1,320.2z"/>
<path class="st22" d="M1042,389.7c-1.3,1.3-5.6,5.6-5.6,5.6s-1.7,1.7-1.7,3.4c0,1.7,3.6,7.7,3.6,7.7s0.6,3,1.9,4.3s1.7,3,1.7,3v2.1
	c4.3,0.9,8.1,3.4,8.1,0s0.9,1.3,0-3.4c-0.9-4.7,4.2-1.3,0.4-6.4s-8.4-3.9-7.2-6.4c1.2-2.6,1.3-1.3,0-5.6S1042,389.7,1042,389.7z"/>
<path class="st23" d="M1048.9,424.4c-3,0.4-5.9,0.4-5.5,1.7s0,4.3,0,4.3s4.4-0.9,4.3,0c-0.1,0.9-2,5.1,4.3,2.6s7.2,6.4,6.3-2.6
	c-0.9-9-0.9-9-0.9-9S1051.9,424,1048.9,424.4z"/>
<path class="st24" d="M1030.9,436.4c3,1.3,3.4-1.7,3,1.3s3.4,3-0.4,3s-3.9,0-3.9,0s-3.9-1.3-1.3,2.6c2.6,3.9,2.6,6.4,2.6,6.4
	s3,3.9,0,5.6c-3,1.7-2.2,4.3-4.3,5.6s-4.3,4.7-4.3,4.7c-3.9,0.4-4.7,1.7-8.1,0s-5.1-1.3-6.4-2.6s3,2.1,0-3s-2.6-3.4-3-5.1
	s-3,1.7-0.4-1.7c2.6-3.4,3-3,4.3-4.3s-1.3,0,1.3-1.3c2.6-1.3,2.1-0.4,3.9-3.9c1.7-3.4,1.3-5.1,3.4-7.3c2.1-2.1,3,0.1,4.7-1.9
	C1023.6,432.6,1027.9,435.1,1030.9,436.4z"/>
<path class="st25" d="M968.3,455.7c2.6,1.3,3,1.7,4.3,3.4s1.3,3,3.4,3.9s4.7,3.4,4.7,3.4s5.1,0.9,5.6,0s1.3,4.3,0.4-0.9
	c-0.9-5.1,1.7-5.8-2.1-8.5c-3.9-2.7-4.7-1.4-6-2.7s-1.8-4.3-2.6-4.3c-0.8,0,1.3,3.4-0.8,0c-2.1-3.4-2.6-3.9-3-5.6
	c-0.4-1.7,3.9-2.1-0.4-1.7S965.7,454.4,968.3,455.7z"/>
<path class="st26" d="M1001.3,474.6c-5.1,0.9-5.1,0.9-5.1,0.9l-3,2.6c2.1,1.7-6.9,0.9,4.7,1.7c11.6,0.9,11.6,0.9,11.6,0.9h2.6
	c0,0-2.6,1.7,0,2.6s9,3,9,3s-0.9,1.7,0-2.1s0.9-4.7,0-6.4c-0.9-1.7-4.7-3.4-4.7-3.4S1006.4,473.7,1001.3,474.6z"/>
<path class="st27" d="M1056.1,450.1h-4.7l-4.3,3l-3.8,2.1l-0.4,3.4v7.7v6c3-1.3,3.9-4.5,3.9-4.5c2.1-1,2.1-1,2.1-1s3,5.1,2.6,1
	s-0.4-4-0.4-4s-0.8-0.9,0.4-2.6c1.3-1.7-1.3-0.4,1.3-1.7c2.6-1.3,2.6-1.3,2.6-1.3s-2.1-0.8,0.9-3s3-2.1,3-2.1l0,0v-3L1056.1,450.1
	L1056.1,450.1z"/>
<path class="st28" d="M1074.6,455.3c-1.7-0.4-3.9,0-3.9,0v3.4l1.9,2.6v3.4c0,0-3.6,2.1,0,3.2s3.6,1.1,3.6,1.1l2.1-1.1l9,4.5h2.7
	l2.9,4.7l-2.9,3.1c6.3-0.1,10.2,0,10.2,0c4.3,2,4.3,2,4.3,2s2.1,0.9,3.4,0s-3.4-0.9,1.3-0.9c4.7,0,5.6,2.9,7.7,5.1s-3.9,2.2,2.1,2.2
	s8.1,0,8.1,0c2.6,0.9,2.6,3.9,2.6,0.9s2.6-4.7,0-5.1c-2.6-0.4-6.4-4.1-6.4-4.1s0.9-1,3-1.9s0.9,1.7,2.1-0.9c1.3-2.6,0.1-1.9,2.4-4.6
	c2.3-2.7,2.7-5.1,2.7-5.1s0-0.2-2.1,0s-2.6,4.4-4.7,5.1s1.3,0.7-2.1,0.7s-5.6-0.7-5.6-0.7s-0.9-5.8-3.4-5.1
	c-2.6,0.7-5.1-1.5-5.1-1.5s-1.3-0.4-3.9-1.7c-2.6-1.3-1.7-4.3-4.5-3.4s-3.2,0-4.5,0s6.4,0-1.3,0c-7.7,0-7.7,0-7.7,0l-3.9,1.7
	c0,0-0.4,1.3-3.4,0s-3.9,0.4-4.7-1.7c-0.9-2.1-0.9-2.1-0.9-2.1L1074.6,455.3z"/>
<path class="st29" d="M1076.3,494l-2.6-2.1h-2.1h-3.4v2.1v5.1h-3c0,0-1.7,1.7-2.1,3s-0.4,1.3-0.4,1.3l0,0c0,0-2.1-1.3-3.4,0
	s-1.3,1.3-1.3,1.3h-1.9c0,0-1.6-2.1-3.3-2.1c-1.7,0-4.3,0-4.3,0l-2.1,2.1c0,0,1.7,3,0,4.7s-3,4.3-3,4.3s-1.2-0.9-2.6,0
	s3,0.9-1.3,0.9s-9.9,7.3-9.9,7.3s-6.4,4.7-8.6,4.7s-4.4,0-4.4,0s-1.6,2.6-2,3.9s-2.1,3.9-2.1,3.9s0,2.4,0,4.4s4.2,8.9,4.2,8.9
	s-0.6,2.6,0,3.9s0,8.6,0,8.6l2.5,3.4c0,0-0.6,0.9,0,3s0.6,2.1,0.6,2.1s-0.9,3-0.6,3c0.2,0-2.5,0-2.5,0v3.9c0,0,1.8-0.9,4.4,0
	s-0.4,0.9,2.6,0.9c3,0,1.3,0,5.6,0c4.3,0,4.3,0,4.3,0s-0.9,1.3,3.4,0s2.1-1.3,4.3-1.3c2.1,0,0.4,4.7,2.1,0s0,0,1.7-4.7
	s1.7-4.7,1.7-4.7s-0.6-0.9,2.7-0.9s3.9,0,6.6,0s2.3-0.4,5.3-0.4s6.4,0,6.9,0c0.4,0-4.7-1.7,0.4,0s6.9,3,6.9,3l1.3,3
	c3.4,1.7,3,1.7,5.1,1.7s3.9-2.1,3.9-2.1c0.9,4.7,0.9,7.2,0.9,7.2l4.2-1.5l0.5-0.2c0,0-2.6-0.4,0,3.9s3.4,7.3,3.4,7.3s1.7,3.4,3,4.3
	s-2.6,1.3,1.3,0.9s0.9,0.9,3.9-0.4s5.6-3.9,5.6-3.9c3,0,3,0,3,0l2.1,4.5c0,0,0-0.7,2.1,0s3,3.2,5.6,0s0.9-0.6,2.6-3.2s0,2.6,1.7-2.6
	s0-1.7,1.7-5.1s3-6,3.9-7.7s3.4-1.3,4.3-7.7c0.9-6.4,0.9-3.9,0.9-6.4s0-0.4,0-4.7s0,3,0-4.3s0.4-2.6,0-7.3c-0.4-4.7,0.2-7.3,0.2-7.3
	s-1.9-1.3-5.3-3.4c-3.4-2.1-3.4-2.1-3.4-2.1l-0.9-3.9c0,0-0.4-1.3-1.7-2.1c-1.3-0.9-0.9-0.4-3.4-2.1c-2.6-1.7-3.4-3.3-4.7-2.9
	c-1.3,0.4,0,2.1-1.3,0.4s1.3,2.1-1.3-1.7c-2.6-3.9-1.7-1.3-2.6-3.9s-0.9,3.9-0.9-2.6s-3.9-8.1-3.9-8.1s-1.3,0-2.1-3.9
	s-1.3-4.7-2.1-7.3s1.3-6.9-0.9-2.6c-2.1,4.3,2.1-2.1-2.4,7.7s-4.9,11.6-4.9,11.6c-0.9,2.6-2.6,8.1-5.1,6.4s-1.3,1.3-2.6-1.7
	c-1.3-3-1.7-5.1-1.7-5.1l-1.3-3.4l-2.1-0.4c0,0,0.9-4.3,2.1-5.1c1.3-0.9,1.3-0.9,1.3-0.9s1.7-1.3,0.4-2.6c-1.3-1.3-3-1.7-3-1.7
	C1080.6,492.7,1076.3,494,1076.3,494z"/>
<path class="st30" d="M1072.5,500.6l-2.6-2.1h-2.1h-3.4v2.1v5.1h-3c0,0-1.7,1.7-2.1,3s-0.4,1.3-0.4,1.3l0,0c0,0-2.1-1.3-3.4,0
	s-1.3,1.3-1.3,1.3h-1.9c0,0-1.6-2.1-3.3-2.1c-1.7,0-4.3,0-4.3,0l-2.1,2.1c0,0,1.7,3,0,4.7c-1.7,1.7-3,4.3-3,4.3s-1.2-0.9-2.6,0
	s3,0.9-1.3,0.9s-9.9,7.3-9.9,7.3s-6.4,4.7-8.6,4.7s-4.4,0-4.4,0s-1.6,2.6-2,3.9s-2.1,3.9-2.1,3.9s0,2.4,0,4.4s4.2,8.9,4.2,8.9
	s-0.6,2.6,0,3.9s0,8.6,0,8.6l2.5,3.4c0,0-0.6,0.9,0,3s0.6,2.1,0.6,2.1s-0.9,3-0.6,3c0.2,0-2.5,0-2.5,0v3.9c0,0,1.8-0.9,4.4,0
	s-0.4,0.9,2.6,0.9c3,0,1.3,0,5.6,0c4.3,0,4.3,0,4.3,0s-0.9,1.3,3.4,0s2.1-1.3,4.3-1.3c2.1,0,0.4,4.7,2.1,0s0,0,1.7-4.7
	s1.7-4.7,1.7-4.7s-0.6-0.9,2.7-0.9s3.9,0,6.6,0s2.3-0.4,5.3-0.4s6.4,0,6.9,0c0.4,0-4.7-1.7,0.4,0s6.9,3,6.9,3l1.3,3
	c3.4,1.7,3,1.7,5.1,1.7s3.9-2.1,3.9-2.1c0.9,4.7,0.9,7.2,0.9,7.2l4.2-1.5l0.5-0.2c0,0-2.6-0.4,0,3.9s3.4,7.3,3.4,7.3s1.7,3.4,3,4.3
	s-2.6,1.3,1.3,0.9s0.9,0.9,3.9-0.4s5.6-3.9,5.6-3.9c3,0,3,0,3,0l2.1,4.5c0,0,0-0.7,2.1,0s3,3.2,5.6,0s0.9-0.6,2.6-3.2s0,2.6,1.7-2.6
	s0-1.7,1.7-5.1s3-6,3.9-7.7s3.4-1.3,4.3-7.7c0.9-6.4,0.9-3.9,0.9-6.4s0-0.4,0-4.7s0,3,0-4.3s0.4-2.6,0-7.3c-0.4-4.7,0.2-7.3,0.2-7.3
	s-1.9-1.3-5.3-3.4c-3.4-2.1-3.4-2.1-3.4-2.1l-0.9-3.9c0,0-0.4-1.3-1.7-2.1c-1.3-0.9-0.9-0.4-3.4-2.1c-2.6-1.7-3.4-3.3-4.7-2.9
	c-1.3,0.4,0,2.1-1.3,0.4s1.3,2.1-1.3-1.7c-2.6-3.9-1.7-1.3-2.6-3.9s-0.9,3.9-0.9-2.6c0-6.4-3.9-8.1-3.9-8.1s-1.3,0-2.1-3.9
	s-1.3-4.7-2.1-7.3s1.3-6.9-0.9-2.6c-2.1,4.3,2.1-2.1-2.4,7.7c-4.5,9.8-4.9,11.6-4.9,11.6c-0.9,2.6-2.6,8.1-5.1,6.4s-1.3,1.3-2.6-1.7
	c-1.3-3-1.7-5.1-1.7-5.1l-1.3-3.4l-2.1-0.4c0,0,0.9-4.3,2.1-5.1c1.3-0.9,1.3-0.9,1.3-0.9s1.7-1.3,0.4-2.6c-1.3-1.3-3-1.7-3-1.7
	C1076.8,499.4,1072.5,500.6,1072.5,500.6z"/>
<path class="st17" d="M478.7,657.8l-14.1-16.7l7.1-15.4v-9l13.5-24.4H498V573l18-6.4l14.1-25.7l14.1-12.9l11.6-20.6l10.3-21.9v-14.1
	l-45-21.9l-5.8-10.3L500.5,429l-23.1-14.1h-12.9l-12.6-5.7L439,421.9c-2,2-5.8-2-8.5-1.5l-6.1,2.2c-6-0.3-6.1-5-6.4-11.1l1.3-9.5
	c0-0.9-2.3-2.9-3.2-2.9l-7.9,0.3c-1.6,0-4.8,0.4-4.8-1.3l0.5-3.7l4.7-13.3c-3.2-2.7-1.2-6-3.3-3.7l-9.9,5.9l-0.8,4.4
	c-1.9,1.9-4.5,2.8-7.6,3.6l-7.8-2.2l-2.7-7.7c-1.7-4-0.2-9.8-1.3-14l4.4-12.4c3.9-1.2,6.3-2.8,8.9-2.5l10.1,0.9l6.8-4.5l11.7,1.3
	l6,13.4c2.2,3,6.9,2.1,7.9-1.5l0.4-4.9c0,0,0-9,3.9-10.3s7.7-9.3,7.7-9.3l7.7-10.4l10.3-15.1c0,0,7.7-7.7,12.9-7.7s12.9,3.9,16.7,0
	c2.4-2.4,5.7-8.1,7.9-12.1c1.5-2.7,1-6-1.2-8.1l-6.7-6.7l4.5-3.6c8-6.4,8.8-18.2,1.8-25.7l-6.3-6.7l-7.7-16.7l-9-9L444,205.3h-14.1
	l1.3,20.6l-3.9,10.3l3.9,15.4l-11.6-3.9l-9-7.7l-15.4-3.9l-6.4-7.7l3.9-11.6l10.3-11.6c0,0,2.6-6.4,6.4-7.7
	c3.9-1.3,11.6-5.1,11.6-5.1l6.4-7.7l-2.6-12.9h-11.6l-2.6,11.6h-7.7l-2.6-11.6h-6.4v-7.7l1.3-10.3l3.9-7.7h-7.7H381v9v7.7v11.6
	l-9,1.3l-10.3,2.6l-14.1,2.6l-18,5.1l-12.9-3.9l-16.7-7.7c0,0-15.4-3.9-19.3-3.9c-3.9,0-9,0-12.9,0s-11.6,1.3-11.6,1.3l-7.7,1.3
	l-12.9-2.6c0,0-32.8-6-36.6-6c-3.9,0-1.9-2.8-1.9-2.8l-10.3-0.2l-13.9,11.6l-6.2,0.6c-2.9,3.3-2.8,4.3,0.6,7l14.5,7.6l-4.1,3.9
	c2.5,1.5-4.1-4.6-6.9-3.6l-8.4,3.2v2.6c-2.8,0.5-0.5,2.7,1.9,4.3l8.2,1.5l6.6,0.2c2.7,1.2,0.7,7.6-2.3,8l-7.6,3.4
	c-3.3,0.5-4.5,4.6-2,6.9l5.3,4.7l14.2,3.6c3.4,2.6,3.1,7.8-0.5,10.1l-11.8,6l-4.3,2.8c-2.9,2.9-1.6,2.3,2.4,2.8l3-1.1l11.1-6.2
	l12.9-9c0,0,4.7-16.7,8.6-16.7s1.5,9.2,1.5,9.2l6.9-0.6l3.9-4.5l31.9,7.9l5.5,8.6l8.2,9l6.9,1.9l8.4,16.1l18.4,13.1l-1.1,4.3
	l-6.4-4.5l1.9,35.6l10.1,19.3l9.9,6.6l2.4,4.8l0.4,3.6l1.9,4.3l2.1,4.3c0,0,2.4,3.6,3,4.7c0.6,1.1,2.8,5.4,2.8,5.4s3.2,5.8,3.9,6.2
	c0.6,0.4,1.7,2.1,2.4,2.8c0.6,0.6,4.3,1.7,4.3,1.7s1.7,0.4,1.7-0.2c0-0.6-0.2-4.5-0.9-4.9c-0.6-0.4-2.8-3.2-2.8-3.9
	s-2.6-5.4-2.6-5.4l-3.2-4.3l-2.4-6.2l-1.5-3.2l0.4-1.9l2.6-0.2l2.4,2.8l1.7,3.2l2.8,3.9c0,0,1.9,3.2,2.6,4.1s3,4.3,3.6,5.1
	s4.5,5.1,4.5,5.1s0.9,3,1.5,3.9s1.7,4.1,2.8,4.7c1.1,0.6,2.6,2.4,4.3,4.1c1.7,1.7,4.7,6.4,5.1,7.1c0.4,0.6,2.1,2.6,2.1,2.6l2.8,3.2
	c0,0,4.1,1.7,6.4,2.4c2.4,0.6,3.6,0.4,4.3,1.1s6.9,3,7.5,3s3.4,0.2,4.5,0.9c1.1,0.6,4.9,2.1,6.2,2.6c1.3,0.4,3,0.4,3.9,1.1
	s2.6,1.3,3.4,1.5s3.6,1.1,3.6,1.1s1.1,0,1.5,0.6s1.9,1.7,2.4,3s0.6,3,0.6,3l0.2,2.6c0,0,0.2,0.6,0.2,1.3s1.7,1.5,1.7,1.5l4.1,1.3
	l1.9,1.5l1.3,1.9c0,0,3.2,1.1,3.9,1.7s2.8,1.5,2.8,1.5s1.5-2.5,2.1-2.5s0.4,1.3,2.8,0s0.6,1.4,1.3,0.5s1.7-1.3,2.8,0.2
	c1.1,1.5,3,2.6,3.2,3.6s0.6,3,0.6,3s-2.8,5.4-2.8,6.6c0,1.3,0.2,1.3-0.6,2.6s-1.9,3-2.4,3.9s-0.9,2.6-1.5,3.6s-0.9,2.4-1.3,3.2
	c-0.4,0.9-3,5.1-3,5.1l0.6,5.1l-0.9,3.4l-1.9,3c0,0,1.9,4.3,2.6,5.4c0.6,1.1,1.7,3.4,1.9,4.1c0.2,0.6,3,4.7,3,4.7l1.5,2.6
	c0,0,2.6,9.2,3.2,9.9c0.6,0.6,1.7,4.1,3,4.9s2.1,1.3,3.6,2.6s4.9,2.6,5.6,3s3.4,3.6,3.4,3.6l1.1,1.7l1.9,1.9l1.5,2.4l1.1,1.9
	l0.2,1.3l0.4,9.2l-0.9,10.3c0,0-1.3,3.9-1.7,5.6c-0.4,1.7-0.9,4.7-2.1,6c-1.3,1.3-2.6,10.7-2.6,10.7l-1.7,10.7c0,0,0.9,5.6,0,7.7
	s-2.1,7.7-2.1,7.7l-1.3,8.1l0.4,9.9l-0.4,9l-1.3,9.4c0,0,0.9,7.3,1.3,8.6c0.4,1.3,0.9,5.6,1.7,7.7c0.9,2.1,5.1,7.7,6.9,9
	c1.7,1.3,5.1,4.7,5.1,4.7s5.6,3.9,6.9,3.9c1.3,0,5.1,0,5.1,0L478.7,657.8L478.7,657.8z"/>
<path class="st30" d="M545.4,222.6c0-1.3,4.3-16.7,4.3-16.7l3-6l6.4-6h6.4h3.9c0,0,3-5.6,4.7-7.7s6.4-8.3,6.4-8.3s14.6,0.7,16.7,0
	s8.6-5.8,8.6-5.8h-7.7l-1.7-3.4l6-5.6c0,0,1.3,2.6,3.4,3s3.4-3,3.4-3l-4.3-5.1l-6.9-5.1c0,0-0.4,1.7,2.1,0s7.3-0.9,9,0
	s1.7,0.9,1.7,0.9l2.1-6.9l-3.9-0.4l-1.7-3.5c0,0,2.6,1.3,3.9,0s3.9,0,3.9,0v-4.7v-3.4l-3.4-3l0.4-5.1c0,0,3,0.4,4.7,0
	s1.7-0.4,1.7-0.4l-3-3.4c0,0,0.4-3-0.9-3s-3,0-3,0s4.7-4.3,6.9-6.4c2.1-2.1,6.9-10.7,6.9-10.7l11.1-8.6c0,0-8.6-3.9-10.3-3.4
	c-1.7,0.4-16.3,6.4-17.6,6.9s-7.3,0.9-7.3,0.9s9-7.8,5.6-7.8s-16.1,2.2-16.1,2.2l-14.4-2.2c0,0,14.1-4.7,14.4-4.7s14.4,0,14.4,0
	s-1.3-5.1-2.6-5.1s-11.1-2.6-14.1-3s-15.9-3-17.6-3s-12,0-12,0l-4.7,6c0,0-9-0.9-9-1.3s-10.3,0-10.3,0l5.1,6.9l-9.4,1.7l-15-3
	l-5.1,1.3L488,89.7v6l-10.7,5.1l-6.9,1.3l7.7,5.1c0,0-6,1.7-7.7,2.1s-12.4,3-12.4,3v4.7l8.6,3.9l14.6,2.1l-19.7,0.9l11.6,6.4
	c0,0,9,4.3,12.4,4.7c3.4,0.4,3.9-2.6,11.1,1.3s10.7,7.7,10.7,7.7l1.3,10.3l-1.7,5.1l-2.6,3.9c0,0,1.3,0.4,3,1.3s6-1.3,6-1.3
	s-0.4-3,2.1-2.1s4.7,2.1,5.6,3.4c0.9,1.3,0.4-1.3,0.9,1.3c0.4,2.6-6.4,3.9-8.1,3.9s-5.1,0.4-5.1,0.4s-2.1,1.3-0.4,2.6
	c1.7,1.3,3.9,2.6,3.9,2.6s0,4.3,1.3,2.4c1.3-1.9,0.4-1.5,3.4-2.4s5.1-1.3,5.1-1.3l1.7,3.7h-3c0,0-2.6,2.8-3.9,4.5
	c-1.3,1.7-3,5.1-3,5.1v3c0,0,2.1,3.9,2.6,5.1c0.4,1.3,2.1,4.7,2.1,4.7l0.4,3.9c0,0,0,0,2.6-0.4s2.6-0.4,2.6-0.4l-0.4,4.3l-2.6,1.7
	c0,0-1.7,1.7,0.4,3.4c2.1,1.7,4.7,3.4,4.7,3.4s-0.9,1.7,1.7,2.1s-0.4-1.7,2.6,0.4s4.7,3.9,4.7,3.9h3c0,0-0.4,3.9,2.1,2.1
	c2.6-1.7,2.6-1.7,2.6-1.7L545.4,222.6z"/>
<path class="st30" d="M1078.3,453.2c-1.7-0.4-3.9,0-3.9,0v3.4l1.9,2.6v3.4c0,0-3.6,2.1,0,3.2s3.6,1.1,3.6,1.1l2.1-1.1l9,4.5h2.7
	l2.9,4.7l-2.9,3.1c6.3-0.1,10.2,0,10.2,0c4.3,2,4.3,2,4.3,2s2.1,0.9,3.4,0s-3.4-0.9,1.3-0.9c4.7,0,5.6,2.9,7.7,5.1s-3.9,2.2,2.1,2.2
	s8.1,0,8.1,0c2.6,0.9,2.6,3.9,2.6,0.9s2.6-4.7,0-5.1c-2.6-0.4-6.4-4.1-6.4-4.1s0.9-1,3-1.9s0.9,1.7,2.1-0.9c1.3-2.6,0.1-1.9,2.4-4.6
	c2.3-2.7,2.7-5.1,2.7-5.1s0-0.2-2.1,0s-2.6,4.4-4.7,5.1s1.3,0.7-2.1,0.7s-5.6-0.7-5.6-0.7s-0.9-5.8-3.4-5.1
	c-2.6,0.7-5.1-1.5-5.1-1.5s-1.3-0.4-3.9-1.7c-2.6-1.3-1.7-4.3-4.5-3.4s-3.2,0-4.5,0s6.4,0-1.3,0c-7.7,0-7.7,0-7.7,0l-3.9,1.7
	c0,0-0.4,1.3-3.4,0s-3.9,0.4-4.7-1.7c-0.9-2.1-0.9-2.1-0.9-2.1L1078.3,453.2z"/>
<path class="st30" d="M1033.3,439.3c3,1.3,3.4-1.7,3,1.3s3.4,3-0.4,3s-3.9,0-3.9,0s-3.9-1.3-1.3,2.6c2.6,3.9,2.6,6.4,2.6,6.4
	s3,3.9,0,5.6c-3,1.7-2.2,4.3-4.3,5.6s-4.3,4.7-4.3,4.7c-3.9,0.4-4.7,1.7-8.1,0s-5.1-1.3-6.4-2.6s3,2.1,0-3s-2.6-3.4-3-5.1
	s-3,1.7-0.4-1.7c2.6-3.4,3-3,4.3-4.3s-1.3,0,1.3-1.3c2.6-1.3,2.1-0.4,3.9-3.9c1.7-3.4,1.3-5.1,3.4-7.3c2.1-2.1,3,0.1,4.7-1.9
	C1026.1,435.4,1030.3,438,1033.3,439.3z"/>
<path class="st30" d="M1059.3,449.9h-4.7l-4.3,3l-3.8,2.1l-0.4,3.4v7.7v6c3-1.3,3.9-4.5,3.9-4.5c2.1-1,2.1-1,2.1-1s3,5.1,2.6,1
	s-0.4-4-0.4-4s-0.8-0.9,0.4-2.6c1.3-1.7-1.3-0.4,1.3-1.7c2.6-1.3,2.6-1.3,2.6-1.3s-2.1-0.8,0.9-3s3-2.1,3-2.1l0,0v-3L1059.3,449.9
	L1059.3,449.9z"/>
<path class="st30" d="M1000.2,478.9c-5.1,0.9-5.1,0.9-5.1,0.9l-3,2.6c2.1,1.7-6.9,0.9,4.7,1.7c11.6,0.9,11.6,0.9,11.6,0.9h2.6
	c0,0-2.6,1.7,0,2.6s9,3,9,3s-0.9,1.7,0-2.1s0.9-4.7,0-6.4c-0.9-1.7-4.7-3.4-4.7-3.4S1005.3,478.1,1000.2,478.9z"/>
<path class="st30" d="M746.8,573.1h7.7c0,0,0-2.9,3.9-4.8s-1.9,3.9,3.9-1.9s1.9,0,5.8-5.8s-1-1,3.9-5.8c4.8-4.8,2.9,0,4.8-4.8
	s-1-1,1.9-4.8s2.9-3.9,2.9-3.9s4.8,6.8,4.8,0s-1,2.9,0-6.8s1-9.6,1-9.6V520c9.6-4.8,5.8-1.9,9.6-4.8c3.9-2.9,7.7-5.8,7.7-5.8
	s0-6.8,0-10.6s0,4.8,0-3.9s0-13.5,0-13.5s1.9-1,0-5.8c-1.9-4.8-1.9,1-1.9-4.8c0-5.8-4.8,0,0-5.8s-1,1.9,4.8-5.8c5.8-7.7,0-1,5.8-7.7
	s1-1.9,5.8-6.8c4.8-4.8-1,1,4.8-4.8c5.8-5.8,1.9-1,5.8-5.8c3.9-4.8,2.9,0,3.9-4.8c1-4.8,1-4.8,1-4.8v-5.8c-5.8,0-10.6,0-10.6,0h-4.8
	h-7.7l-1-4.8l-3.9-4.8l-2.9-5.5c-3.9-6.1-3.9-6.1-3.9-6.1l-4.8-4.8l-4.3-3.9v-5.8c-3.4-5.8-7.2-12.5-7.2-12.5l-4.8-12.5h12v12.5
	l11.1,14.5c0,0,1.9,5.8,4.8,10.6c2.9,4.8,3.5,6.8,3.5,8s1.7,5.1,1.7,5.1l4.3,1.7c0,0,5.1,0.9,6-0.9c0.9-1.7,0.9-1.7,0.9-1.7
	s1.7-4.7,3.4-4.3c1.7,0.4,2.6,1.3,4.7,0s-0.9-0.9,3.4-2.1c4.3-1.3,0.9,1.3,6.4-2.1c5.6-3.4,6.4-2.1,7.7-3.9c1.3-1.7-2.1,0,1.3-1.7
	s0.9,2.1,3.4-1.7c2.6-3.9,0.9-2.1,2.6-3.9c1.7-1.7,0.9,0.9,1.7-1.7c0.9-2.6-1.3-3.4,0-5.1c1.3-1.7,0.4-3.9,0.2-4.7
	c-0.2-0.9-1.1-3-2.3-3.4c-1.3-0.4-5.1-2.1-5.1-2.1s-1.7-0.4-3,0.4s3,1.7-1.3,0.9c-4.3-0.9-0.9,0-4.3-0.9s-3.4-0.9-3.4-0.9
	s0.9,1.3-0.9-2.1c-1.7-3.4-1.7-3.4-1.7-3.4l-1.7-2.6c0,0-1.3,0.4-2.6,0c-1.3-0.4-1.7,0-2.6-2.1s-0.9-2.1-0.9-2.1s-0.4-1.7-0.4-3.4
	s-2.1-1.3,0-1.7c2.1-0.4,5.1,0,5.1,0s1.7-3,2.6-0.2s2.1,6.2,2.1,6.2l1.7,2.6c0,0,2.1,0.9,3.4,0.9s-0.9,0.4,1.3,0
	c2.1-0.4-3.9-1.7,2.1-0.4c6,1.3,8.1,2.1,8.1,2.1l7.7,4.3c3.9,0.4,1.3,0.4,3.9,0.4s5.1,0,5.1,0s-1.7,0,2.1,0.4
	c3.9,0.4,3.9,0.4,3.9,0.4s0,0,3.4,0s5.1,0.9,5.1,0.9l5.1,2.6l2.6,4.3l-3,2.6c0,0-2.1,2.6,0.4,3s4.3,0.4,4.3,0.4s0.9,0.4,2.6-0.4
	s1.7-0.9,1.7-0.9s-2.6,2.1,0,4.7c2.6,2.6,2.1,3,3.9,6.4c1.7,3.4,3.4,10.3,3.4,10.3s-0.4,0.4,0,2.6s1.7,5.1,1.7,5.1s0.9,2.6,1.7,3.9
	c0.9,1.3,2.1,5.1,2.1,5.1v5.6l2.1,0.4c0,0,0.9,4.3,2.1,3.4c1.3-0.9-1.3,3.9,1.3-0.9c2.6-4.7,0,2.1,2.6-4.7c2.6-6.9,0.9-0.4,2.6-6.9
	s0.9-3.4,1.7-6.4c0.9-3,0.4-3,1.7-5.1s1.3-2.1,2.1-3.9c0.9-1.7-1.7,0,0.9-1.7s-0.4-0.9,2.6-1.7s0.4,2.1,3-0.9s2.1,0,2.6-3
	s0.4-3,0.4-3l1.7-3c5.6,0.4,5.6,0.4,5.6,0.4s1.7-1.3,2.6-3s1.3-2.1,2.6-3s-1.7,0,1.3-0.9s-0.4,0,3-0.9s-0.4-0.4,3.4-0.9
	s3-3.9,3.9-0.4s5.1,10.7,5.1,10.7v4.3v3l3,3.4l3.9-1.3c0,0,0.9-3.9,2.6-0.4s1.7,6.4,1.7,6.4s-0.4,2.1,0,4.3c0.4,2.1-1.7,2.6,0,3.9
	c1.7,1.3,0.1,6.4,0.1,6.4s-0.7,1.3,0.7,3s3.5,5.1,3.5,5.1v4.7c0,0,2.1,3,2.6,4.3s0.4,1.3,0.4,1.3l2.6,3.9c0,0,1.3,1.3,2.1,3
	c0.9,1.7,2.1,3.9,2.1,3.9c2.6,0.4-0.4,2.1,2.6,0.4c3-1.7,2.1,0.9,3-1.7c0.9-2.6,0-3.9,0-5.1c0-1.3-0.4-1.3-1.7-3.4
	c-1.3-2.1-2.1-4.7-3.4-6.4s0.9,1.3-1.3-1.7c-2.1-3,0,0.9-2.1-3s-3-4.7-3.4-6s-0.9-0.4-0.4-3s0-3.9,1.7-5.1c1.7-1.3-2.6-0.9,1.7-1.3
	c4.3-0.4,6,3.4,6,3.4s2.9-0.9,3.4,3.4c0.5,4.3,0.5,4.3,0.5,4.3s1.3,2.1,2.6,2.1s-1.3,2.6,1.3,0s-0.4,1.7,2.6-2.6
	c3-4.3,1.7-4.7,3.9-6c2.1-1.3,0,0.9,2.1-1.3c2.1-2.1,1.3,0.9,2.1-2.1s2.1,1.7,0.9-3c-1.3-4.7-1.3-4.7-1.3-4.7l-2.6-5.1l-2.1-3.4
	c0,0,0-0.4-0.9-2.1c-0.9-1.7-0.9-1.7-0.9-1.7s-0.4-1.7-0.4-3.4c0-1.7,0.4-3.4,0.4-3.4c3-2.1-4.3-1.7,3-2.1c7.3-0.4,7.3-0.4,7.3-0.4
	s0,4.3,3.4,0.9c3.4-3.4,1.7-2.1,3.4-3.4s-2.6,0,1.7-1.3c4.3-1.3,2.6-0.4,4.3-1.3s0.9-0.4,3.4-1.3c2.6-0.9-2.1,1.7,2.6-0.9
	c4.7-2.6,4.7-2.6,4.7-2.6s1.7-0.9,2.6-2.1c0.9-1.3-0.9,0,2.1-4.3s3-4.3,3-4.3l2.6-3c0.9-3,0.9-3,0.9-3v-3.4c0-3,0.4-0.9,0-3
	s-0.5-3.9,0.2-3.9c0.7,0,2.4,4.3,0.7,0s-4.3-6.9-4.3-6.9s0-1.9-0.4-2.4s-0.4-0.6-0.4-0.6l-1.3-2.6v-3c3.4-2.6,3.4-2.6,3.4-2.6
	l3.7-1.7c0,0-1-0.5,0-1.8s3.3-1.7,0-2.6c-3.3-0.9-3.3-0.9-3.3-0.9s3.9-0.4,0,0s-3.9,0.4-3.9,0.4l-3.4-0.6v-6.2l6.9-3.4
	c0,0-1.3,0.4,2.1,0s3.4-0.4,3.4-0.4v5.1c3-1.7,4.3-6.9,5.6-5.1c1.3,1.7,0-0.9,1.3,1.7c1.3,2.6-0.9,3.4,0,5.1
	c0.9,1.7,0.4,3.4,0.4,3.4c4.3,4.7,7.7,7.7,7.7,7.7v4.7c0,0,1.3,0,3-1.3s-1.3,0.9,1.7-1.3c3-2.1,1.7,0,3-2.1s3.4,1.3,1.3-2.1
	c-2.1-3.4-3-5.6-3-5.6l-1.3-3c0,0-3.9-0.4-2.1-2.6c1.7-2.1,2.1-5,3.4-5.1s-0.9,2.9,1.3-0.1c2.1-3-2-3,2.6-4.7s1.7,0,4.7-1.7
	s3-1.7,4.7-3s3-1.3,3.9-2.6c0.9-1.3,0.9-1.3,0.9-1.3s-0.9,1.7,2.1-2.1c3-3.9,3-3.9,3-3.9v-1.7l3.9-3.9c0,0,2.1-3.4,3.4-4.7
	c1.3-1.3,2.6-6,2.6-6s-1.3-1.3,0-4.3s2.1-4.7,2.1-6s0,0,0-3.4s-1.7-7.3-1.7-7.3s-5.1,1.3-6.9,0c-1.7-1.3,3,0.4-1.7-1.3
	c-4.7-1.7-4.7-1.7-4.7-1.7l-0.9-1.7c3-3.4,2.6-3.4,4.7-4.3c2.1-0.9,2.1-0.9,2.1-0.9s0.9-7.7,4.3-7.7s12-0.4,12-1.7
	c0-1.3-5.6,0.9,0-1.3c5.6-2.2,5.1-3,10.7-4.3c5.6-1.3-4.3-2.1,5.6-1.3c9.9,0.9,9,1.7,13.7,2.1s1.3,0,4.7,0.4
	c3.4,0.4,3.4,0.4,3.4,0.4l2.1-3.4c0,0,0.4-0.9,0-3.5c-0.4-2.6-5.2-3,0.2-4.3c5.4-1.3,5.8,1.7,7.1,0c1.3-1.7,3-2.4,3.4-0.3
	c0.4,2-3,2.9,0.4,2s2.1-2.8,4.7-3.3s3.4-2.3,5.1-2.7s1.7-0.4,1.7-0.4s0.9-0.4,0,2.6s-2.1,3.4-3.9,5.1c-1.7,1.7-0.4,1.7-3.9,3.9
	c-3.4,2.1-4.3,3.4-6.4,5.1c-2.1,1.7-2.6,3.9-3.9,4.7c-1.3,0.9-0.9-1.3-3.4,2.6c-2.6,3.9-3.4,7.7-3.4,7.7s-0.4,1.7-0.4,4.7
	s0.4,8.1,0.4,9.4s1.3,5.6,1.3,5.6s-0.9,1.3,3,0s0.4,2.1,3.9-1.3c3.4-3.4,3-3.4,4.3-5.6s-1.7,0.9,1.3-2.1s-0.9,2.6,3-3
	c3.9-5.6,4.7-6,5.1-8.1c0.4-2.1,1.3-5.1,1.3-5.1s-0.4-1.3-0.4-3.4s0-2.1,0-2.1l2.5-5.1l1.8-1.7c0,0,2.1-1.7,3.4-1.7s3.4,0,3.4,0
	l3.4,0.4c2.6,1.7-2.1,4.3,2.6,1.7c4.7-2.6,2.1-0.4,4.7-2.6s-4.7-1.7,2.6-2.1c7.3-0.4,3.4,2.6,7.3-0.4s6.9-5.6,6.9-5.6
	s0.4-0.4,2.6-1.3c2.1-0.9,6-2.2,6-2.2c3-2.1,3.9-6,3.9-6s0.9-3-2.1-3s-6,0-6,0s-3.4-2.6-1.3-3s5.6-2.1,7.7-2.6s2.6-1.3,3.9-3
	s-1.3,0,1.3-1.7c2.6-1.7,8.1,5.1,8.1,5.1c3,1.3-0.9,1.7,3,1.3c3.9-0.4,3-0.4,5.6-1.7c2.6-1.3-1.3,0,2.6-1.3c3.9-1.3,1.3,3.9,3.9-1.3
	c2.6-5.1,5.6-9.9,3.9-10.3s-3-0.4-4.7,0s-4.3,3-5.6,3s-2.6,0.4-3.4-0.9c-0.9-1.3,1.7,2.4-2.6-2.5s-3.4-6.1-7.3-7.4
	c-3.9-1.3-3.9-2.6-7.7-3.4s1.7,0-7.7-2.6c-9.4-2.6-9.4-2.6-9.4-2.6h-6.8c-1.3,4.3,1.3,6.4-0.4,6.9c-1.7,0.4-1.7,0.4-5.6,0.4
	s-3.9,0-3.9,0s-0.9-1.7,0.4-3s2.6-4.3,2.6-4.3c-7.3,2.1-8.1,2.6-12.4,3s-4.7,0-6.4,0c-1.7,0-1.7,0-1.7,0s1.7-0.9-2.6-0.9
	s-4.3,0-4.3,0s-0.4,0-1.3-2.1s3-0.4-0.9-2.1c-3.9-1.7-4.7,2.1-8.1,0s-4.7-2.6-6.9-2.6s2.1,1.7-5.1,0c-7.3-1.7-8.6-3.9-8.6-3.9
	s0.9-1.7,1.7-3c0.9-1.3,4.7-0.9,0.9-1.3s-3.9,1.3-9.4,0c-5.6-1.3-3.9,1.6-7.3-0.1s1.7-0.8-3.4-1.6c-5.1-0.9-8.1,0-8.1,0
	s3.4-5-2.1-0.4c-5.6,4.7-5.6,4.7-5.6,4.7s3.4,1.7-3,1.7s-4.3-0.9-8.6-0.4c-4.3,0.4-6.9,0-6.9,0c-3.4,0.4-3,1.3-6,2.1
	c-3,0.8-0.4,0.4-3,0.9s-1.3,4.3-2.6,0.4c-1.3-3.9-1.7-2.6-1.7-5.6s-0.4-5.8-0.4-5.8s12-0.6-0.4-1.9c-12.4-1.3-9-1.3-12.4-1.3
	s-5.6,0-5.6,0s-0.4,2.1-3,2.1s-2.6,0.4-5.1,0.4c-2.6,0-2.6,0-2.6,0l-3.9-2.6c-2.6-1.7,0.4-1.7-2.6-1.7s-2.1,0-5.6,0
	c-3.4,0-0.9-1.3-6,0c-5.1,1.3-1.3,1.3-5.1,1.3s-3.9-2.9-6-1.9s-0.9,0.6-3.9,2.3c-3,1.7-0.4,0.9-3,1.7c-2.6,0.9-7.1,2.6-5.5,0
	c1.6-2.6,6.3-4.3,10.2-6c3.9-1.7,1.7,0.4,6.4-2.6c4.7-3,3-0.4,4.7-3c1.7-2.6,1.7-0.4,1.7-2.6c0-2.1,0.4-2.1-2.6-3.4
	c-3-1.3,11.1,4.3-3-1.3c-14.1-5.6-11.6-4.7-14.1-5.6c-2.6-0.9-6.4-1.7-6.4-1.7c-2.1,0,4.7,0-2.1,0c-6.9,0-9-0.9-11.1,0
	c-2.1,0.9-3.9,1.7-5.1,3c-1.3,1.3,2.1-1.7-1.3,1.3s2.6-1.3-3.4,3c-6,4.3-3.4,4.7-6,4.3c-2.6-0.4-2.6-1.3-4.7-1.3s-3.9,0-5.1,0
	s1.7-2.1-4.7-0.9c-6.4,1.3-6,2.1-8.6,3.9c-2.6,1.7-2.6,0.9-4.3,3.9s-0.9,5.1-2.1,5.1c-1.3,0,5.1,0-1.3,0s-8.1-1.3-8.1-1.3
	s-1.7,0.4-2.1,1.7c-0.4,1.3,0.4,9,4.7,12s5.1,3,6,4.3c0.9,1.3,3.9,0.9,2.1,3.4c-1.7,2.6-1.3,4.3-3.4,4.3s5.6,3.4-2.1,0
	s-6.4,0.9-7.7-3.4c-1.3-4.3-0.4-0.9-1.7-6.4c-1.3-5.6-1.3-5.6-1.3-5.6s-0.9-1.3-4.7-0.4c-3.9,0.9-3.9,0.9-3.9,0.9l-1.3,6l-2.6,0.4
	c0,0-1.3,2.1-2.6-1.3c-1.3-3.4-2.1-6-2.1-7.3c0-1.3,0-1.3,0-1.3s-2.1,1.3-2.6,3.4c-0.4,2.1-0.9,4.7-0.9,4.7s-2.6-2.1,0,2.6
	s-1.7,1.7,2.6,4.7c4.3,3,3,3.4,6.4,4.3s3.4,0.9,3.4,0.9l1.3,3.4c-3.9,2.6-0.4,3.4-3.9,2.6s-1.3,1.7-3.4-0.9s-2.6-6-3.9-4.7
	c-1.3,1.3-0.9,3.4-1.7,5.6c-0.9,2.1-1.3,4.3-1.3,4.3l-1.7,3c-3.9,3-5.6,3.4-6.9,3.9s0.4,0.4-1.3,0.4s-0.4,3-1.7,0s-1.7-2.6,1.3-6.4
	c3-3.9,0.9,0.4,3-3.9c2.1-4.3,1.7-0.9,2.1-4.3s0.4-4.3,0.4-5.6s0,1.7,0-3.4c0-5.1,1.3-1.7,0-7.3c-1.3-5.6-1.3-5.6-1.3-5.6
	s3.4-3-0.4-2.6s-4.3,1.7-6,2.6s-1.7,0.9-1.7,0.9s1.3,1.7-3,3s-5.1-2.6-4.7,4.3c0.4,6.9,1.3,9,2.1,10.7c0.9,1.7,0.9-1.7,0.9,1.7
	c0,3.4-1.3,5.1-2.6,5.1s2.1,3.9-1.3,0s-4.3-5.1-6.9-6s-2.6-1.3-5.1-3c-2.6-1.7,5.1,2.1-2.6-1.7c-7.7-3.9-7.7-3.9-7.7-3.9
	s-1.3-5.1,0,0c1.3,5.1,1.3,5.1,1.3,5.1s3.9,2.6,2.1,4.7c-1.7,2.1,1.3,0.9-1.7,2.1c-3,1.3-5.6-1.7-5.6-1.7c-3,0,0.4-3-3,0
	s0.4,3-3.4,3s-6.4,2.6-6.4,2.6c-3.4-3-1.3-4.3-4.3-5.1c-3-0.9-5.6-3.4-7.7-0.4s1.7,4.7-4.3,5.6c-6,0.9-7.7,0-8.1,1.3
	s-0.9,2.6-0.4,1.3c0.4-1.3,3,0,0-3.9s-3-5.1-5.6-4.7s-4.3-4.7-3,2.6c1.3,7.3,4.3,3.4,1.3,7.3c-3,3.9,1.7,2.1-3,3.9
	c-4.7,1.7-6,3.4-6.9,5.1s3.4,3.2-1.7,3.3c-5.1,0.1-5.1-0.1-8.6,0s-0.4,1-3.4,0.1c-3-0.8-5.6,0.4-6.4-6s-0.9-6.4-0.9-6.4
	s8.6,5.6,9.9,4.7s-4.3,3,3.4,0s4.3-1.7,7.7-3c3.4-1.3,3.4-1.3,3.4-1.3s7.7,1.7,0.4-2.1c-7.3-3.9-4.7-3.4-7.3-3.9s9.4,5.1-2.6-0.4
	c-12-5.6-9.4-4.7-12-5.6c-2.6-0.9,0.4-0.9-5.1-2.1c-5.6-1.3-2.6,1.7-5.6-1.3s-3-3-3-3s-2.3-3-4.6-3s0.3,0.4-2.3,0s-2.1-8.1-6-3
	s-3.9,5.1-3.9,5.1l-5.1,2.1c0,0,2.4,0-2,0.4c-4.4,0.4-5.1,0.4-6.5,0.4c-1.3,0-1.3,0-1.3,0s-0.9,1.3-2.1,2.1
	c-1.3,0.9-2.1,1.3-3.9,2.6c-1.7,1.3-4.3,2.6-4.3,2.6s-1.7,0.9-2.6,2.1c-0.9,1.3,1.3-2.6-0.9,1.3s-0.4,1.7-2.1,3.9
	c-1.7,2.1-1.7,2.1-1.7,2.1s3,2.1,0,3.9c-3,1.7-0.9-0.9-3,1.7s0.9-1.3-2.1,2.6s-3,3.9-3,3.9s0,2.1-1.7,3c-1.7,0.9,1.3-0.4-1.7,0.9
	c-3,1.3-3,1.3-3,1.3l-4.7,1.9c-1.7,2.4-1.7,2.4-1.7,2.4l-3.4,3.9c0,0,0,3.4,0,4.7c0,1.3-0.9,3.9,0,5.6s-0.9-1.3,0.9,1.7s1.7,3,1.7,3
	l2.1,2.6l3.4-0.4c3.9-0.9,1.3,2.1,3.9-0.9s0-2.6,2.6-4.3c2.5-1.7-0.9-1.3,2.5-1.7c3.4-0.4,3.4-0.4,3.4-0.4l1.7,0.4l1.7,3
	c0,0-0.9,0.4-1.7,2.1c-0.9,1.7-0.9,2.1-1.3,4.3c-0.4,2.1-0.4,5.1-0.4,5.1s0.9,2.1,2.6,2.1s-1.3,3,1.7,0s0,2.1,3-3s2.6-5.1,3.9-6.9
	c1.3-1.7-3.9,0.9,1.3-1.7c5.1-2.6,5.1-2.6,5.1-2.6l0.9,3l-1.7-5.6c0,0-2.6-0.4-2.6-3.9s-1.3-4.3,0-6s0-0.9,3.9-4.3s2.3-2.1,4.8-5.1
	s2.9-1.1,5.5-4.8c2.6-3.7-0.9-1.6,2.6-3.7c3.4-2.1,4.3-9.4,5.6-3.9c1.3,5.6,4.7,3.6,1.3,7.6c-3.4,4-2.6,7.4-6,9.5
	c-3.4,2.1-4.3,3.9-5.1,5.6c-0.9,1.7-1.7,6.4-0.4,7.3c1.3,0.9,0.4,3,6,1.7c5.6-1.3,0.4,0.9,7.7,0c7.3-0.9,3.2-0.4,8.7,0
	c5.5,0.4,16.2-3.9,5.5,0.4c-10.7,4.3-5.6,5.1-13.3,6.4c-7.7,1.3-7.7,1.3-7.7,1.3s-2.6,1.7-0.9,2.6s5.1,3.9,5.1,6s3,3.4-2.6,3.4
	s-7.7,0-7.7,0s0,0.4-0.4,3s2.1,1.7-0.4,2.6s-3.4,2.6-6,2.6s1.7-0.4-2.6,0c-4.3,0.4,2.1-0.4-4.3,0.4s-3.9,0.4-8.1,0.9
	c-4.3,0.4-1.3,0.4-6,0c-4.7-0.4-6.9-1.7-6.9-1.7c-1.3-4.7-1.3,1.3-1.3-4.7s2.1-7.3,0-6s-2.6,4.3-2.6,4.3s-0.4,1.3-0.4,2.6
	s0,4.7,0,4.7s1.3,2.6,0,2.6s1.7,0-1.3,0s-3,0-3,0l-2.1,2.1c-2.1,2.1-3.6,2.6-5,3.9c-1.4,1.3,1.6-0.9-1.4,1.3s-3,2.6-5.1,3.9
	c-2.1,1.3,1.3-0.9-2.1,1.3c-3.4,2.1-0.9,0.9-3.4,2.1c-2.6,1.3,0,0.4-2.6,1.3c-2.6,0.9-2.6,0.9-2.6,0.9s0,0.9-2.1,1.3
	c-2.1,0.4-3,0.9-3.9,2.1c-0.9,1.3-0.9,1.3-0.9,1.3v3.4l3,3l1.7,3c0,0,0.4,1.7,0.9,3s0,0.9,0.4,4.3c0.4,3.4,0.4,3.4,0.4,3.4
	s-0.9,0.9-3.4,2.6s1.7,1.7-2.6,1.7c-4.3,0-5.6,0.9-6.9,0s2.1-0.4-1.3-0.9s-0.9-1.3-3.4-0.4c-2.6,0.9-0.4,0-4.3,2.6s-4.7-3.9-3.9,2.6
	c0.9,6.4-0.3,9.4-0.3,9.4s-0.7,1.7,0,3.9s-2.3,0,0.7,2.1s0.9,0.9,3,2.1c2.1,1.3,1.7,5.3,4.3,3.9c2.6-1.3-5.1-0.9,2.6-1.3
	c7.7-0.4,4.7,5.1,12-1.3c7.3-6.4,6.4-3.4,7.3-6.4s0.4-3,1.3-5.6s-1.3-2.6,3-4.7c4.3-2.1,3-1.3,6-3.9c3-2.6-3.9,0.4,3-2.6
	s6.9-2.6,9.4-3.4s0-0.9,2.6-0.9s6,2.6,6,2.6l3,3.4c0,0,3.9,1.3,6,3.4c2.1,2.1,2.1,2.1,2.1,2.1l3.9,3.9c0,0,1.3,1.7,0,2.6
	s-1.3,0.9-1.3,0.9s-3.9,2.6,0.4,2.6s3.4,2.6,4.3,0s1.3-3.9,1.3-5.1s-1.7,0.4,0-1.3s1.7-1.7,1.7-1.7s-1.7,0.4-3-3s1.3-1.3-1.3-3.4
	c-2.6-2.1-3.9-1.7-5.1-3c-1.3-1.3-2.6-2.6-3.9-4.3c-1.3-1.7,0,0.9-1.3-1.7c-1.3-2.6-1.3-4.7-1.3-4.7l5.6-0.4l9.9,8.1l2.1,5.6
	l3.4,4.3l2.2,3.4v2.6l3.4,6.4c3.9-0.9,3.9-0.9,3.9-0.9s0.9,0.4,1.7-1.3s-3,3,0.9-1.7s3.9-4.7,3.9-4.7s-2.1,3.9,1.3,3
	s3.9-0.4,4.3,1.3c0.4,1.7,2.1,4.7,2.1,4.7l0.4,2.1l4,4.3c0,0,7.2,0.9,8.9,0s-5.6-2.6,1.7-0.9s7.3,1.7,7.3,1.7l1.7-0.8l1.3,3.4
	c0,0,0.9,0.4,0,3.4s-1.3,5.1-1.7,6.4s-2.6,4.3-2.6,4.3s0.4,0.9-2.6,1.3c-3,0.4-1.3,6.1-9,3.3s-11.1-3.7-13.3-3.7
	c-2.1,0-4.3-0.9-5.6-0.9s-2.6-0.4-3.9-0.9s-0.9-0.9-3.4-0.9s-6.4,2.6-6.4,2.6s-3.4,5.3-4.7,3.7s-0.9,3.7-3.9,0s-3.4-5-6-5
	s-9.4-1.3-9.4-1.3l-3-1.3c-1.3-4.7-2.2-0.4-1.3-4.7c0.9-4.3,0.5-3.4,1.3-6c0.8-2.6,0.8-2.6,0.8-2.6l-8.6-5.6c0,0,1.3,0.9-2.6,0.9
	s-3-0.9-9.9,0s-6.4-1.7-9.4,0.4s-3,2.1-3,2.1l-1.3,3.4c0,0,5.1,1.3-4.3,0.9c-9.4-0.4-9.4-0.4-9.4-0.4l-2.6,0.9l-0.9,2.6l-2.6,4h-2.1
	l-6.1,5.9l-2.9,5.9c0,0-2.1,4.4-3.4,5.3s-1.7,4.3-3,4.7c-1.3,0.4-3.9,0.4-4.7,2.6c-0.9,2.1-0.9,5.6-2.6,7.7c-1.7,2.1-2.1,5.6-3,7.7
	c-0.9,2.1,1.3,5.6,0,6.9c-1.3,1.3,0.9,4.3-0.2,6s1.5,3.9-0.2,6.4c-1.7,2.6-2.2,4.7-2.2,7.3c0,2.6-0.9,4.7,0,6.9
	c0.9,2.1,4.7,7.3,4.7,7.3s0.9,2.6,2.1,3.9c1.3,1.3,1.7,2.6,4.7,4.7s3,5.1,5.1,6s0.9,1.7,4.3,2.1c3.4,0.4-1.7,0.4,3.4,0.4
	s4.7,0.4,9,0.4s-6.4,0,4.3,0s3.9,0,10.7,0c6.9,0-3.9-0.9,6.9,0s8.4,1.7,11.3,2.6c2.9,0.9,4.6,1.7,6.7,3s2.1,1.3,2.1,1.3
	s0.4,3,0.9,4.7s0.9,4.3,1.3,5.6c0.4,1.3,1.7,5.1,1.7,5.1s1.7,1.7,3,5.1c1.3,3.4,0,4.7,1.7,6c1.7,1.3,2.5,2.6,3.4,4.3
	c0.9,1.7,1.7,3.4,1.7,3.4l3.4,4.7c0,0,0,4.7-0.4,7.3c-0.4,2.6,0.4,5.6-0.4,8.6s-0.9,6.9-0.9,8.1s0,3.9,0,7.3s1.3,10.7,1.7,12.9
	c0.4,2.1,1.7,6,3.4,9s3.9,7.7,4.3,9.4c0.4,1.7,2.1,5.6,2.1,5.6l2.1,6.4l1.3,5.6c0,0,0.4,2.6,0.9,3.9s1.3,3,2.1,4.3
	c0.9,1.3,0.9,3.4,4.3,3.9s3.4,0.4,3.4,0.4L746.8,573.1z"/>
<path class="st30" d="M835.6,494.1l-2.1,1.7c0,0,1.3,1.7-2.6,2.6c-3.9,0.9-5.1,0.4-6.4,1.7s-2.1,3-3.4,3.4s-2.6,3.4-2.6,3.4
	s0.9,3.4,0,5.1s-1.7,7.7,0,9s1.7,8.1,1.7,8.1v3.9c0,0-1.7,1.3,2.1,0c3.9-1.3,4.7-0.9,6-2.1s0,0.9,1.3-1.3c1.3-2.1-0.9,3.9,1.3-2.1
	c2.1-6,0,0,2.1-6s0.9-3.3,2.6-7.6c1.7-4.4,3.4-8.6,3.4-8.6v-3.4v-2.6v-3L835.6,494.1z"/>
<path class="st30" d="M621.3,204.1c1.7-1.7-1.7-1.3,1.7-1.7s5.1,0.9,6.4,0s1.3-0.9,1.3-0.9l1.7-2.1l-2.6-6l-2.6-2.6h-3h-3.9h-4.3
	l-2.1,1.7l-2.6,2.6l-3-2.6l-2.6-1.7h-2.6v3v4h3.4c0,0,3,2.4,1.3,3.3s-1.7,0.9-1.7,0.9s0.9,6.7,1.3,2.9c0.4-3.8,2.6-1.6,2.6-1.6h2.1
	C612.3,203.3,619.6,205.8,621.3,204.1z"/>
<path class="st30" d="M640.5,248.3l-2.6,2.6c0,0-0.9,3.4-2.6,3.9c-1.7,0.4-1.7,0.4-1.7,0.4v6.9c0,0-2.6,4.3,0,3.4
	c2.6-0.9-0.9,0.9,2.6-0.9c3.4-1.7,0.9,0.4,3.4-1.7c2.6-2.1,2.6-2.1,2.6-2.1s0.9,0,1.7-1.7c0.9-1.7-1.7-2.1,0-4.3
	c1.7-2.1,1.7-2.1,1.7-2.1v-1.7l-3-2.6L640.5,248.3L640.5,248.3z"/>
<path class="st30" d="M653.8,231.6l-4.3,3.9l-3.9,1.3v3v3.4c0,0,3.9,1.3,4.1,2.6c0.2,1.3,0,2.6,0,2.6v2.1h2.4l1.7,3c0,0,0,4-1.7,3.5
	c-1.7-0.5-2.4,2.9-2.4,2.9v2.6v3.1h1.9c0,0,5.6-0.1,2.1,2c-3.4,2.1-3.4,2.1-3.4,2.1s3.5-0.4,4.5,0c1,0.4-1.5,1.3,1,0.4
	c2.6-0.9,0.4,0,2.6-0.9s-0.4-0.4,2.1-0.9s0,0.9,2.6-0.4c2.6-1.3,1.3,0.4,2.6-1.3c1.3-1.7,0,3,1.3-1.7s0-8.1,0-8.1
	c-2.1-1.3,1.3,1.2-2.1-1.3s-3.4-2.6-3.4-2.6s-0.9-0.5-1.3-2s-0.4-1.5-0.4-1.5s0.9,0-0.4-1.3S658,247,658,247s-0.7-1.7-1.4-3.4
	c-0.7-1.7-0.7,1.3-0.7-1.7s0-3,0-3l0.7-2.6v-4.7L653.8,231.6L653.8,231.6z"/>
<path class="st17" d="M752.2,103.9c-3.1,0.6-2.6,1-6.2,1.4s-2.2,1-4.9,0.9c-2.7-0.1-1.8,0.6-4.9,0c-3.1-0.6-4.6-1.5-4.8-1
	s-3.8,0.1,0,2s-0.3,1,5.4,2.5s6,1.7,7.3,2.2s2.4,1,2.4,1.6c0,0.6,0.9,1.6-1.3,2.1s-1.9,1.4-5,2.2s-2.5,1.1-3.8,1.3s1,1.3-2.5,0
	s-2.9-0.3-4.2-1.9c-1.3-1.6-0.2-3.4-2.4-1.2c-2.1,2.2-1.2,4.2-2.5,4.9s-0.9,2.4-4.8,1.9s-3.9-0.1-7-1c-3.1-0.9-4.7-0.3-5.8-1.6
	c-1.1-1.3-1.3-1-1.7-2c-0.4-1.1-1.4-1.4-1.4-3.6s0.1-2.7,0-5s-1.4-1.9,0-5.1s-0.3-5,2.4-4.9s3.8,0,5,0.8s2.4,2,3.1,1.9
	s0.5,2,1.6-1.3c1.1-3.3-0.9-3.1,1.1-3.3s2.4,0.6,3.5,1.7s3.5,3,4.2,3.1s0.6,1.3,1.7-0.1c1.1-1.4,1.1-1.2,2-3.1c1-1.9-1.6-2.6,2.2-3
	s6-0.3,8.6,0s4.2,0.3,6.4,0.3s2.6,0.1,4.8,0.1s2-0.6,3,0.2c1,0.9,1.2,0.8,1.2,1.4C755,98.9,755.3,103.2,752.2,103.9z"/>
<path class="st30" d="M468.2,184c-1.3,1.3-7.3,7.3-7.3,7.3h-6.4l-1.7,3c0,0,5.1-0.9,7.7,0c2.6,0.9,12.4,4.7,12.4,4.7l11.6,3.4h8.1
	v-5.1l-3.9-4.1c0,0-3-4.1-3.4-5.4s0.4-5.6,0.4-5.6l6.9,6.9l3.4,3.2c0,0,3.4-4.9,4.7-6.2s2.6-3.9,2.6-3.9l-9.4-5.6l-5.1-2.6l-1.3-5.1
	c0-3.4-0.4-6-1.7-6.9s-5.1-1.7-7.7-3c-2.6-1.3-6-3-6-3l-6.9-3.4l-5.6-5.6c0,0-4.7-3.9-6.9-4.7c-2.1-0.9-12.9-2.6-12.9-2.6
	s-3-0.9-6.9,0s-8.6,0.9-9.9,2.1c-1.3,1.3-3.9,5.1-3.9,5.1v5.6l4.3,0.4c0,0,2.1,5.1,0.9,5.1c-1.3,0-5.1,1.3-5.1,1.3l3.9,3.9h7.7
	c0,0,7.3-3.4,8.6-3.4c1.3,0,7.7-2.1,9.9-1.3c2.1,0.9,9,7.3,12,8.6c3,1.3,4.7,3.7,4.7,3.7l5.1,7.1L468.2,184z"/>
<path class="st30" d="M471.2,71.9c-2.1-0.4-3,1.3-4.3,0s-3.9-2.6-6-3s-2.6,1.7-6.9,0s-3.9-2.1-8.1-2.1s-6.9-0.9-8.6,0
	c-1.7,0.9-0.4,2.2-5.1,2.6c-4.7,0.4-3.8-1.7-7,0s-2.4,2.6-5.8,3s-1.7,1.7-6,2.5c-4.3,0.9-4.7-0.4-6.4,0s-3,0.2-7.7,0.3
	c-4.7,0.1-4.7,0.1-4.7,0.1l-3,3c1.3,2.1,3.9,2.6,5.6,3.4c1.7,0.9,4.6,2.6,4.6,2.6v3c0,0,0.2,2.1-2.4,2.1s-0.9,1.3-3.9,0
	s-3.9-2.6-3.9-2.6s-1.7-1.3-3-1.7c-1.3-0.4-1.3-0.4-1.3-0.4l-2.6-1.7c0,0-2.6-1.3-4.3-0.9c-1.7,0.4-0.3,1.3-2.3,2.6
	s-3.3,5.3-3.3,5.3h-3.9l3,5c6.4,1.7,6.4,1.7,6.4,1.7s0.9,0.4,2.1,0c1.3-0.4,3,0.2,3,0.2v3.7c0,0-3.9,1.3-1.3,3
	c2.6,1.7,0.4,2.1,2.6,1.7s2.1-0.4,2.1-0.4l1.7,0.6c3.9-0.2,3.9-0.2,3.9-0.2l0,0l3.9-2.6c4.7,1.7,5.1-0.1,6.9,2.7
	c1.7,2.8,1.7,2.8,1.7,2.8h-5.3l-3.7,4.7l-2.6,3.4c0,0,1.7,0,3,0s-3,0.4,1.3,0c4.3-0.4,9.9,0.2,9.9,0.2c3,0.2,3.4-0.2,6,0
	s5.1,0.1,5.1,0.1c3.9,1.9,0.9,2.3,3.9,1.9s3-0.4,3-0.4s1.7,0,1.7-1.7c0-1.7,0-1.7,0-1.7l0,0l-1.3-5.1c0,0-1.3-1.3,0.9-2.1
	c2.1-0.9,3-2.1,4.3-1.7s4.3,1.3,4.3,1.7s-1.7,2.1,0,0.4s2.1-1.3,2.6-3.4s0.4-3.9,0.4-3.9s-2.1-0.9-0.9-2.6c1.3-1.7-1.3-1.7,1.3-1.7
	c2.6,0,3.4,0.4,5.6-0.4s1.3-3.2,3-3.3s-1.3,2,1.7-0.1s3-2.1,3-2.1l3-1.3c0,0,1.7-1.7,3-3s-0.9,0,1.3-1.3c2.1-1.3,2.6-1.3,5.1-2.1
	c2.6-0.9,4.7-1.7,4.7-1.7c-0.9-2.1-3-2.6-3-2.6c6.9-0.4,6.9-0.4,6.9-0.4h4.3c0.9-3.4,0.9-3.4,0.9-3.4S473.4,72.3,471.2,71.9z"/>
<path class="st30" d="M356.9,161.6c-0.8,0-2.5,0-2.5,0c-3-2.6-3-2.6-3-2.6s-2.1-1.7-2.6-3.9c-0.4-2.1-0.4,0.9-0.4-2.1s0,0.4,0-3
	s0-3.4,0-5.4s2.1-1.5,0-1.9s-3.9-1.3-5.1,0s0.4-0.9-1.3,1.3c-1.7,2.1-1.7,2.1-1.7,2.1l-3.4,0.4c0,0-3-1.7-3,0.9s2.6,6.1,2.6,6.1
	s4.3,4.6,0.9,2.9c-3.4-1.7-5.1-3.4-6-4.7s3.9-3.4,0-3.4s-7.7,0-7.7,0s0.9,0-2.6,0s-6.9,0.4-6.9,0.4s-0.4-0.9-3.4-0.4s-1.3-2.1-3,0.4
	c-1.7,2.6-2.6,7.3-2.6,7.3s-0.9,1.3,2.1,2.1s3,0.9,3,0.9l-1.7,1.7c2.1,2.1,2.1,2.1,4.3,2.1c2.1,0-0.9,0.4,2.1,0s3-0.4,3-0.4
	s3,2.1,1.7,2.6c-1.3,0.4-3.9,0-3.9,0l-2.6,2.6c4.3,1.7,7.7,3,7.7,3s0.9,1.8,2.1,1.9c1.3,0.2-1.3,0.6,1.3,0.2s-0.4,2.1,2.6-0.4
	s4.9-4.3,4.9-4.3s-1.4-1.3,2.4-0.4c3.9,0.9,3.9,0.9,3.9,0.9l0,0c0,0,3,1.3,4.7,1.7c1.7,0.4,1.7,0.4,1.7,0.4s0.4,0,2.1,0
	c1.7,0,1.7,0,1.7,0s1.3-1.7,2.6-2.1c1.3-0.4,1.3-0.4,1.3-0.4l2.1-0.9h2.5C356.9,167.2,357.7,161.6,356.9,161.6z"/>
<path class="st30" d="M360.5,140l-2.3,2.6c2.3,1.5,2.3,1.5,2.3,1.5s0.4,3,0,3.4s-2.3,0-2.3,0l-0.3,4.3l1.4,3.9
	c3.8-0.9,1.2-0.4,3.8-0.9c2.6-0.4,0,1.3,2.6-0.4c2.6-1.7,1.7,0.9,2.6-1.7s2.1-4.8,2.1-4.8V145c-0.4-2.6-0.4-2.6-0.4-2.6l-1.3-3.4
	c-3.9-0.1-3.9-0.1-3.9-0.1L360.5,140z"/>
<path class="st30" d="M364.6,120.9c0,0,0.4,1.6-1.7,2.3s0,0.3-2.1,0.7c-2.1,0.4-2.8,0.9-6.1,0c-3.3-0.9-6.3-3-6.3-3s0,2.7,0,3.5
	c0,0.8,1.3,3.3,2.6,3.5c1.3,0.3,3.2,2,3.8,2.4c0.5,0.4-1.2-1.3,1.8,0c3,1.3,0,1.7,3,1.3s0.9,1.7,3-0.4s0.4,0.4,2.1-2.1
	c1.7-2.6,3-3.6,2.6-5.9s-0.4-2.3-0.4-2.3L364.6,120.9L364.6,120.9z"/>
<path class="st30" d="M360.8,110.4c-3-0.4-3-0.4-3-0.4l-2.1,0.6h-2.1l-2.1-0.6c0,0,0-1.7,0-3s0-1.3,0-1.3h-3.4h-2.1V101
	c2.1,0,4.7-3,5.6-1.3s3.2,2.1,3.5,2.6s2.8,0.9,2.8,0.9l3.1,1.8h3.1C363.9,104.9,363.9,110.9,360.8,110.4z"/>
<path class="st30" d="M334.7,120.9c-1.3,0-3.6,0-3.6,0v4.4v3.3c-2.9,0.4-0.7,0.4-2.9,0.4s-2.1,1-4.3-0.4c-2.1-1.3-6.4-3.5-6.4-3.5
	c-4.3,0.1-6,0.2-6,0.2v4c0,0-1.3,1.8,0,2.2s4.7-0.9,6.9,0c2.1,0.9,4.4,2.7,4.4,2.7v2.8c2.9,1.4-0.1,2.6,2.9,1.4c3-1.3,0.4,0.9,3-1.3
	c2.6-2.1,2.6-2.1,2.6-2.1l3.4-3c2.1,1.3,2.1,2.8,4.3,2.2c2.1-0.5,0,0.8,2.1-0.5s2.1-1.3,2.1-1.3s1.3-4.2,0-3.8s-2.1,0.1-3.4,0
	c-1.3-0.1-1.3-0.1-1.3-0.1l-1.3-3.3l1.3-2.3L334.7,120.9z"/>
<path class="st30" d="M291.1,140.7c0,0-0.2-2.8-2.3-2s0.5,1.6-2,0.8s2.1,2.6-2.6-0.9s-6.4-4.6-6.4-4.6l-3.4,3.4c0,0,2.1,2.9,0,4.4
	c-2.1,1.5-3.9,2.6-3.9,2.6l-2.6,4.7c0,0,4.3,5.8,6.4,5.8s-2.1,1.3,2.1,0c4.3-1.3,2.1,1.3,4.3-1.3c2.1-2.6,2.6-3,3.9-4.5
	c1.3-1.5-0.9-0.2,1.3-1.5c2.1-1.3,2.1-1.3,2.1-1.3s2.6-1.5,3.9-1.6c1.3-0.1,1.3-0.1,1.3-0.1l1.6-0.2L291.1,140.7z"/>
<path class="st30" d="M306.6,110.4v4.7c-3.3,0.9-3.3,0.9-3.3,0.9l0,0l-2.7-0.9l-2,2.3c-2.1,0.7,0,0.7-2.1,0.7s-1.7-0.4-5.1,0
	c-3.4,0.4-3.4,0.4-3.4,0.4s-1.7,2.6-1.7,0s-4.7,0,0-2.6s4.6-6.9,7-5.6s2.9-0.5,4.1-0.2c1.3,0.2-1.3,0.7,1.3,0.2
	c2.6-0.4-0.9-0.4,2.6-0.4s3.4,0,3.4,0l0,0L306.6,110.4z"/>
<path class="st30" d="M325.7,107.9c-0.2,0-2.2-0.6-2.7,0s0.8,0.6-1.4,0.6s-3.6-1.1-4.1-0.4c-0.5,0.7-0.2,1-1.1,1.4
	c-0.9,0.5-0.6,0.6-1.6,1.3c-1,0.7-1.4,1.1-1.4,1.4s-1.3,1.1,1.1,1.7s1.9,0.5,3.5,0.4s1.8,0.4,2.5,0.1c0.7-0.4-0.6-0.5,1.1-0.5
	s1.6,0.3,2.3-0.5c0.6-0.9,0.7-0.9,1-1.4s-0.7-0.7,0.5-0.9c1.1-0.2,0.7,0.2,1.1-0.2s0.7-0.5,0.7-1.1s0-1,0-1s0.7-0.7,0-0.7
	C326.4,108,325.7,107.9,325.7,107.9z"/>
<path class="st30" d="M337,96.5c-0.1,0.2,0.7,1.5,0,1.6s0.6,0.4-2.5,0s-2.2-0.9-3.4-0.7s-1,0.5-2.4,0.9c-1.4,0.4-1.3,0.8-1.9,0.8
	c-0.6-0.1-1.1-0.5-1.5-1c-0.3-0.5-1.7-0.9-0.6-2.1s0.6-1.5,1.7-1.6c1.1-0.1,0.2,0.1,2.8,0s2.6,0.5,4.4,0c1.8-0.5,3.1-0.9,3.3-0.9
	s-0.6-1.3,0.2,0s0.9,2.5,0.7,2.5C337.7,96,337,96.5,337,96.5z"/>
<path class="st30" d="M374.7,111.2h-3c-3.9-0.9-3.9-0.9-3.9-0.9v3.4l2.1,3.2c3.4,0.2,3.4,0.2,3.4,0.2l1.3-0.2l2.4-3.2L374.7,111.2z"
	/>
<path class="st30" d="M421.5,135.7c0,0,1.7-1.3,1.7-2.6c0-1.3,3-2.6-0.9-3.4s-9-2.6-10.3-2.1s1.7,2.1-4.7,1.7
	c-6.4-0.4-11.1-1.8-11.1-1.8c-3,1.4-3.9,2.1-5.1,0s-3.4-5.5-3.4-5.5h-4.7h-5.1c0,0-1.3,3,0,3.9s3,3,3,3l2.6,2.6
	c4.7,2.1,6,2.6,7.3,2.6s2.6-0.4,3.9,0c1.3,0.4,2.1,3,3.4,1.7s-0.9-0.9,1.3-1.3c2.1-0.4,3-0.4,4.7-0.4s1.7,0,1.7,0l2.1,2.1h2.6
	c3-0.8,5.1,0,5.1,0h3.9L421.5,135.7z"/>
<path class="st30" d="M1115,323.1c0,2.1-3.9,9-3.9,9s0.9,1.7-3.4,3s-5.6,3.5-7.7,3.9c-2.1,0.4-4.7,3.4-4.7,3.4s-3.4,3-5.6,3.4
	c-2.1,0.4-4.3,2-5.1,3.6s-1.3,3.3,0,4.6c1.3,1.3-2.6-0.9,3.9,0c6.4,0.9,0.4,3.4,6.4,0.9s9.4-4.4,12.4-5.4s3-0.1,5.6-3.1
	s0.4,1.3,2.6-3s0.9-0.9,2.1-4.3c1.3-3.4-2.6-4.3,0-6.4s3-2.1,3-4.3s0.9-5.1,0-5.1s-1.7,0-0.9,0c0.9,0-0.9-2.6,1.2-3.4
	s1.3-2.1,3.9-3.4s1.7,1.3,2.6-1.3c0.9-2.6,1.7-3,0-4.3s-2.1-1.7-3.9-3c-1.7-1.3,0.9-1.7-1.7-1.3s-4.7,3.9-4.7,3.9l-2.1,3l-0.9,4.3
	l0.4,3.4L1115,323.1z"/>
<path class="st30" d="M964.1,458.7c2.6,1.3,3,1.7,4.3,3.4s1.3,3,3.4,3.9s4.7,3.4,4.7,3.4s5.1,0.9,5.6,0s1.3,4.3,0.4-0.9
	c-0.9-5.1,1.7-5.8-2.1-8.5c-3.9-2.7-4.7-1.4-6-2.7s-1.8-4.3-2.6-4.3c-0.8,0,1.3,3.4-0.8,0c-2.1-3.4-2.6-3.9-3-5.6
	c-0.4-1.7,3.9-2.1-0.4-1.7S961.5,457.4,964.1,458.7z"/>
<path class="st30" d="M1046.2,389.7c-1.3,1.3-5.6,5.6-5.6,5.6s-1.7,1.7-1.7,3.4c0,1.7,3.6,7.7,3.6,7.7s0.6,3,1.9,4.3s1.7,3,1.7,3
	v2.1c4.3,0.9,8.1,3.4,8.1,0s0.9,1.3,0-3.4c-0.9-4.7,4.2-1.3,0.4-6.4s-8.4-3.9-7.2-6.4c1.2-2.6,1.3-1.3,0-5.6
	S1046.2,389.7,1046.2,389.7z"/>
<path class="st30" d="M1049.9,430.2c-3,0.4-5.9,0.4-5.5,1.7s0,4.3,0,4.3s4.4-0.9,4.3,0c-0.1,0.9-2,5.1,4.3,2.6s7.2,6.4,6.3-2.6
	c-0.9-9-0.9-9-0.9-9S1052.9,429.7,1049.9,430.2z"/>
<line class="st31" x1="65.1" y1="306.2" x2="1339.3" y2="303.2"/>
<circle class="st32" cx="454.8" cy="303.3" r="28.2"/>
<circle class="st33" cx="454.8" cy="303.3" r="16"/>
</svg>
